<svg width="459" height="252" viewBox="0 0 459 252" fill="none" xmlns="http://www.w3.org/2000/svg">
<g id="Rectangle 1">
<g id="Rectangle 1_2" filter="url(#filter0_d_0_1)">
<rect x="4" width="451" height="244" rx="25" fill="#1F1F1F"/>
<rect x="4.5" y="0.5" width="450" height="243" rx="24.5" stroke="black"/>
</g>
<rect id="Rectangle 2" x="49" y="61" width="361" height="114" rx="57" fill="#343232"/>
<g id="Social Icons" clip-path="url(#clip0_0_1)">
<path id="Vector" fill-rule="evenodd" clip-rule="evenodd" d="M229.513 207C220.935 207 214 213.986 214 222.628C214 229.536 218.443 235.384 224.607 237.454C225.378 237.609 225.66 237.118 225.66 236.704C225.66 236.341 225.635 235.1 225.635 233.806C221.319 234.737 220.421 231.943 220.421 231.943C219.727 230.131 218.7 229.666 218.7 229.666C217.287 228.709 218.803 228.709 218.803 228.709C220.369 228.812 221.192 230.313 221.192 230.313C222.578 232.693 224.813 232.02 225.712 231.606C225.84 230.597 226.251 229.899 226.688 229.511C223.246 229.148 219.625 227.803 219.625 221.8C219.625 220.092 220.241 218.695 221.217 217.609C221.063 217.22 220.523 215.616 221.371 213.468C221.371 213.468 222.681 213.054 225.634 215.073C226.899 214.731 228.203 214.557 229.513 214.555C230.823 214.555 232.158 214.736 233.391 215.073C236.345 213.054 237.654 213.468 237.654 213.468C238.502 215.616 237.962 217.22 237.808 217.609C238.81 218.695 239.401 220.092 239.401 221.8C239.401 227.803 235.78 229.122 232.312 229.511C232.877 230.002 233.365 230.934 233.365 232.408C233.365 234.504 233.34 236.186 233.34 236.703C233.34 237.118 233.622 237.609 234.393 237.454C240.557 235.384 245 229.536 245 222.628C245.025 213.986 238.065 207 229.513 207Z" fill="#747576"/>
</g>
</g>
<path id="DRAMALAMA" d="M119.819 121V97.172H129.476C133.004 97.172 135.618 98.1093 137.32 99.984C139.022 101.834 139.873 104.917 139.873 109.234C139.873 113.304 139.035 116.289 137.357 118.188C135.68 120.063 133.053 121 129.476 121H119.819ZM123.852 117.892H128.847C130.401 117.892 131.696 117.67 132.732 117.226C133.768 116.757 134.545 115.894 135.063 114.636C135.581 113.378 135.84 111.577 135.84 109.234C135.84 106.891 135.606 105.078 135.137 103.795C134.669 102.512 133.916 101.612 132.88 101.094C131.869 100.576 130.525 100.317 128.847 100.317H123.852V117.892ZM143.848 121V97.172H154.8C157.464 97.172 159.4 97.8627 160.609 99.244C161.842 100.601 162.459 102.451 162.459 104.794C162.459 106.471 162.039 107.902 161.201 109.086C160.362 110.27 159.153 111.096 157.575 111.565C158.019 111.886 158.364 112.231 158.611 112.601C158.857 112.971 159.104 113.464 159.351 114.081L162.348 121H158.204L155.281 114.34C155.009 113.699 154.676 113.242 154.282 112.971C153.912 112.7 153.27 112.564 152.358 112.564H147.881V121H143.848ZM147.881 109.308H153.727C155.182 109.308 156.329 108.95 157.168 108.235C158.006 107.52 158.426 106.373 158.426 104.794C158.426 101.809 156.983 100.317 154.097 100.317H147.881V109.308ZM164.066 121L173.168 97.172H177.682L186.71 121H182.566L180.198 114.858H170.615L168.247 121H164.066ZM171.244 111.75H179.532L175.388 100.835L171.244 111.75ZM190.676 121V97.172H194.82L202.368 112.601L209.879 97.172H214.023V121H210.027V103.721L203.589 116.893H201.147L194.672 103.721V121H190.676ZM217.976 121L227.078 97.172H231.592L240.62 121H236.476L234.108 114.858H224.525L222.157 121H217.976ZM225.154 111.75H233.442L229.298 100.835L225.154 111.75ZM244.586 121V97.172H248.619V117.892H260.829V121H244.586ZM263.322 121L272.424 97.172H276.938L285.966 121H281.822L279.454 114.858H269.871L267.503 121H263.322ZM270.5 111.75H278.788L274.644 100.835L270.5 111.75ZM289.933 121V97.172H294.077L301.625 112.601L309.136 97.172H313.28V121H309.284V103.721L302.846 116.893H300.404L293.929 103.721V121H289.933ZM317.232 121L326.334 97.172H330.848L339.876 121H335.732L333.364 114.858H323.781L321.413 121H317.232ZM324.41 111.75H332.698L328.554 100.835L324.41 111.75Z" fill="white"/>
<path id="watch kdrams, anime and read mangas for free" d="M87.2911 144L85.2891 137.056H86.5491L87.8791 142.194L89.2651 137.056H90.4831L91.8551 142.194L93.1851 137.056H94.4451L92.4571 144H91.3791L89.8671 138.414L88.3551 144H87.2911ZM97.3752 144.168C96.9366 144.168 96.5352 144.089 96.1712 143.93C95.8072 143.771 95.5179 143.543 95.3032 143.244C95.0886 142.945 94.9812 142.586 94.9812 142.166C94.9812 141.615 95.1726 141.181 95.5552 140.864C95.9472 140.547 96.4932 140.304 97.1932 140.136C97.9026 139.959 98.7286 139.819 99.6712 139.716C99.6899 139.128 99.5732 138.675 99.3212 138.358C99.0692 138.041 98.6632 137.882 98.1032 137.882C97.6832 137.882 97.3379 137.98 97.0672 138.176C96.8059 138.363 96.6379 138.624 96.5632 138.96L95.4292 138.624C95.6159 138.092 95.9472 137.681 96.4232 137.392C96.9086 137.093 97.4639 136.944 98.0892 136.944C99.0506 136.944 99.7506 137.173 100.189 137.63C100.637 138.078 100.861 138.787 100.861 139.758V141.382C100.861 141.961 100.885 142.46 100.931 142.88C100.978 143.3 101.034 143.673 101.099 144H100.021L99.7412 143.048C99.5359 143.393 99.2419 143.669 98.8592 143.874C98.4766 144.07 97.9819 144.168 97.3752 144.168ZM97.6272 143.23C97.9912 143.23 98.3366 143.165 98.6632 143.034C98.9899 142.903 99.2559 142.684 99.4612 142.376C99.6666 142.059 99.7692 141.629 99.7692 141.088V140.654C99.0599 140.729 98.4439 140.822 97.9212 140.934C97.3986 141.037 96.9926 141.186 96.7032 141.382C96.4232 141.569 96.2832 141.821 96.2832 142.138C96.2832 142.465 96.3999 142.731 96.6332 142.936C96.8759 143.132 97.2072 143.23 97.6272 143.23ZM104.912 144C104.474 144 104.133 143.958 103.89 143.874C103.657 143.781 103.494 143.608 103.4 143.356C103.316 143.104 103.274 142.74 103.274 142.264V137.994H102.098V137.056H103.274V135.306H104.45V137.056H105.794V137.994H104.45V142.068C104.45 142.423 104.483 142.661 104.548 142.782C104.623 142.903 104.828 142.964 105.164 142.964H105.794V144H104.912ZM110.123 144.168C109.461 144.168 108.887 144.014 108.401 143.706C107.916 143.389 107.543 142.959 107.281 142.418C107.02 141.877 106.889 141.256 106.889 140.556C106.889 139.865 107.025 139.249 107.295 138.708C107.575 138.157 107.967 137.728 108.471 137.42C108.975 137.103 109.568 136.944 110.249 136.944C110.875 136.944 111.411 137.098 111.859 137.406C112.307 137.714 112.643 138.083 112.867 138.512L111.789 138.904C111.64 138.624 111.421 138.4 111.131 138.232C110.842 138.064 110.52 137.98 110.165 137.98C109.82 137.98 109.493 138.073 109.185 138.26C108.877 138.437 108.63 138.717 108.443 139.1C108.257 139.473 108.163 139.954 108.163 140.542C108.163 141.121 108.257 141.606 108.443 141.998C108.639 142.381 108.887 142.665 109.185 142.852C109.493 143.039 109.82 143.132 110.165 143.132C110.548 143.132 110.879 143.048 111.159 142.88C111.449 142.703 111.668 142.483 111.817 142.222L112.895 142.614C112.634 143.062 112.261 143.435 111.775 143.734C111.29 144.023 110.739 144.168 110.123 144.168ZM114.337 144V134.648H115.513V138.106C115.709 137.779 115.985 137.504 116.339 137.28C116.694 137.056 117.165 136.944 117.753 136.944C118.593 136.944 119.186 137.191 119.531 137.686C119.877 138.171 120.049 138.811 120.049 139.604V144H118.873V139.954C118.873 139.599 118.841 139.273 118.775 138.974C118.71 138.666 118.565 138.419 118.341 138.232C118.127 138.045 117.795 137.952 117.347 137.952C116.778 137.952 116.33 138.148 116.003 138.54C115.677 138.923 115.513 139.487 115.513 140.234V144H114.337ZM125.904 144V134.648H127.08V140.178L129.88 137.056H131.294L128.676 139.926L131.644 144H130.202L127.892 140.794L127.08 141.676V144H125.904ZM135.096 144.168C134.573 144.168 134.083 144.028 133.626 143.748C133.169 143.459 132.8 143.048 132.52 142.516C132.249 141.975 132.114 141.321 132.114 140.556C132.114 139.791 132.249 139.142 132.52 138.61C132.8 138.069 133.169 137.658 133.626 137.378C134.083 137.089 134.573 136.944 135.096 136.944C135.647 136.944 136.109 137.056 136.482 137.28C136.855 137.495 137.145 137.784 137.35 138.148V134.648H138.526V141.382C138.526 141.615 138.535 141.961 138.554 142.418C138.573 142.866 138.643 143.393 138.764 144H137.658L137.35 142.95C137.145 143.323 136.855 143.622 136.482 143.846C136.109 144.061 135.647 144.168 135.096 144.168ZM135.404 143.16C136.001 143.16 136.477 142.931 136.832 142.474C137.196 142.017 137.378 141.377 137.378 140.556C137.378 139.725 137.196 139.086 136.832 138.638C136.477 138.181 136.001 137.952 135.404 137.952C134.807 137.952 134.326 138.181 133.962 138.638C133.607 139.086 133.43 139.725 133.43 140.556C133.43 141.377 133.607 142.017 133.962 142.474C134.326 142.931 134.807 143.16 135.404 143.16ZM140.464 144V137.056H141.318L141.696 138.344C141.939 137.924 142.266 137.588 142.676 137.336C143.096 137.075 143.596 136.944 144.174 136.944V138.162C144.109 138.162 144.039 138.162 143.964 138.162C143.899 138.162 143.834 138.167 143.768 138.176C142.975 138.241 142.42 138.517 142.102 139.002C141.794 139.487 141.64 140.159 141.64 141.018V144H140.464ZM146.963 144.168C146.524 144.168 146.123 144.089 145.759 143.93C145.395 143.771 145.106 143.543 144.891 143.244C144.676 142.945 144.569 142.586 144.569 142.166C144.569 141.615 144.76 141.181 145.143 140.864C145.535 140.547 146.081 140.304 146.781 140.136C147.49 139.959 148.316 139.819 149.259 139.716C149.278 139.128 149.161 138.675 148.909 138.358C148.657 138.041 148.251 137.882 147.691 137.882C147.271 137.882 146.926 137.98 146.655 138.176C146.394 138.363 146.226 138.624 146.151 138.96L145.017 138.624C145.204 138.092 145.535 137.681 146.011 137.392C146.496 137.093 147.052 136.944 147.677 136.944C148.638 136.944 149.338 137.173 149.777 137.63C150.225 138.078 150.449 138.787 150.449 139.758V141.382C150.449 141.961 150.472 142.46 150.519 142.88C150.566 143.3 150.622 143.673 150.687 144H149.609L149.329 143.048C149.124 143.393 148.83 143.669 148.447 143.874C148.064 144.07 147.57 144.168 146.963 144.168ZM147.215 143.23C147.579 143.23 147.924 143.165 148.251 143.034C148.578 142.903 148.844 142.684 149.049 142.376C149.254 142.059 149.357 141.629 149.357 141.088V140.654C148.648 140.729 148.032 140.822 147.509 140.934C146.986 141.037 146.58 141.186 146.291 141.382C146.011 141.569 145.871 141.821 145.871 142.138C145.871 142.465 145.988 142.731 146.221 142.936C146.464 143.132 146.795 143.23 147.215 143.23ZM152.386 144V137.056H153.254L153.562 138.106C153.758 137.779 154.024 137.504 154.36 137.28C154.706 137.056 155.135 136.944 155.648 136.944C156.18 136.944 156.61 137.051 156.936 137.266C157.263 137.481 157.501 137.779 157.65 138.162C157.93 137.733 158.266 137.425 158.658 137.238C159.06 137.042 159.503 136.944 159.988 136.944C160.791 136.944 161.365 137.191 161.71 137.686C162.056 138.171 162.228 138.811 162.228 139.604V144H161.052V139.954C161.052 139.599 161.015 139.273 160.94 138.974C160.875 138.666 160.735 138.419 160.52 138.232C160.315 138.045 159.998 137.952 159.568 137.952C159.064 137.952 158.658 138.148 158.35 138.54C158.052 138.923 157.902 139.487 157.902 140.234V144H156.726V139.954C156.726 139.599 156.689 139.273 156.614 138.974C156.549 138.666 156.409 138.419 156.194 138.232C155.989 138.045 155.672 137.952 155.242 137.952C154.738 137.952 154.332 138.148 154.024 138.54C153.716 138.923 153.562 139.487 153.562 140.234V144H152.386ZM166.524 144.168C166.122 144.168 165.726 144.107 165.334 143.986C164.951 143.855 164.606 143.664 164.298 143.412C163.999 143.151 163.77 142.824 163.612 142.432L164.746 142.012C164.848 142.423 165.072 142.721 165.418 142.908C165.772 143.085 166.141 143.174 166.524 143.174C166.804 143.174 167.065 143.132 167.308 143.048C167.56 142.964 167.765 142.843 167.924 142.684C168.082 142.525 168.162 142.343 168.162 142.138C168.162 141.755 168.008 141.485 167.7 141.326C167.401 141.167 167.042 141.046 166.622 140.962L165.656 140.766C165.32 140.691 165.007 140.589 164.718 140.458C164.428 140.318 164.195 140.122 164.018 139.87C163.84 139.618 163.752 139.282 163.752 138.862C163.752 138.442 163.882 138.092 164.144 137.812C164.405 137.523 164.736 137.303 165.138 137.154C165.548 137.005 165.978 136.93 166.426 136.93C166.976 136.93 167.494 137.047 167.98 137.28C168.474 137.504 168.824 137.859 169.03 138.344L167.924 138.75C167.802 138.47 167.588 138.265 167.28 138.134C166.981 137.994 166.668 137.924 166.342 137.924C165.987 137.924 165.665 138.003 165.376 138.162C165.086 138.321 164.942 138.549 164.942 138.848C164.942 139.147 165.063 139.366 165.306 139.506C165.558 139.637 165.866 139.739 166.23 139.814L167.14 139.996C167.513 140.071 167.868 140.178 168.204 140.318C168.54 140.458 168.815 140.668 169.03 140.948C169.244 141.219 169.352 141.601 169.352 142.096C169.352 142.535 169.216 142.908 168.946 143.216C168.675 143.524 168.325 143.762 167.896 143.93C167.466 144.089 167.009 144.168 166.524 144.168ZM170.398 145.862L171.056 144.154C170.841 144.117 170.659 144.014 170.51 143.846C170.37 143.678 170.3 143.482 170.3 143.258C170.3 143.015 170.388 142.805 170.566 142.628C170.743 142.451 170.953 142.362 171.196 142.362C171.448 142.362 171.662 142.451 171.84 142.628C172.017 142.805 172.106 143.015 172.106 143.258C172.106 143.37 172.082 143.487 172.036 143.608L171.168 145.862H170.398ZM179.489 144.168C179.05 144.168 178.649 144.089 178.285 143.93C177.921 143.771 177.631 143.543 177.417 143.244C177.202 142.945 177.095 142.586 177.095 142.166C177.095 141.615 177.286 141.181 177.669 140.864C178.061 140.547 178.607 140.304 179.307 140.136C180.016 139.959 180.842 139.819 181.785 139.716C181.803 139.128 181.687 138.675 181.435 138.358C181.183 138.041 180.777 137.882 180.217 137.882C179.797 137.882 179.451 137.98 179.181 138.176C178.919 138.363 178.751 138.624 178.677 138.96L177.543 138.624C177.729 138.092 178.061 137.681 178.537 137.392C179.022 137.093 179.577 136.944 180.203 136.944C181.164 136.944 181.864 137.173 182.303 137.63C182.751 138.078 182.975 138.787 182.975 139.758V141.382C182.975 141.961 182.998 142.46 183.045 142.88C183.091 143.3 183.147 143.673 183.213 144H182.135L181.855 143.048C181.649 143.393 181.355 143.669 180.973 143.874C180.59 144.07 180.095 144.168 179.489 144.168ZM179.741 143.23C180.105 143.23 180.45 143.165 180.777 143.034C181.103 142.903 181.369 142.684 181.575 142.376C181.78 142.059 181.883 141.629 181.883 141.088V140.654C181.173 140.729 180.557 140.822 180.035 140.934C179.512 141.037 179.106 141.186 178.817 141.382C178.537 141.569 178.397 141.821 178.397 142.138C178.397 142.465 178.513 142.731 178.747 142.936C178.989 143.132 179.321 143.23 179.741 143.23ZM184.912 144V137.056H185.78L186.088 138.106C186.284 137.779 186.559 137.504 186.914 137.28C187.268 137.056 187.74 136.944 188.328 136.944C189.168 136.944 189.76 137.191 190.106 137.686C190.451 138.171 190.624 138.811 190.624 139.604V144H189.448V139.954C189.448 139.599 189.415 139.273 189.35 138.974C189.284 138.666 189.14 138.419 188.916 138.232C188.701 138.045 188.37 137.952 187.922 137.952C187.352 137.952 186.904 138.148 186.578 138.54C186.251 138.923 186.088 139.487 186.088 140.234V144H184.912ZM193.758 135.74C193.525 135.74 193.32 135.656 193.142 135.488C192.974 135.311 192.89 135.101 192.89 134.858C192.89 134.615 192.974 134.41 193.142 134.242C193.32 134.074 193.525 133.99 193.758 133.99C194.001 133.99 194.206 134.074 194.374 134.242C194.552 134.41 194.64 134.615 194.64 134.858C194.64 135.101 194.552 135.311 194.374 135.488C194.206 135.656 194.001 135.74 193.758 135.74ZM193.17 144V137.994H192.204V137.056H194.346V144H193.17ZM196.451 144V137.056H197.319L197.627 138.106C197.823 137.779 198.089 137.504 198.425 137.28C198.77 137.056 199.199 136.944 199.713 136.944C200.245 136.944 200.674 137.051 201.001 137.266C201.327 137.481 201.565 137.779 201.715 138.162C201.995 137.733 202.331 137.425 202.723 137.238C203.124 137.042 203.567 136.944 204.053 136.944C204.855 136.944 205.429 137.191 205.775 137.686C206.12 138.171 206.293 138.811 206.293 139.604V144H205.117V139.954C205.117 139.599 205.079 139.273 205.005 138.974C204.939 138.666 204.799 138.419 204.585 138.232C204.379 138.045 204.062 137.952 203.633 137.952C203.129 137.952 202.723 138.148 202.415 138.54C202.116 138.923 201.967 139.487 201.967 140.234V144H200.791V139.954C200.791 139.599 200.753 139.273 200.679 138.974C200.613 138.666 200.473 138.419 200.259 138.232C200.053 138.045 199.736 137.952 199.307 137.952C198.803 137.952 198.397 138.148 198.089 138.54C197.781 138.923 197.627 139.487 197.627 140.234V144H196.451ZM211.026 144.168C210.298 144.168 209.682 144.009 209.178 143.692C208.674 143.365 208.286 142.931 208.016 142.39C207.754 141.839 207.624 141.223 207.624 140.542C207.624 139.805 207.773 139.17 208.072 138.638C208.37 138.097 208.772 137.681 209.276 137.392C209.789 137.093 210.363 136.944 210.998 136.944C211.548 136.944 212.034 137.056 212.454 137.28C212.874 137.495 213.219 137.789 213.49 138.162C213.77 138.526 213.97 138.941 214.092 139.408C214.222 139.875 214.269 140.355 214.232 140.85H208.884C208.902 141.429 209.028 141.886 209.262 142.222C209.504 142.558 209.789 142.796 210.116 142.936C210.442 143.067 210.746 143.132 211.026 143.132C211.418 143.132 211.744 143.071 212.006 142.95C212.276 142.819 212.491 142.651 212.65 142.446L213.784 142.782C213.532 143.183 213.172 143.515 212.706 143.776C212.239 144.037 211.679 144.168 211.026 144.168ZM208.898 139.912H212.986C212.986 139.585 212.902 139.273 212.734 138.974C212.575 138.675 212.346 138.433 212.048 138.246C211.758 138.05 211.408 137.952 210.998 137.952C210.652 137.952 210.326 138.017 210.018 138.148C209.71 138.279 209.453 138.489 209.248 138.778C209.052 139.067 208.935 139.445 208.898 139.912ZM221.489 144.168C221.05 144.168 220.649 144.089 220.285 143.93C219.921 143.771 219.631 143.543 219.417 143.244C219.202 142.945 219.095 142.586 219.095 142.166C219.095 141.615 219.286 141.181 219.669 140.864C220.061 140.547 220.607 140.304 221.307 140.136C222.016 139.959 222.842 139.819 223.785 139.716C223.803 139.128 223.687 138.675 223.435 138.358C223.183 138.041 222.777 137.882 222.217 137.882C221.797 137.882 221.451 137.98 221.181 138.176C220.919 138.363 220.751 138.624 220.677 138.96L219.543 138.624C219.729 138.092 220.061 137.681 220.537 137.392C221.022 137.093 221.577 136.944 222.203 136.944C223.164 136.944 223.864 137.173 224.303 137.63C224.751 138.078 224.975 138.787 224.975 139.758V141.382C224.975 141.961 224.998 142.46 225.045 142.88C225.091 143.3 225.147 143.673 225.213 144H224.135L223.855 143.048C223.649 143.393 223.355 143.669 222.973 143.874C222.59 144.07 222.095 144.168 221.489 144.168ZM221.741 143.23C222.105 143.23 222.45 143.165 222.777 143.034C223.103 142.903 223.369 142.684 223.575 142.376C223.78 142.059 223.883 141.629 223.883 141.088V140.654C223.173 140.729 222.557 140.822 222.035 140.934C221.512 141.037 221.106 141.186 220.817 141.382C220.537 141.569 220.397 141.821 220.397 142.138C220.397 142.465 220.513 142.731 220.747 142.936C220.989 143.132 221.321 143.23 221.741 143.23ZM226.912 144V137.056H227.78L228.088 138.106C228.284 137.779 228.559 137.504 228.914 137.28C229.268 137.056 229.74 136.944 230.328 136.944C231.168 136.944 231.76 137.191 232.106 137.686C232.451 138.171 232.624 138.811 232.624 139.604V144H231.448V139.954C231.448 139.599 231.415 139.273 231.35 138.974C231.284 138.666 231.14 138.419 230.916 138.232C230.701 138.045 230.37 137.952 229.922 137.952C229.352 137.952 228.904 138.148 228.578 138.54C228.251 138.923 228.088 139.487 228.088 140.234V144H226.912ZM236.938 144.168C236.415 144.168 235.925 144.028 235.468 143.748C235.01 143.459 234.642 143.048 234.362 142.516C234.091 141.975 233.956 141.321 233.956 140.556C233.956 139.791 234.091 139.142 234.362 138.61C234.642 138.069 235.01 137.658 235.468 137.378C235.925 137.089 236.415 136.944 236.938 136.944C237.488 136.944 237.95 137.056 238.324 137.28C238.697 137.495 238.986 137.784 239.192 138.148V134.648H240.368V141.382C240.368 141.615 240.377 141.961 240.396 142.418C240.414 142.866 240.484 143.393 240.606 144H239.5L239.192 142.95C238.986 143.323 238.697 143.622 238.324 143.846C237.95 144.061 237.488 144.168 236.938 144.168ZM237.246 143.16C237.843 143.16 238.319 142.931 238.674 142.474C239.038 142.017 239.22 141.377 239.22 140.556C239.22 139.725 239.038 139.086 238.674 138.638C238.319 138.181 237.843 137.952 237.246 137.952C236.648 137.952 236.168 138.181 235.804 138.638C235.449 139.086 235.272 139.725 235.272 140.556C235.272 141.377 235.449 142.017 235.804 142.474C236.168 142.931 236.648 143.16 237.246 143.16ZM246.23 144V137.056H247.084L247.462 138.344C247.705 137.924 248.031 137.588 248.442 137.336C248.862 137.075 249.361 136.944 249.94 136.944V138.162C249.875 138.162 249.805 138.162 249.73 138.162C249.665 138.162 249.599 138.167 249.534 138.176C248.741 138.241 248.185 138.517 247.868 139.002C247.56 139.487 247.406 140.159 247.406 141.018V144H246.23ZM253.942 144.168C253.214 144.168 252.598 144.009 252.094 143.692C251.59 143.365 251.202 142.931 250.932 142.39C250.67 141.839 250.54 141.223 250.54 140.542C250.54 139.805 250.689 139.17 250.988 138.638C251.286 138.097 251.688 137.681 252.192 137.392C252.705 137.093 253.279 136.944 253.914 136.944C254.464 136.944 254.95 137.056 255.37 137.28C255.79 137.495 256.135 137.789 256.406 138.162C256.686 138.526 256.886 138.941 257.008 139.408C257.138 139.875 257.185 140.355 257.148 140.85H251.8C251.818 141.429 251.944 141.886 252.178 142.222C252.42 142.558 252.705 142.796 253.032 142.936C253.358 143.067 253.662 143.132 253.942 143.132C254.334 143.132 254.66 143.071 254.922 142.95C255.192 142.819 255.407 142.651 255.566 142.446L256.7 142.782C256.448 143.183 256.088 143.515 255.622 143.776C255.155 144.037 254.595 144.168 253.942 144.168ZM251.814 139.912H255.902C255.902 139.585 255.818 139.273 255.65 138.974C255.491 138.675 255.262 138.433 254.964 138.246C254.674 138.05 254.324 137.952 253.914 137.952C253.568 137.952 253.242 138.017 252.934 138.148C252.626 138.279 252.369 138.489 252.164 138.778C251.968 139.067 251.851 139.445 251.814 139.912ZM260.481 144.168C260.042 144.168 259.641 144.089 259.277 143.93C258.913 143.771 258.623 143.543 258.409 143.244C258.194 142.945 258.087 142.586 258.087 142.166C258.087 141.615 258.278 141.181 258.661 140.864C259.053 140.547 259.599 140.304 260.299 140.136C261.008 139.959 261.834 139.819 262.777 139.716C262.795 139.128 262.679 138.675 262.427 138.358C262.175 138.041 261.769 137.882 261.209 137.882C260.789 137.882 260.443 137.98 260.173 138.176C259.911 138.363 259.743 138.624 259.669 138.96L258.535 138.624C258.721 138.092 259.053 137.681 259.529 137.392C260.014 137.093 260.569 136.944 261.195 136.944C262.156 136.944 262.856 137.173 263.295 137.63C263.743 138.078 263.967 138.787 263.967 139.758V141.382C263.967 141.961 263.99 142.46 264.037 142.88C264.083 143.3 264.139 143.673 264.205 144H263.127L262.847 143.048C262.641 143.393 262.347 143.669 261.965 143.874C261.582 144.07 261.087 144.168 260.481 144.168ZM260.733 143.23C261.097 143.23 261.442 143.165 261.769 143.034C262.095 142.903 262.361 142.684 262.567 142.376C262.772 142.059 262.875 141.629 262.875 141.088V140.654C262.165 140.729 261.549 140.822 261.027 140.934C260.504 141.037 260.098 141.186 259.809 141.382C259.529 141.569 259.389 141.821 259.389 142.138C259.389 142.465 259.505 142.731 259.739 142.936C259.981 143.132 260.313 143.23 260.733 143.23ZM268.438 144.168C267.915 144.168 267.425 144.028 266.968 143.748C266.51 143.459 266.142 143.048 265.862 142.516C265.591 141.975 265.456 141.321 265.456 140.556C265.456 139.791 265.591 139.142 265.862 138.61C266.142 138.069 266.51 137.658 266.968 137.378C267.425 137.089 267.915 136.944 268.438 136.944C268.988 136.944 269.45 137.056 269.824 137.28C270.197 137.495 270.486 137.784 270.692 138.148V134.648H271.868V141.382C271.868 141.615 271.877 141.961 271.896 142.418C271.914 142.866 271.984 143.393 272.106 144H271L270.692 142.95C270.486 143.323 270.197 143.622 269.824 143.846C269.45 144.061 268.988 144.168 268.438 144.168ZM268.746 143.16C269.343 143.16 269.819 142.931 270.174 142.474C270.538 142.017 270.72 141.377 270.72 140.556C270.72 139.725 270.538 139.086 270.174 138.638C269.819 138.181 269.343 137.952 268.746 137.952C268.148 137.952 267.668 138.181 267.304 138.638C266.949 139.086 266.772 139.725 266.772 140.556C266.772 141.377 266.949 142.017 267.304 142.474C267.668 142.931 268.148 143.16 268.746 143.16ZM277.73 144V137.056H278.598L278.906 138.106C279.102 137.779 279.368 137.504 279.704 137.28C280.049 137.056 280.479 136.944 280.992 136.944C281.524 136.944 281.953 137.051 282.28 137.266C282.607 137.481 282.845 137.779 282.994 138.162C283.274 137.733 283.61 137.425 284.002 137.238C284.403 137.042 284.847 136.944 285.332 136.944C286.135 136.944 286.709 137.191 287.054 137.686C287.399 138.171 287.572 138.811 287.572 139.604V144H286.396V139.954C286.396 139.599 286.359 139.273 286.284 138.974C286.219 138.666 286.079 138.419 285.864 138.232C285.659 138.045 285.341 137.952 284.912 137.952C284.408 137.952 284.002 138.148 283.694 138.54C283.395 138.923 283.246 139.487 283.246 140.234V144H282.07V139.954C282.07 139.599 282.033 139.273 281.958 138.974C281.893 138.666 281.753 138.419 281.538 138.232C281.333 138.045 281.015 137.952 280.586 137.952C280.082 137.952 279.676 138.148 279.368 138.54C279.06 138.923 278.906 139.487 278.906 140.234V144H277.73ZM291.447 144.168C291.009 144.168 290.607 144.089 290.243 143.93C289.879 143.771 289.59 143.543 289.375 143.244C289.161 142.945 289.053 142.586 289.053 142.166C289.053 141.615 289.245 141.181 289.627 140.864C290.019 140.547 290.565 140.304 291.265 140.136C291.975 139.959 292.801 139.819 293.743 139.716C293.762 139.128 293.645 138.675 293.393 138.358C293.141 138.041 292.735 137.882 292.175 137.882C291.755 137.882 291.41 137.98 291.139 138.176C290.878 138.363 290.71 138.624 290.635 138.96L289.501 138.624C289.688 138.092 290.019 137.681 290.495 137.392C290.981 137.093 291.536 136.944 292.161 136.944C293.123 136.944 293.823 137.173 294.261 137.63C294.709 138.078 294.933 138.787 294.933 139.758V141.382C294.933 141.961 294.957 142.46 295.003 142.88C295.05 143.3 295.106 143.673 295.171 144H294.093L293.813 143.048C293.608 143.393 293.314 143.669 292.931 143.874C292.549 144.07 292.054 144.168 291.447 144.168ZM291.699 143.23C292.063 143.23 292.409 143.165 292.735 143.034C293.062 142.903 293.328 142.684 293.533 142.376C293.739 142.059 293.841 141.629 293.841 141.088V140.654C293.132 140.729 292.516 140.822 291.993 140.934C291.471 141.037 291.065 141.186 290.775 141.382C290.495 141.569 290.355 141.821 290.355 142.138C290.355 142.465 290.472 142.731 290.705 142.936C290.948 143.132 291.279 143.23 291.699 143.23ZM296.871 144V137.056H297.739L298.047 138.106C298.243 137.779 298.518 137.504 298.873 137.28C299.227 137.056 299.699 136.944 300.287 136.944C301.127 136.944 301.719 137.191 302.065 137.686C302.41 138.171 302.583 138.811 302.583 139.604V144H301.407V139.954C301.407 139.599 301.374 139.273 301.309 138.974C301.243 138.666 301.099 138.419 300.875 138.232C300.66 138.045 300.329 137.952 299.881 137.952C299.311 137.952 298.863 138.148 298.537 138.54C298.21 138.923 298.047 139.487 298.047 140.234V144H296.871ZM307.178 146.688C306.804 146.688 306.431 146.632 306.058 146.52C305.694 146.417 305.367 146.245 305.078 146.002C304.798 145.759 304.597 145.447 304.476 145.064L305.652 144.742C305.782 145.106 305.997 145.349 306.296 145.47C306.594 145.591 306.888 145.652 307.178 145.652C307.896 145.652 308.382 145.479 308.634 145.134C308.895 144.789 309.026 144.28 309.026 143.608V142.684C308.811 143.048 308.526 143.337 308.172 143.552C307.817 143.767 307.364 143.874 306.814 143.874C306.3 143.874 305.82 143.743 305.372 143.482C304.924 143.211 304.56 142.819 304.28 142.306C304.009 141.783 303.874 141.153 303.874 140.416C303.874 139.669 304.009 139.039 304.28 138.526C304.56 138.013 304.924 137.621 305.372 137.35C305.82 137.079 306.3 136.944 306.814 136.944C307.364 136.944 307.817 137.056 308.172 137.28C308.526 137.495 308.811 137.784 309.026 138.148L309.348 137.056H310.202V143.342C310.202 144.443 309.978 145.274 309.53 145.834C309.091 146.403 308.307 146.688 307.178 146.688ZM307.108 142.894C307.462 142.894 307.784 142.81 308.074 142.642C308.372 142.474 308.61 142.208 308.788 141.844C308.974 141.48 309.068 141.004 309.068 140.416C309.068 139.828 308.974 139.352 308.788 138.988C308.61 138.624 308.372 138.363 308.074 138.204C307.784 138.036 307.462 137.952 307.108 137.952C306.538 137.952 306.067 138.167 305.694 138.596C305.33 139.016 305.148 139.623 305.148 140.416C305.148 141.209 305.33 141.821 305.694 142.25C306.067 142.679 306.538 142.894 307.108 142.894ZM314.102 144.168C313.663 144.168 313.262 144.089 312.898 143.93C312.534 143.771 312.244 143.543 312.03 143.244C311.815 142.945 311.708 142.586 311.708 142.166C311.708 141.615 311.899 141.181 312.282 140.864C312.674 140.547 313.22 140.304 313.92 140.136C314.629 139.959 315.455 139.819 316.398 139.716C316.416 139.128 316.3 138.675 316.048 138.358C315.796 138.041 315.39 137.882 314.83 137.882C314.41 137.882 314.064 137.98 313.794 138.176C313.532 138.363 313.364 138.624 313.29 138.96L312.156 138.624C312.342 138.092 312.674 137.681 313.15 137.392C313.635 137.093 314.19 136.944 314.816 136.944C315.777 136.944 316.477 137.173 316.916 137.63C317.364 138.078 317.588 138.787 317.588 139.758V141.382C317.588 141.961 317.611 142.46 317.658 142.88C317.704 143.3 317.76 143.673 317.826 144H316.748L316.468 143.048C316.262 143.393 315.968 143.669 315.586 143.874C315.203 144.07 314.708 144.168 314.102 144.168ZM314.354 143.23C314.718 143.23 315.063 143.165 315.39 143.034C315.716 142.903 315.982 142.684 316.188 142.376C316.393 142.059 316.496 141.629 316.496 141.088V140.654C315.786 140.729 315.17 140.822 314.648 140.934C314.125 141.037 313.719 141.186 313.43 141.382C313.15 141.569 313.01 141.821 313.01 142.138C313.01 142.465 313.126 142.731 313.36 142.936C313.602 143.132 313.934 143.23 314.354 143.23ZM321.891 144.168C321.49 144.168 321.093 144.107 320.701 143.986C320.318 143.855 319.973 143.664 319.665 143.412C319.366 143.151 319.138 142.824 318.979 142.432L320.113 142.012C320.216 142.423 320.44 142.721 320.785 142.908C321.14 143.085 321.508 143.174 321.891 143.174C322.171 143.174 322.432 143.132 322.675 143.048C322.927 142.964 323.132 142.843 323.291 142.684C323.45 142.525 323.529 142.343 323.529 142.138C323.529 141.755 323.375 141.485 323.067 141.326C322.768 141.167 322.409 141.046 321.989 140.962L321.023 140.766C320.687 140.691 320.374 140.589 320.085 140.458C319.796 140.318 319.562 140.122 319.385 139.87C319.208 139.618 319.119 139.282 319.119 138.862C319.119 138.442 319.25 138.092 319.511 137.812C319.772 137.523 320.104 137.303 320.505 137.154C320.916 137.005 321.345 136.93 321.793 136.93C322.344 136.93 322.862 137.047 323.347 137.28C323.842 137.504 324.192 137.859 324.397 138.344L323.291 138.75C323.17 138.47 322.955 138.265 322.647 138.134C322.348 137.994 322.036 137.924 321.709 137.924C321.354 137.924 321.032 138.003 320.743 138.162C320.454 138.321 320.309 138.549 320.309 138.848C320.309 139.147 320.43 139.366 320.673 139.506C320.925 139.637 321.233 139.739 321.597 139.814L322.507 139.996C322.88 140.071 323.235 140.178 323.571 140.318C323.907 140.458 324.182 140.668 324.397 140.948C324.612 141.219 324.719 141.601 324.719 142.096C324.719 142.535 324.584 142.908 324.313 143.216C324.042 143.524 323.692 143.762 323.263 143.93C322.834 144.089 322.376 144.168 321.891 144.168ZM330.445 144V137.994H329.269V137.056H330.445V136.02C330.445 135.544 330.491 135.166 330.585 134.886C330.678 134.606 330.86 134.41 331.131 134.298C331.401 134.177 331.793 134.116 332.307 134.116H333.063V135.11H332.335C332.036 135.11 331.84 135.171 331.747 135.292C331.663 135.413 331.621 135.651 331.621 136.006V137.056H333.063V137.994H331.621V144H330.445ZM336.969 144.168C336.568 144.168 336.171 144.098 335.779 143.958C335.387 143.818 335.028 143.603 334.701 143.314C334.384 143.015 334.127 142.637 333.931 142.18C333.735 141.723 333.637 141.181 333.637 140.556C333.637 139.931 333.735 139.389 333.931 138.932C334.127 138.475 334.384 138.101 334.701 137.812C335.028 137.513 335.387 137.294 335.779 137.154C336.171 137.014 336.568 136.944 336.969 136.944C337.371 136.944 337.767 137.014 338.159 137.154C338.561 137.294 338.92 137.513 339.237 137.812C339.564 138.101 339.821 138.475 340.007 138.932C340.203 139.389 340.301 139.931 340.301 140.556C340.301 141.181 340.203 141.723 340.007 142.18C339.821 142.637 339.564 143.015 339.237 143.314C338.92 143.603 338.561 143.818 338.159 143.958C337.767 144.098 337.371 144.168 336.969 144.168ZM336.969 143.132C337.305 143.132 337.632 143.043 337.949 142.866C338.267 142.679 338.528 142.399 338.733 142.026C338.939 141.643 339.041 141.153 339.041 140.556C339.041 139.959 338.939 139.473 338.733 139.1C338.528 138.717 338.267 138.437 337.949 138.26C337.632 138.073 337.305 137.98 336.969 137.98C336.643 137.98 336.316 138.073 335.989 138.26C335.672 138.437 335.411 138.717 335.205 139.1C335 139.473 334.897 139.959 334.897 140.556C334.897 141.153 335 141.643 335.205 142.026C335.411 142.399 335.672 142.679 335.989 142.866C336.316 143.043 336.643 143.132 336.969 143.132ZM341.81 144V137.056H342.664L343.042 138.344C343.285 137.924 343.611 137.588 344.022 137.336C344.442 137.075 344.941 136.944 345.52 136.944V138.162C345.455 138.162 345.385 138.162 345.31 138.162C345.245 138.162 345.179 138.167 345.114 138.176C344.321 138.241 343.765 138.517 343.448 139.002C343.14 139.487 342.986 140.159 342.986 141.018V144H341.81ZM350.898 144V137.994H349.722V137.056H350.898V136.02C350.898 135.544 350.944 135.166 351.038 134.886C351.131 134.606 351.313 134.41 351.584 134.298C351.854 134.177 352.246 134.116 352.76 134.116H353.516V135.11H352.788C352.489 135.11 352.293 135.171 352.2 135.292C352.116 135.413 352.074 135.651 352.074 136.006V137.056H353.516V137.994H352.074V144H350.898ZM354.839 144V137.056H355.693L356.071 138.344C356.314 137.924 356.641 137.588 357.051 137.336C357.471 137.075 357.971 136.944 358.549 136.944V138.162C358.484 138.162 358.414 138.162 358.339 138.162C358.274 138.162 358.209 138.167 358.143 138.176C357.35 138.241 356.795 138.517 356.477 139.002C356.169 139.487 356.015 140.159 356.015 141.018V144H354.839ZM362.551 144.168C361.823 144.168 361.207 144.009 360.703 143.692C360.199 143.365 359.812 142.931 359.541 142.39C359.28 141.839 359.149 141.223 359.149 140.542C359.149 139.805 359.299 139.17 359.597 138.638C359.896 138.097 360.297 137.681 360.801 137.392C361.315 137.093 361.889 136.944 362.523 136.944C363.074 136.944 363.559 137.056 363.979 137.28C364.399 137.495 364.745 137.789 365.015 138.162C365.295 138.526 365.496 138.941 365.617 139.408C365.748 139.875 365.795 140.355 365.757 140.85H360.409C360.428 141.429 360.554 141.886 360.787 142.222C361.03 142.558 361.315 142.796 361.641 142.936C361.968 143.067 362.271 143.132 362.551 143.132C362.943 143.132 363.27 143.071 363.531 142.95C363.802 142.819 364.017 142.651 364.175 142.446L365.309 142.782C365.057 143.183 364.698 143.515 364.231 143.776C363.765 144.037 363.205 144.168 362.551 144.168ZM360.423 139.912H364.511C364.511 139.585 364.427 139.273 364.259 138.974C364.101 138.675 363.872 138.433 363.573 138.246C363.284 138.05 362.934 137.952 362.523 137.952C362.178 137.952 361.851 138.017 361.543 138.148C361.235 138.279 360.979 138.489 360.773 138.778C360.577 139.067 360.461 139.445 360.423 139.912ZM370.098 144.168C369.37 144.168 368.754 144.009 368.25 143.692C367.746 143.365 367.359 142.931 367.088 142.39C366.827 141.839 366.696 141.223 366.696 140.542C366.696 139.805 366.845 139.17 367.144 138.638C367.443 138.097 367.844 137.681 368.348 137.392C368.861 137.093 369.435 136.944 370.07 136.944C370.621 136.944 371.106 137.056 371.526 137.28C371.946 137.495 372.291 137.789 372.562 138.162C372.842 138.526 373.043 138.941 373.164 139.408C373.295 139.875 373.341 140.355 373.304 140.85H367.956C367.975 141.429 368.101 141.886 368.334 142.222C368.577 142.558 368.861 142.796 369.188 142.936C369.515 143.067 369.818 143.132 370.098 143.132C370.49 143.132 370.817 143.071 371.078 142.95C371.349 142.819 371.563 142.651 371.722 142.446L372.856 142.782C372.604 143.183 372.245 143.515 371.778 143.776C371.311 144.037 370.751 144.168 370.098 144.168ZM367.97 139.912H372.058C372.058 139.585 371.974 139.273 371.806 138.974C371.647 138.675 371.419 138.433 371.12 138.246C370.831 138.05 370.481 137.952 370.07 137.952C369.725 137.952 369.398 138.017 369.09 138.148C368.782 138.279 368.525 138.489 368.32 138.778C368.124 139.067 368.007 139.445 367.97 139.912Z" fill="#A8A8A8"/>
<defs>
<filter id="filter0_d_0_1" x="0" y="0" width="459" height="252" filterUnits="userSpaceOnUse" color-interpolation-filters="sRGB">
<feFlood flood-opacity="0" result="BackgroundImageFix"/>
<feColorMatrix in="SourceAlpha" type="matrix" values="0 0 0 0 0 0 0 0 0 0 0 0 0 0 0 0 0 0 127 0" result="hardAlpha"/>
<feOffset dy="4"/>
<feGaussianBlur stdDeviation="2"/>
<feComposite in2="hardAlpha" operator="out"/>
<feColorMatrix type="matrix" values="0 0 0 0 0 0 0 0 0 0 0 0 0 0 0 0 0 0 0.25 0"/>
<feBlend mode="normal" in2="BackgroundImageFix" result="effect1_dropShadow_0_1"/>
<feBlend mode="normal" in="SourceGraphic" in2="effect1_dropShadow_0_1" result="shape"/>
</filter>
<clipPath id="clip0_0_1">
<rect width="31" height="31" fill="white" transform="translate(214 207)"/>
</clipPath>
</defs>
</svg>
