<svg width="979" height="540" viewBox="0 0 979 540" fill="none" xmlns="http://www.w3.org/2000/svg">
<g id="blob-scene-haikei (1) 1" clip-path="url(#clip0_1_18)">
<path id="Vector" d="M979 0H0V540H979V0Z" fill="#1F1F1F"/>
<g id="Yellow blob">
<g id="Group">
<path id="Vector_2" d="M979 216C953.505 207.7 927.908 199.4 898.232 191.2C868.455 183.1 834.597 175 823.278 152.7C811.856 130.5 822.972 94 816.037 66.2C809.001 38.4 783.914 19.2 758.725 0H979V216Z" fill="#FBAE3C"/>
</g>
<g id="Group_2">
<path id="Vector_3" d="M0 324C29.268 326.3 58.4341 328.7 84.3368 340.4C110.137 352.2 132.573 373.5 146.34 396.5C160.209 419.5 165.308 444.2 176.22 468.4C187.03 492.7 203.652 516.3 220.275 540H0V324Z" fill="#FBAE3C"/>
</g>
</g>
<g id="Text and line">
<path id="DRAMALAMA" d="M369.094 246.029C372.362 246.029 375.185 246.645 377.565 247.878C379.973 249.082 381.807 250.816 383.069 253.081C384.359 255.346 385.004 258.012 385.004 261.079C385.004 264.146 384.359 266.812 383.069 269.077C381.807 271.313 379.973 273.033 377.565 274.237C375.185 275.412 372.362 276 369.094 276H359.763V246.029H369.094ZM369.094 272.775C372.964 272.775 375.916 271.757 377.952 269.722C379.987 267.658 381.005 264.777 381.005 261.079C381.005 257.352 379.973 254.443 377.909 252.35C375.873 250.257 372.935 249.211 369.094 249.211H363.676V272.775H369.094ZM405.946 276L398.808 263.745H394.078V276H390.165V246.029H399.84C402.105 246.029 404.011 246.416 405.559 247.19C407.136 247.964 408.311 249.01 409.085 250.329C409.859 251.648 410.246 253.153 410.246 254.844C410.246 256.908 409.644 258.728 408.44 260.305C407.265 261.882 405.487 262.928 403.108 263.444L410.633 276H405.946ZM394.078 260.606H399.84C401.961 260.606 403.552 260.09 404.613 259.058C405.674 257.997 406.204 256.593 406.204 254.844C406.204 253.067 405.674 251.691 404.613 250.716C403.581 249.741 401.99 249.254 399.84 249.254H394.078V260.606ZM434.042 269.335H420.97L418.562 276H414.434L425.27 246.201H429.785L440.578 276H436.45L434.042 269.335ZM432.924 266.153L427.506 251.017L422.088 266.153H432.924ZM475.702 246.244V276H471.789V253.812L461.899 276H459.147L449.214 253.769V276H445.301V246.244H449.515L460.523 270.84L471.531 246.244H475.702ZM500.054 269.335H486.982L484.574 276H480.446L491.282 246.201H495.797L506.59 276H502.462L500.054 269.335ZM498.936 266.153L493.518 251.017L488.1 266.153H498.936ZM515.225 272.818H525.717V276H511.312V246.029H515.225V272.818ZM547.589 269.335H534.517L532.109 276H527.981L538.817 246.201H543.332L554.125 276H549.997L547.589 269.335ZM546.471 266.153L541.053 251.017L535.635 266.153H546.471ZM589.249 246.244V276H585.336V253.812L575.446 276H572.694L562.761 253.769V276H558.848V246.244H563.062L574.07 270.84L585.078 246.244H589.249ZM613.601 269.335H600.529L598.121 276H593.993L604.829 246.201H609.344L620.137 276H616.009L613.601 269.335ZM612.483 266.153L607.065 251.017L601.647 266.153H612.483Z" fill="white"/>
<path id="Watch kdramas, anime and read mangas for free." d="M319.926 308L317.238 297.312H318.886L320.966 306.144L322.918 297.312H324.678L326.63 306.144L328.71 297.312H330.358L327.686 308H325.862L323.798 299.168L321.734 308H319.926ZM333.407 308.192C332.905 308.192 332.447 308.101 332.031 307.92C331.615 307.739 331.284 307.477 331.039 307.136C330.793 306.795 330.671 306.384 330.671 305.904C330.671 305.275 330.889 304.779 331.327 304.416C331.775 304.053 332.399 303.776 333.199 303.584C334.009 303.381 334.953 303.221 336.031 303.104C336.052 302.432 335.919 301.915 335.631 301.552C335.343 301.189 334.879 301.008 334.239 301.008C333.759 301.008 333.364 301.12 333.055 301.344C332.756 301.557 332.564 301.856 332.479 302.24L331.183 301.856C331.396 301.248 331.775 300.779 332.319 300.448C332.873 300.107 333.508 299.936 334.223 299.936C335.321 299.936 336.121 300.197 336.623 300.72C337.135 301.232 337.391 302.043 337.391 303.152V305.008C337.391 305.669 337.417 306.24 337.471 306.72C337.524 307.2 337.588 307.627 337.663 308H336.431L336.111 306.912C335.876 307.307 335.54 307.621 335.103 307.856C334.665 308.08 334.1 308.192 333.407 308.192ZM333.695 307.12C334.111 307.12 334.505 307.045 334.879 306.896C335.252 306.747 335.556 306.496 335.791 306.144C336.025 305.781 336.143 305.291 336.143 304.672V304.176C335.332 304.261 334.628 304.368 334.031 304.496C333.433 304.613 332.969 304.784 332.639 305.008C332.319 305.221 332.159 305.509 332.159 305.872C332.159 306.245 332.292 306.549 332.559 306.784C332.836 307.008 333.215 307.12 333.695 307.12ZM342.02 308C341.519 308 341.13 307.952 340.852 307.856C340.586 307.749 340.399 307.552 340.292 307.264C340.196 306.976 340.148 306.56 340.148 306.016V301.136H338.804V300.064H340.148V298.064H341.492V300.064H343.028V301.136H341.492V305.792C341.492 306.197 341.53 306.469 341.604 306.608C341.69 306.747 341.924 306.816 342.308 306.816H343.028V308H342.02ZM347.976 308.192C347.219 308.192 346.563 308.016 346.008 307.664C345.453 307.301 345.027 306.811 344.728 306.192C344.429 305.573 344.28 304.864 344.28 304.064C344.28 303.275 344.435 302.571 344.744 301.952C345.064 301.323 345.512 300.832 346.088 300.48C346.664 300.117 347.341 299.936 348.12 299.936C348.835 299.936 349.448 300.112 349.96 300.464C350.472 300.816 350.856 301.237 351.112 301.728L349.88 302.176C349.709 301.856 349.459 301.6 349.128 301.408C348.797 301.216 348.429 301.12 348.024 301.12C347.629 301.12 347.256 301.227 346.904 301.44C346.552 301.643 346.269 301.963 346.056 302.4C345.843 302.827 345.736 303.376 345.736 304.048C345.736 304.709 345.843 305.264 346.056 305.712C346.28 306.149 346.563 306.475 346.904 306.688C347.256 306.901 347.629 307.008 348.024 307.008C348.461 307.008 348.84 306.912 349.16 306.72C349.491 306.517 349.741 306.267 349.912 305.968L351.144 306.416C350.845 306.928 350.419 307.355 349.864 307.696C349.309 308.027 348.68 308.192 347.976 308.192ZM352.792 308V297.312H354.136V301.264C354.36 300.891 354.675 300.576 355.08 300.32C355.485 300.064 356.024 299.936 356.696 299.936C357.656 299.936 358.333 300.219 358.728 300.784C359.123 301.339 359.32 302.069 359.32 302.976V308H357.976V303.376C357.976 302.971 357.939 302.597 357.864 302.256C357.789 301.904 357.624 301.621 357.368 301.408C357.123 301.195 356.744 301.088 356.232 301.088C355.581 301.088 355.069 301.312 354.696 301.76C354.323 302.197 354.136 302.843 354.136 303.696V308H352.792ZM366.011 308V297.312H367.355V303.632L370.555 300.064H372.171L369.179 303.344L372.571 308H370.923L368.283 304.336L367.355 305.344V308H366.011ZM376.516 308.192C375.919 308.192 375.359 308.032 374.836 307.712C374.313 307.381 373.892 306.912 373.572 306.304C373.263 305.685 373.108 304.939 373.108 304.064C373.108 303.189 373.263 302.448 373.572 301.84C373.892 301.221 374.313 300.752 374.836 300.432C375.359 300.101 375.919 299.936 376.516 299.936C377.145 299.936 377.673 300.064 378.1 300.32C378.527 300.565 378.857 300.896 379.092 301.312V297.312H380.436V305.008C380.436 305.275 380.447 305.669 380.468 306.192C380.489 306.704 380.569 307.307 380.708 308H379.444L379.092 306.8C378.857 307.227 378.527 307.568 378.1 307.824C377.673 308.069 377.145 308.192 376.516 308.192ZM376.868 307.04C377.551 307.04 378.095 306.779 378.5 306.256C378.916 305.733 379.124 305.003 379.124 304.064C379.124 303.115 378.916 302.384 378.5 301.872C378.095 301.349 377.551 301.088 376.868 301.088C376.185 301.088 375.636 301.349 375.22 301.872C374.815 302.384 374.612 303.115 374.612 304.064C374.612 305.003 374.815 305.733 375.22 306.256C375.636 306.779 376.185 307.04 376.868 307.04ZM382.651 308V300.064H383.627L384.059 301.536C384.337 301.056 384.71 300.672 385.179 300.384C385.659 300.085 386.23 299.936 386.891 299.936V301.328C386.817 301.328 386.737 301.328 386.651 301.328C386.577 301.328 386.502 301.333 386.427 301.344C385.521 301.419 384.886 301.733 384.523 302.288C384.171 302.843 383.995 303.611 383.995 304.592V308H382.651ZM390.078 308.192C389.577 308.192 389.118 308.101 388.702 307.92C388.286 307.739 387.956 307.477 387.71 307.136C387.465 306.795 387.342 306.384 387.342 305.904C387.342 305.275 387.561 304.779 387.998 304.416C388.446 304.053 389.07 303.776 389.87 303.584C390.681 303.381 391.625 303.221 392.702 303.104C392.724 302.432 392.59 301.915 392.302 301.552C392.014 301.189 391.55 301.008 390.91 301.008C390.43 301.008 390.036 301.12 389.726 301.344C389.428 301.557 389.236 301.856 389.15 302.24L387.854 301.856C388.068 301.248 388.446 300.779 388.99 300.448C389.545 300.107 390.18 299.936 390.894 299.936C391.993 299.936 392.793 300.197 393.294 300.72C393.806 301.232 394.062 302.043 394.062 303.152V305.008C394.062 305.669 394.089 306.24 394.142 306.72C394.196 307.2 394.26 307.627 394.334 308H393.102L392.782 306.912C392.548 307.307 392.212 307.621 391.774 307.856C391.337 308.08 390.772 308.192 390.078 308.192ZM390.366 307.12C390.782 307.12 391.177 307.045 391.55 306.896C391.924 306.747 392.228 306.496 392.462 306.144C392.697 305.781 392.814 305.291 392.814 304.672V304.176C392.004 304.261 391.3 304.368 390.702 304.496C390.105 304.613 389.641 304.784 389.31 305.008C388.99 305.221 388.83 305.509 388.83 305.872C388.83 306.245 388.964 306.549 389.23 306.784C389.508 307.008 389.886 307.12 390.366 307.12ZM396.276 308V300.064H397.268L397.62 301.264C397.844 300.891 398.148 300.576 398.532 300.32C398.927 300.064 399.418 299.936 400.004 299.936C400.612 299.936 401.103 300.059 401.476 300.304C401.85 300.549 402.122 300.891 402.292 301.328C402.612 300.837 402.996 300.485 403.444 300.272C403.903 300.048 404.41 299.936 404.964 299.936C405.882 299.936 406.538 300.219 406.932 300.784C407.327 301.339 407.524 302.069 407.524 302.976V308H406.18V303.376C406.18 302.971 406.138 302.597 406.052 302.256C405.978 301.904 405.818 301.621 405.572 301.408C405.338 301.195 404.975 301.088 404.484 301.088C403.908 301.088 403.444 301.312 403.092 301.76C402.751 302.197 402.58 302.843 402.58 303.696V308H401.236V303.376C401.236 302.971 401.194 302.597 401.108 302.256C401.034 301.904 400.874 301.621 400.628 301.408C400.394 301.195 400.031 301.088 399.54 301.088C398.964 301.088 398.5 301.312 398.148 301.76C397.796 302.197 397.62 302.843 397.62 303.696V308H396.276ZM411.953 308.192C411.452 308.192 410.993 308.101 410.577 307.92C410.161 307.739 409.831 307.477 409.585 307.136C409.34 306.795 409.217 306.384 409.217 305.904C409.217 305.275 409.436 304.779 409.873 304.416C410.321 304.053 410.945 303.776 411.745 303.584C412.556 303.381 413.5 303.221 414.577 303.104C414.599 302.432 414.465 301.915 414.177 301.552C413.889 301.189 413.425 301.008 412.785 301.008C412.305 301.008 411.911 301.12 411.601 301.344C411.303 301.557 411.111 301.856 411.025 302.24L409.729 301.856C409.943 301.248 410.321 300.779 410.865 300.448C411.42 300.107 412.055 299.936 412.769 299.936C413.868 299.936 414.668 300.197 415.169 300.72C415.681 301.232 415.937 302.043 415.937 303.152V305.008C415.937 305.669 415.964 306.24 416.017 306.72C416.071 307.2 416.135 307.627 416.209 308H414.977L414.657 306.912C414.423 307.307 414.087 307.621 413.649 307.856C413.212 308.08 412.647 308.192 411.953 308.192ZM412.241 307.12C412.657 307.12 413.052 307.045 413.425 306.896C413.799 306.747 414.103 306.496 414.337 306.144C414.572 305.781 414.689 305.291 414.689 304.672V304.176C413.879 304.261 413.175 304.368 412.577 304.496C411.98 304.613 411.516 304.784 411.185 305.008C410.865 305.221 410.705 305.509 410.705 305.872C410.705 306.245 410.839 306.549 411.105 306.784C411.383 307.008 411.761 307.12 412.241 307.12ZM420.855 308.192C420.397 308.192 419.943 308.123 419.495 307.984C419.058 307.835 418.663 307.616 418.311 307.328C417.97 307.029 417.709 306.656 417.527 306.208L418.823 305.728C418.941 306.197 419.197 306.539 419.591 306.752C419.997 306.955 420.418 307.056 420.855 307.056C421.175 307.056 421.474 307.008 421.751 306.912C422.039 306.816 422.274 306.677 422.455 306.496C422.637 306.315 422.727 306.107 422.727 305.872C422.727 305.435 422.551 305.125 422.199 304.944C421.858 304.763 421.447 304.624 420.967 304.528L419.863 304.304C419.479 304.219 419.122 304.101 418.791 303.952C418.461 303.792 418.194 303.568 417.991 303.28C417.789 302.992 417.687 302.608 417.687 302.128C417.687 301.648 417.837 301.248 418.135 300.928C418.434 300.597 418.813 300.347 419.271 300.176C419.741 300.005 420.231 299.92 420.743 299.92C421.373 299.92 421.965 300.053 422.519 300.32C423.085 300.576 423.485 300.981 423.719 301.536L422.455 302C422.317 301.68 422.071 301.445 421.719 301.296C421.378 301.136 421.021 301.056 420.647 301.056C420.242 301.056 419.874 301.147 419.543 301.328C419.213 301.509 419.047 301.771 419.047 302.112C419.047 302.453 419.186 302.704 419.463 302.864C419.751 303.013 420.103 303.131 420.519 303.216L421.559 303.424C421.986 303.509 422.391 303.632 422.775 303.792C423.159 303.952 423.474 304.192 423.719 304.512C423.965 304.821 424.087 305.259 424.087 305.824C424.087 306.325 423.933 306.752 423.623 307.104C423.314 307.456 422.914 307.728 422.423 307.92C421.933 308.101 421.41 308.192 420.855 308.192ZM425.283 310.128L426.035 308.176C425.789 308.133 425.581 308.016 425.411 307.824C425.251 307.632 425.171 307.408 425.171 307.152C425.171 306.875 425.272 306.635 425.475 306.432C425.677 306.229 425.917 306.128 426.195 306.128C426.483 306.128 426.728 306.229 426.931 306.432C427.133 306.635 427.235 306.875 427.235 307.152C427.235 307.28 427.208 307.413 427.155 307.552L426.163 310.128H425.283ZM435.672 308.192C435.171 308.192 434.712 308.101 434.296 307.92C433.88 307.739 433.549 307.477 433.304 307.136C433.059 306.795 432.936 306.384 432.936 305.904C432.936 305.275 433.155 304.779 433.592 304.416C434.04 304.053 434.664 303.776 435.464 303.584C436.275 303.381 437.219 303.221 438.296 303.104C438.317 302.432 438.184 301.915 437.896 301.552C437.608 301.189 437.144 301.008 436.504 301.008C436.024 301.008 435.629 301.12 435.32 301.344C435.021 301.557 434.829 301.856 434.744 302.24L433.448 301.856C433.661 301.248 434.04 300.779 434.584 300.448C435.139 300.107 435.773 299.936 436.488 299.936C437.587 299.936 438.387 300.197 438.888 300.72C439.4 301.232 439.656 302.043 439.656 303.152V305.008C439.656 305.669 439.683 306.24 439.736 306.72C439.789 307.2 439.853 307.627 439.928 308H438.696L438.376 306.912C438.141 307.307 437.805 307.621 437.368 307.856C436.931 308.08 436.365 308.192 435.672 308.192ZM435.96 307.12C436.376 307.12 436.771 307.045 437.144 306.896C437.517 306.747 437.821 306.496 438.056 306.144C438.291 305.781 438.408 305.291 438.408 304.672V304.176C437.597 304.261 436.893 304.368 436.296 304.496C435.699 304.613 435.235 304.784 434.904 305.008C434.584 305.221 434.424 305.509 434.424 305.872C434.424 306.245 434.557 306.549 434.824 306.784C435.101 307.008 435.48 307.12 435.96 307.12ZM441.87 308V300.064H442.862L443.214 301.264C443.438 300.891 443.753 300.576 444.158 300.32C444.563 300.064 445.102 299.936 445.774 299.936C446.734 299.936 447.411 300.219 447.806 300.784C448.201 301.339 448.398 302.069 448.398 302.976V308H447.054V303.376C447.054 302.971 447.017 302.597 446.942 302.256C446.867 301.904 446.702 301.621 446.446 301.408C446.201 301.195 445.822 301.088 445.31 301.088C444.659 301.088 444.147 301.312 443.774 301.76C443.401 302.197 443.214 302.843 443.214 303.696V308H441.87ZM451.98 298.56C451.714 298.56 451.479 298.464 451.276 298.272C451.084 298.069 450.988 297.829 450.988 297.552C450.988 297.275 451.084 297.04 451.276 296.848C451.479 296.656 451.714 296.56 451.98 296.56C452.258 296.56 452.492 296.656 452.684 296.848C452.887 297.04 452.988 297.275 452.988 297.552C452.988 297.829 452.887 298.069 452.684 298.272C452.492 298.464 452.258 298.56 451.98 298.56ZM451.308 308V301.136H450.204V300.064H452.652V308H451.308ZM455.058 308V300.064H456.049L456.402 301.264C456.626 300.891 456.93 300.576 457.314 300.32C457.708 300.064 458.199 299.936 458.786 299.936C459.394 299.936 459.884 300.059 460.258 300.304C460.631 300.549 460.903 300.891 461.074 301.328C461.394 300.837 461.778 300.485 462.226 300.272C462.684 300.048 463.191 299.936 463.746 299.936C464.663 299.936 465.319 300.219 465.714 300.784C466.108 301.339 466.306 302.069 466.306 302.976V308H464.962V303.376C464.962 302.971 464.919 302.597 464.834 302.256C464.759 301.904 464.599 301.621 464.354 301.408C464.119 301.195 463.756 301.088 463.266 301.088C462.69 301.088 462.226 301.312 461.874 301.76C461.532 302.197 461.362 302.843 461.362 303.696V308H460.018V303.376C460.018 302.971 459.975 302.597 459.89 302.256C459.815 301.904 459.655 301.621 459.41 301.408C459.175 301.195 458.812 301.088 458.322 301.088C457.746 301.088 457.282 301.312 456.93 301.76C456.578 302.197 456.402 302.843 456.402 303.696V308H455.058ZM471.715 308.192C470.883 308.192 470.179 308.011 469.603 307.648C469.027 307.275 468.584 306.779 468.275 306.16C467.976 305.531 467.827 304.827 467.827 304.048C467.827 303.205 467.997 302.48 468.339 301.872C468.68 301.253 469.139 300.779 469.715 300.448C470.301 300.107 470.957 299.936 471.683 299.936C472.312 299.936 472.867 300.064 473.347 300.32C473.827 300.565 474.221 300.901 474.531 301.328C474.851 301.744 475.08 302.219 475.219 302.752C475.368 303.285 475.421 303.835 475.379 304.4H469.267C469.288 305.061 469.432 305.584 469.699 305.968C469.976 306.352 470.301 306.624 470.675 306.784C471.048 306.933 471.395 307.008 471.715 307.008C472.163 307.008 472.536 306.939 472.835 306.8C473.144 306.651 473.389 306.459 473.571 306.224L474.867 306.608C474.579 307.067 474.168 307.445 473.635 307.744C473.101 308.043 472.461 308.192 471.715 308.192ZM469.283 303.328H473.955C473.955 302.955 473.859 302.597 473.667 302.256C473.485 301.915 473.224 301.637 472.883 301.424C472.552 301.2 472.152 301.088 471.683 301.088C471.288 301.088 470.915 301.163 470.563 301.312C470.211 301.461 469.917 301.701 469.683 302.032C469.459 302.363 469.325 302.795 469.283 303.328ZM483.672 308.192C483.171 308.192 482.712 308.101 482.296 307.92C481.88 307.739 481.549 307.477 481.304 307.136C481.059 306.795 480.936 306.384 480.936 305.904C480.936 305.275 481.155 304.779 481.592 304.416C482.04 304.053 482.664 303.776 483.464 303.584C484.275 303.381 485.219 303.221 486.296 303.104C486.317 302.432 486.184 301.915 485.896 301.552C485.608 301.189 485.144 301.008 484.504 301.008C484.024 301.008 483.629 301.12 483.32 301.344C483.021 301.557 482.829 301.856 482.744 302.24L481.448 301.856C481.661 301.248 482.04 300.779 482.584 300.448C483.139 300.107 483.773 299.936 484.488 299.936C485.587 299.936 486.387 300.197 486.888 300.72C487.4 301.232 487.656 302.043 487.656 303.152V305.008C487.656 305.669 487.683 306.24 487.736 306.72C487.789 307.2 487.853 307.627 487.928 308H486.696L486.376 306.912C486.141 307.307 485.805 307.621 485.368 307.856C484.931 308.08 484.365 308.192 483.672 308.192ZM483.96 307.12C484.376 307.12 484.771 307.045 485.144 306.896C485.517 306.747 485.821 306.496 486.056 306.144C486.291 305.781 486.408 305.291 486.408 304.672V304.176C485.597 304.261 484.893 304.368 484.296 304.496C483.699 304.613 483.235 304.784 482.904 305.008C482.584 305.221 482.424 305.509 482.424 305.872C482.424 306.245 482.557 306.549 482.824 306.784C483.101 307.008 483.48 307.12 483.96 307.12ZM489.87 308V300.064H490.862L491.214 301.264C491.438 300.891 491.753 300.576 492.158 300.32C492.563 300.064 493.102 299.936 493.774 299.936C494.734 299.936 495.411 300.219 495.806 300.784C496.201 301.339 496.398 302.069 496.398 302.976V308H495.054V303.376C495.054 302.971 495.017 302.597 494.942 302.256C494.867 301.904 494.702 301.621 494.446 301.408C494.201 301.195 493.822 301.088 493.31 301.088C492.659 301.088 492.147 301.312 491.774 301.76C491.401 302.197 491.214 302.843 491.214 303.696V308H489.87ZM501.329 308.192C500.731 308.192 500.171 308.032 499.649 307.712C499.126 307.381 498.705 306.912 498.385 306.304C498.075 305.685 497.921 304.939 497.921 304.064C497.921 303.189 498.075 302.448 498.385 301.84C498.705 301.221 499.126 300.752 499.649 300.432C500.171 300.101 500.731 299.936 501.329 299.936C501.958 299.936 502.486 300.064 502.913 300.32C503.339 300.565 503.67 300.896 503.905 301.312V297.312H505.249V305.008C505.249 305.275 505.259 305.669 505.281 306.192C505.302 306.704 505.382 307.307 505.521 308H504.257L503.905 306.8C503.67 307.227 503.339 307.568 502.913 307.824C502.486 308.069 501.958 308.192 501.329 308.192ZM501.681 307.04C502.363 307.04 502.907 306.779 503.313 306.256C503.729 305.733 503.937 305.003 503.937 304.064C503.937 303.115 503.729 302.384 503.313 301.872C502.907 301.349 502.363 301.088 501.681 301.088C500.998 301.088 500.449 301.349 500.033 301.872C499.627 302.384 499.424 303.115 499.424 304.064C499.424 305.003 499.627 305.733 500.033 306.256C500.449 306.779 500.998 307.04 501.681 307.04ZM511.948 308V300.064H512.924L513.356 301.536C513.633 301.056 514.007 300.672 514.476 300.384C514.956 300.085 515.527 299.936 516.188 299.936V301.328C516.113 301.328 516.033 301.328 515.948 301.328C515.873 301.328 515.799 301.333 515.724 301.344C514.817 301.419 514.183 301.733 513.82 302.288C513.468 302.843 513.292 303.611 513.292 304.592V308H511.948ZM520.762 308.192C519.93 308.192 519.226 308.011 518.65 307.648C518.074 307.275 517.631 306.779 517.322 306.16C517.023 305.531 516.874 304.827 516.874 304.048C516.874 303.205 517.044 302.48 517.386 301.872C517.727 301.253 518.186 300.779 518.762 300.448C519.348 300.107 520.004 299.936 520.73 299.936C521.359 299.936 521.914 300.064 522.394 300.32C522.874 300.565 523.268 300.901 523.578 301.328C523.898 301.744 524.127 302.219 524.266 302.752C524.415 303.285 524.468 303.835 524.426 304.4H518.314C518.335 305.061 518.479 305.584 518.746 305.968C519.023 306.352 519.348 306.624 519.722 306.784C520.095 306.933 520.442 307.008 520.762 307.008C521.21 307.008 521.583 306.939 521.882 306.8C522.191 306.651 522.436 306.459 522.618 306.224L523.914 306.608C523.626 307.067 523.215 307.445 522.682 307.744C522.148 308.043 521.508 308.192 520.762 308.192ZM518.33 303.328H523.002C523.002 302.955 522.906 302.597 522.714 302.256C522.532 301.915 522.271 301.637 521.93 301.424C521.599 301.2 521.199 301.088 520.73 301.088C520.335 301.088 519.962 301.163 519.61 301.312C519.258 301.461 518.964 301.701 518.73 302.032C518.506 302.363 518.372 302.795 518.33 303.328ZM528.235 308.192C527.733 308.192 527.275 308.101 526.859 307.92C526.443 307.739 526.112 307.477 525.867 307.136C525.621 306.795 525.499 306.384 525.499 305.904C525.499 305.275 525.717 304.779 526.155 304.416C526.603 304.053 527.227 303.776 528.027 303.584C528.837 303.381 529.781 303.221 530.859 303.104C530.88 302.432 530.747 301.915 530.459 301.552C530.171 301.189 529.707 301.008 529.067 301.008C528.587 301.008 528.192 301.12 527.883 301.344C527.584 301.557 527.392 301.856 527.307 302.24L526.011 301.856C526.224 301.248 526.603 300.779 527.147 300.448C527.701 300.107 528.336 299.936 529.051 299.936C530.149 299.936 530.949 300.197 531.451 300.72C531.963 301.232 532.219 302.043 532.219 303.152V305.008C532.219 305.669 532.245 306.24 532.299 306.72C532.352 307.2 532.416 307.627 532.491 308H531.259L530.939 306.912C530.704 307.307 530.368 307.621 529.931 307.856C529.493 308.08 528.928 308.192 528.235 308.192ZM528.523 307.12C528.939 307.12 529.333 307.045 529.707 306.896C530.08 306.747 530.384 306.496 530.619 306.144C530.853 305.781 530.971 305.291 530.971 304.672V304.176C530.16 304.261 529.456 304.368 528.859 304.496C528.261 304.613 527.797 304.784 527.467 305.008C527.147 305.221 526.987 305.509 526.987 305.872C526.987 306.245 527.12 306.549 527.387 306.784C527.664 307.008 528.043 307.12 528.523 307.12ZM537.329 308.192C536.731 308.192 536.171 308.032 535.649 307.712C535.126 307.381 534.705 306.912 534.385 306.304C534.075 305.685 533.921 304.939 533.921 304.064C533.921 303.189 534.075 302.448 534.385 301.84C534.705 301.221 535.126 300.752 535.649 300.432C536.171 300.101 536.731 299.936 537.329 299.936C537.958 299.936 538.486 300.064 538.913 300.32C539.339 300.565 539.67 300.896 539.905 301.312V297.312H541.249V305.008C541.249 305.275 541.259 305.669 541.281 306.192C541.302 306.704 541.382 307.307 541.521 308H540.257L539.905 306.8C539.67 307.227 539.339 307.568 538.913 307.824C538.486 308.069 537.958 308.192 537.329 308.192ZM537.681 307.04C538.363 307.04 538.907 306.779 539.313 306.256C539.729 305.733 539.937 305.003 539.937 304.064C539.937 303.115 539.729 302.384 539.313 301.872C538.907 301.349 538.363 301.088 537.681 301.088C536.998 301.088 536.449 301.349 536.033 301.872C535.627 302.384 535.424 303.115 535.424 304.064C535.424 305.003 535.627 305.733 536.033 306.256C536.449 306.779 536.998 307.04 537.681 307.04ZM547.948 308V300.064H548.94L549.292 301.264C549.516 300.891 549.82 300.576 550.204 300.32C550.599 300.064 551.089 299.936 551.676 299.936C552.284 299.936 552.775 300.059 553.148 300.304C553.521 300.549 553.793 300.891 553.964 301.328C554.284 300.837 554.668 300.485 555.116 300.272C555.575 300.048 556.081 299.936 556.636 299.936C557.553 299.936 558.209 300.219 558.604 300.784C558.999 301.339 559.196 302.069 559.196 302.976V308H557.852V303.376C557.852 302.971 557.809 302.597 557.724 302.256C557.649 301.904 557.489 301.621 557.244 301.408C557.009 301.195 556.647 301.088 556.156 301.088C555.58 301.088 555.116 301.312 554.764 301.76C554.423 302.197 554.252 302.843 554.252 303.696V308H552.908V303.376C552.908 302.971 552.865 302.597 552.78 302.256C552.705 301.904 552.545 301.621 552.3 301.408C552.065 301.195 551.703 301.088 551.212 301.088C550.636 301.088 550.172 301.312 549.82 301.76C549.468 302.197 549.292 302.843 549.292 303.696V308H547.948ZM563.625 308.192C563.124 308.192 562.665 308.101 562.249 307.92C561.833 307.739 561.503 307.477 561.257 307.136C561.012 306.795 560.889 306.384 560.889 305.904C560.889 305.275 561.108 304.779 561.545 304.416C561.993 304.053 562.617 303.776 563.417 303.584C564.228 303.381 565.172 303.221 566.249 303.104C566.271 302.432 566.137 301.915 565.849 301.552C565.561 301.189 565.097 301.008 564.457 301.008C563.977 301.008 563.583 301.12 563.273 301.344C562.975 301.557 562.783 301.856 562.697 302.24L561.401 301.856C561.615 301.248 561.993 300.779 562.537 300.448C563.092 300.107 563.727 299.936 564.441 299.936C565.54 299.936 566.34 300.197 566.841 300.72C567.353 301.232 567.609 302.043 567.609 303.152V305.008C567.609 305.669 567.636 306.24 567.689 306.72C567.743 307.2 567.807 307.627 567.881 308H566.649L566.329 306.912C566.095 307.307 565.759 307.621 565.321 307.856C564.884 308.08 564.319 308.192 563.625 308.192ZM563.913 307.12C564.329 307.12 564.724 307.045 565.097 306.896C565.471 306.747 565.775 306.496 566.009 306.144C566.244 305.781 566.361 305.291 566.361 304.672V304.176C565.551 304.261 564.847 304.368 564.249 304.496C563.652 304.613 563.188 304.784 562.857 305.008C562.537 305.221 562.377 305.509 562.377 305.872C562.377 306.245 562.511 306.549 562.777 306.784C563.055 307.008 563.433 307.12 563.913 307.12ZM569.823 308V300.064H570.815L571.167 301.264C571.391 300.891 571.706 300.576 572.111 300.32C572.516 300.064 573.055 299.936 573.727 299.936C574.687 299.936 575.364 300.219 575.759 300.784C576.154 301.339 576.351 302.069 576.351 302.976V308H575.007V303.376C575.007 302.971 574.97 302.597 574.895 302.256C574.82 301.904 574.655 301.621 574.399 301.408C574.154 301.195 573.775 301.088 573.263 301.088C572.612 301.088 572.1 301.312 571.727 301.76C571.354 302.197 571.167 302.843 571.167 303.696V308H569.823ZM581.603 311.072C581.176 311.072 580.749 311.008 580.323 310.88C579.907 310.763 579.533 310.565 579.203 310.288C578.883 310.011 578.653 309.653 578.515 309.216L579.859 308.848C580.008 309.264 580.253 309.541 580.595 309.68C580.936 309.819 581.272 309.888 581.603 309.888C582.424 309.888 582.979 309.691 583.267 309.296C583.565 308.901 583.715 308.32 583.715 307.552V306.496C583.469 306.912 583.144 307.243 582.739 307.488C582.333 307.733 581.816 307.856 581.187 307.856C580.6 307.856 580.051 307.707 579.539 307.408C579.027 307.099 578.611 306.651 578.291 306.064C577.981 305.467 577.827 304.747 577.827 303.904C577.827 303.051 577.981 302.331 578.291 301.744C578.611 301.157 579.027 300.709 579.539 300.4C580.051 300.091 580.6 299.936 581.187 299.936C581.816 299.936 582.333 300.064 582.739 300.32C583.144 300.565 583.469 300.896 583.715 301.312L584.083 300.064H585.059V307.248C585.059 308.507 584.803 309.456 584.291 310.096C583.789 310.747 582.893 311.072 581.603 311.072ZM581.523 306.736C581.928 306.736 582.296 306.64 582.627 306.448C582.968 306.256 583.24 305.952 583.443 305.536C583.656 305.12 583.763 304.576 583.763 303.904C583.763 303.232 583.656 302.688 583.443 302.272C583.24 301.856 582.968 301.557 582.627 301.376C582.296 301.184 581.928 301.088 581.523 301.088C580.872 301.088 580.333 301.333 579.907 301.824C579.491 302.304 579.283 302.997 579.283 303.904C579.283 304.811 579.491 305.509 579.907 306C580.333 306.491 580.872 306.736 581.523 306.736ZM589.516 308.192C589.015 308.192 588.556 308.101 588.14 307.92C587.724 307.739 587.393 307.477 587.148 307.136C586.903 306.795 586.78 306.384 586.78 305.904C586.78 305.275 586.999 304.779 587.436 304.416C587.884 304.053 588.508 303.776 589.308 303.584C590.119 303.381 591.063 303.221 592.14 303.104C592.161 302.432 592.028 301.915 591.74 301.552C591.452 301.189 590.988 301.008 590.348 301.008C589.868 301.008 589.473 301.12 589.164 301.344C588.865 301.557 588.673 301.856 588.588 302.24L587.292 301.856C587.505 301.248 587.884 300.779 588.428 300.448C588.983 300.107 589.617 299.936 590.332 299.936C591.431 299.936 592.231 300.197 592.732 300.72C593.244 301.232 593.5 302.043 593.5 303.152V305.008C593.5 305.669 593.527 306.24 593.58 306.72C593.633 307.2 593.697 307.627 593.772 308H592.54L592.22 306.912C591.985 307.307 591.649 307.621 591.212 307.856C590.775 308.08 590.209 308.192 589.516 308.192ZM589.804 307.12C590.22 307.12 590.615 307.045 590.988 306.896C591.361 306.747 591.665 306.496 591.9 306.144C592.135 305.781 592.252 305.291 592.252 304.672V304.176C591.441 304.261 590.737 304.368 590.14 304.496C589.543 304.613 589.079 304.784 588.748 305.008C588.428 305.221 588.268 305.509 588.268 305.872C588.268 306.245 588.401 306.549 588.668 306.784C588.945 307.008 589.324 307.12 589.804 307.12ZM598.418 308.192C597.959 308.192 597.506 308.123 597.058 307.984C596.62 307.835 596.226 307.616 595.874 307.328C595.532 307.029 595.271 306.656 595.09 306.208L596.386 305.728C596.503 306.197 596.759 306.539 597.154 306.752C597.559 306.955 597.98 307.056 598.418 307.056C598.738 307.056 599.036 307.008 599.314 306.912C599.602 306.816 599.836 306.677 600.018 306.496C600.199 306.315 600.29 306.107 600.29 305.872C600.29 305.435 600.114 305.125 599.762 304.944C599.42 304.763 599.01 304.624 598.53 304.528L597.426 304.304C597.042 304.219 596.684 304.101 596.354 303.952C596.023 303.792 595.756 303.568 595.554 303.28C595.351 302.992 595.25 302.608 595.25 302.128C595.25 301.648 595.399 301.248 595.698 300.928C595.996 300.597 596.375 300.347 596.834 300.176C597.303 300.005 597.794 299.92 598.306 299.92C598.935 299.92 599.527 300.053 600.082 300.32C600.647 300.576 601.047 300.981 601.282 301.536L600.018 302C599.879 301.68 599.634 301.445 599.282 301.296C598.94 301.136 598.583 301.056 598.21 301.056C597.804 301.056 597.436 301.147 597.106 301.328C596.775 301.509 596.61 301.771 596.61 302.112C596.61 302.453 596.748 302.704 597.026 302.864C597.314 303.013 597.666 303.131 598.082 303.216L599.122 303.424C599.548 303.509 599.954 303.632 600.338 303.792C600.722 303.952 601.036 304.192 601.282 304.512C601.527 304.821 601.65 305.259 601.65 305.824C601.65 306.325 601.495 306.752 601.186 307.104C600.876 307.456 600.476 307.728 599.986 307.92C599.495 308.101 598.972 308.192 598.418 308.192ZM608.193 308V301.136H606.849V300.064H608.193V298.88C608.193 298.336 608.247 297.904 608.353 297.584C608.46 297.264 608.668 297.04 608.977 296.912C609.287 296.773 609.735 296.704 610.321 296.704H611.185V297.84H610.353C610.012 297.84 609.788 297.909 609.681 298.048C609.585 298.187 609.537 298.459 609.537 298.864V300.064H611.185V301.136H609.537V308H608.193ZM615.65 308.192C615.192 308.192 614.738 308.112 614.29 307.952C613.842 307.792 613.432 307.547 613.058 307.216C612.696 306.875 612.402 306.443 612.178 305.92C611.954 305.397 611.842 304.779 611.842 304.064C611.842 303.349 611.954 302.731 612.178 302.208C612.402 301.685 612.696 301.259 613.058 300.928C613.432 300.587 613.842 300.336 614.29 300.176C614.738 300.016 615.192 299.936 615.65 299.936C616.109 299.936 616.562 300.016 617.01 300.176C617.469 300.336 617.88 300.587 618.242 300.928C618.616 301.259 618.909 301.685 619.122 302.208C619.346 302.731 619.458 303.349 619.458 304.064C619.458 304.779 619.346 305.397 619.122 305.92C618.909 306.443 618.616 306.875 618.242 307.216C617.88 307.547 617.469 307.792 617.01 307.952C616.562 308.112 616.109 308.192 615.65 308.192ZM615.65 307.008C616.034 307.008 616.408 306.907 616.77 306.704C617.133 306.491 617.432 306.171 617.666 305.744C617.901 305.307 618.018 304.747 618.018 304.064C618.018 303.381 617.901 302.827 617.666 302.4C617.432 301.963 617.133 301.643 616.77 301.44C616.408 301.227 616.034 301.12 615.65 301.12C615.277 301.12 614.904 301.227 614.53 301.44C614.168 301.643 613.869 301.963 613.634 302.4C613.4 302.827 613.282 303.381 613.282 304.064C613.282 304.747 613.4 305.307 613.634 305.744C613.869 306.171 614.168 306.491 614.53 306.704C614.904 306.907 615.277 307.008 615.65 307.008ZM621.183 308V300.064H622.159L622.591 301.536C622.868 301.056 623.241 300.672 623.711 300.384C624.191 300.085 624.761 299.936 625.423 299.936V301.328C625.348 301.328 625.268 301.328 625.183 301.328C625.108 301.328 625.033 301.333 624.959 301.344C624.052 301.419 623.417 301.733 623.055 302.288C622.703 302.843 622.527 303.611 622.527 304.592V308H621.183ZM631.568 308V301.136H630.224V300.064H631.568V298.88C631.568 298.336 631.622 297.904 631.728 297.584C631.835 297.264 632.043 297.04 632.352 296.912C632.662 296.773 633.11 296.704 633.696 296.704H634.56V297.84H633.728C633.387 297.84 633.163 297.909 633.056 298.048C632.96 298.187 632.912 298.459 632.912 298.864V300.064H634.56V301.136H632.912V308H631.568ZM636.073 308V300.064H637.049L637.481 301.536C637.758 301.056 638.132 300.672 638.601 300.384C639.081 300.085 639.652 299.936 640.313 299.936V301.328C640.238 301.328 640.158 301.328 640.073 301.328C639.998 301.328 639.924 301.333 639.849 301.344C638.942 301.419 638.308 301.733 637.945 302.288C637.593 302.843 637.417 303.611 637.417 304.592V308H636.073ZM644.887 308.192C644.055 308.192 643.351 308.011 642.775 307.648C642.199 307.275 641.756 306.779 641.447 306.16C641.148 305.531 640.999 304.827 640.999 304.048C640.999 303.205 641.169 302.48 641.511 301.872C641.852 301.253 642.311 300.779 642.887 300.448C643.473 300.107 644.129 299.936 644.855 299.936C645.484 299.936 646.039 300.064 646.519 300.32C646.999 300.565 647.393 300.901 647.703 301.328C648.023 301.744 648.252 302.219 648.391 302.752C648.54 303.285 648.593 303.835 648.551 304.4H642.439C642.46 305.061 642.604 305.584 642.871 305.968C643.148 306.352 643.473 306.624 643.847 306.784C644.22 306.933 644.567 307.008 644.887 307.008C645.335 307.008 645.708 306.939 646.007 306.8C646.316 306.651 646.561 306.459 646.743 306.224L648.039 306.608C647.751 307.067 647.34 307.445 646.807 307.744C646.273 308.043 645.633 308.192 644.887 308.192ZM642.455 303.328H647.127C647.127 302.955 647.031 302.597 646.839 302.256C646.657 301.915 646.396 301.637 646.055 301.424C645.724 301.2 645.324 301.088 644.855 301.088C644.46 301.088 644.087 301.163 643.735 301.312C643.383 301.461 643.089 301.701 642.855 302.032C642.631 302.363 642.497 302.795 642.455 303.328ZM653.512 308.192C652.68 308.192 651.976 308.011 651.4 307.648C650.824 307.275 650.381 306.779 650.072 306.16C649.773 305.531 649.624 304.827 649.624 304.048C649.624 303.205 649.794 302.48 650.136 301.872C650.477 301.253 650.936 300.779 651.512 300.448C652.098 300.107 652.754 299.936 653.48 299.936C654.109 299.936 654.664 300.064 655.144 300.32C655.624 300.565 656.018 300.901 656.328 301.328C656.648 301.744 656.877 302.219 657.016 302.752C657.165 303.285 657.218 303.835 657.176 304.4H651.064C651.085 305.061 651.229 305.584 651.496 305.968C651.773 306.352 652.098 306.624 652.472 306.784C652.845 306.933 653.192 307.008 653.512 307.008C653.96 307.008 654.333 306.939 654.632 306.8C654.941 306.651 655.186 306.459 655.368 306.224L656.664 306.608C656.376 307.067 655.965 307.445 655.432 307.744C654.898 308.043 654.258 308.192 653.512 308.192ZM651.08 303.328H655.752C655.752 302.955 655.656 302.597 655.464 302.256C655.282 301.915 655.021 301.637 654.68 301.424C654.349 301.2 653.949 301.088 653.48 301.088C653.085 301.088 652.712 301.163 652.36 301.312C652.008 301.461 651.714 301.701 651.48 302.032C651.256 302.363 651.122 302.795 651.08 303.328ZM659.273 308.192C658.995 308.192 658.755 308.091 658.553 307.888C658.35 307.685 658.249 307.445 658.249 307.168C658.249 306.88 658.35 306.635 658.553 306.432C658.755 306.229 658.995 306.128 659.273 306.128C659.561 306.128 659.806 306.229 660.009 306.432C660.211 306.635 660.313 306.88 660.313 307.168C660.313 307.445 660.211 307.685 660.009 307.888C659.806 308.091 659.561 308.192 659.273 308.192Z" fill="#A7A7A7"/>
<line id="Line 1" x1="349" y1="287.5" x2="629" y2="287.5" stroke="#FBAE3C"/>
</g>
<g id="social icons">
<g id="vercel_dark 1" clip-path="url(#clip1_1_18)">
<path id="Vector_4" d="M441.5 500L454 524.967H429L441.5 500Z" fill="white"/>
</g>
<g id="netlify 1" clip-path="url(#clip2_1_18)">
<path id="Vector_5" d="M483.756 520.806H483.52L482.342 519.471V519.204L484.143 517.164H485.391L485.557 517.352V518.766L483.756 520.806ZM482.342 505.711V505.444L483.52 504.109H483.756L485.557 506.149V507.563L485.391 507.751H484.143L482.342 505.711Z" fill="#05BDBA"/>
<path id="Vector_6" d="M492.713 516.504H490.999L490.856 516.342V511.797C490.856 510.988 490.576 510.361 489.715 510.339C489.272 510.326 488.765 510.339 488.223 510.364L488.142 510.458V516.34L487.999 516.502H486.285L486.141 516.34V508.575L486.285 508.413H490.142C491.642 508.413 492.857 509.789 492.857 511.488V516.342L492.713 516.504Z" fill="#014847"/>
<path id="Vector_7" d="M484 513.594H477.143L477 513.432V511.486L477.143 511.323H484L484.143 511.486V513.432L484 513.594ZM501.857 513.594H495L494.857 513.432V511.486L495 511.323H501.857L502 511.486V513.432L501.857 513.594ZM488.511 505.987V500.162L488.654 500H490.373L490.516 500.162V505.987L490.373 506.149H488.654L488.511 505.987ZM488.511 524.755V518.93L488.654 518.768H490.373L490.516 518.93V524.755L490.373 524.917H488.654L488.511 524.755Z" fill="#05BDBA"/>
</g>
<g id="Social Icons" clip-path="url(#clip3_1_18)">
<rect width="25" height="25" transform="translate(525 500)" fill="#1F1F1F"/>
<path id="Vector_8" fill-rule="evenodd" clip-rule="evenodd" d="M537.51 500C530.592 500 525 505.634 525 512.603C525 518.174 528.583 522.89 533.554 524.559C534.176 524.685 534.403 524.288 534.403 523.955C534.403 523.662 534.383 522.661 534.383 521.617C530.903 522.369 530.178 520.115 530.178 520.115C529.619 518.654 528.79 518.279 528.79 518.279C527.651 517.507 528.873 517.507 528.873 517.507C530.137 517.59 530.8 518.801 530.8 518.801C531.918 520.72 533.72 520.178 534.445 519.844C534.548 519.03 534.88 518.467 535.232 518.154C532.456 517.862 529.536 516.777 529.536 511.935C529.536 510.558 530.033 509.432 530.82 508.555C530.696 508.242 530.261 506.948 530.945 505.217C530.945 505.217 532.001 504.883 534.383 506.51C535.402 506.234 536.454 506.094 537.51 506.093C538.567 506.093 539.643 506.239 540.638 506.51C543.02 504.883 544.076 505.217 544.076 505.217C544.76 506.948 544.325 508.242 544.2 508.555C545.008 509.432 545.485 510.558 545.485 511.935C545.485 516.777 542.564 517.841 539.768 518.154C540.224 518.55 540.617 519.301 540.617 520.491C540.617 522.181 540.597 523.537 540.597 523.954C540.597 524.288 540.824 524.685 541.446 524.56C546.417 522.89 550 518.174 550 512.603C550.02 505.634 544.407 500 537.51 500Z" fill="white"/>
</g>
</g>
<rect id="Rectangle 1" x="268" y="190" width="442" height="173" rx="86.5" fill="#383838" fill-opacity="0.2"/>
</g>
<defs>
<clipPath id="clip0_1_18">
<rect width="979" height="540" fill="white"/>
</clipPath>
<clipPath id="clip1_1_18">
<rect width="25" height="25" fill="white" transform="translate(429 500)"/>
</clipPath>
<clipPath id="clip2_1_18">
<rect width="25" height="25" fill="white" transform="translate(477 500)"/>
</clipPath>
<clipPath id="clip3_1_18">
<rect width="25" height="25" fill="white" transform="translate(525 500)"/>
</clipPath>
</defs>
</svg>
