<svg width="390" height="95" viewBox="0 0 390 95" fill="none" xmlns="http://www.w3.org/2000/svg">
<path d="M0 10C0 4.47715 4.47715 0 10 0H380C385.523 0 390 4.47715 390 10V85C390 90.5228 385.523 95 380 95H10C4.47715 95 0 90.5228 0 85V10Z" fill="#121212"/>
<path d="M100.007 36H98.598C98.5147 35.5947 98.3688 35.2386 98.1605 34.9318C97.956 34.625 97.706 34.3674 97.4105 34.1591C97.1188 33.947 96.795 33.7879 96.4389 33.6818C96.0829 33.5758 95.7116 33.5227 95.3253 33.5227C94.6207 33.5227 93.9825 33.7008 93.4105 34.0568C92.8423 34.4129 92.3897 34.9375 92.0526 35.6307C91.7192 36.3239 91.5526 37.1742 91.5526 38.1818C91.5526 39.1894 91.7192 40.0398 92.0526 40.733C92.3897 41.4261 92.8423 41.9508 93.4105 42.3068C93.9825 42.6629 94.6207 42.8409 95.3253 42.8409C95.7116 42.8409 96.0829 42.7879 96.4389 42.6818C96.795 42.5758 97.1188 42.4186 97.4105 42.2102C97.706 41.9981 97.956 41.7386 98.1605 41.4318C98.3688 41.1212 98.5147 40.7652 98.598 40.3636H100.007C99.901 40.9583 99.7079 41.4905 99.4276 41.9602C99.1473 42.4299 98.7988 42.8295 98.3821 43.1591C97.9654 43.4848 97.4976 43.733 96.9787 43.9034C96.4635 44.0739 95.9124 44.1591 95.3253 44.1591C94.3329 44.1591 93.4503 43.9167 92.6776 43.4318C91.9048 42.947 91.2969 42.2576 90.8537 41.3636C90.4105 40.4697 90.1889 39.4091 90.1889 38.1818C90.1889 36.9545 90.4105 35.8939 90.8537 35C91.2969 34.1061 91.9048 33.4167 92.6776 32.9318C93.4503 32.447 94.3329 32.2045 95.3253 32.2045C95.9124 32.2045 96.4635 32.2898 96.9787 32.4602C97.4976 32.6307 97.9654 32.8807 98.3821 33.2102C98.7988 33.536 99.1473 33.9337 99.4276 34.4034C99.7079 34.8693 99.901 35.4015 100.007 36ZM103.443 38.75V44H102.102V32.3636H103.443V36.6364H103.557C103.761 36.1856 104.068 35.8277 104.477 35.5625C104.89 35.2936 105.439 35.1591 106.125 35.1591C106.72 35.1591 107.241 35.2784 107.688 35.517C108.134 35.7519 108.481 36.1136 108.727 36.6023C108.977 37.0871 109.102 37.7045 109.102 38.4545V44H107.761V38.5455C107.761 37.8523 107.581 37.3163 107.222 36.9375C106.866 36.5549 106.371 36.3636 105.739 36.3636C105.299 36.3636 104.905 36.4564 104.557 36.642C104.212 36.8277 103.939 37.0985 103.739 37.4545C103.542 37.8106 103.443 38.2424 103.443 38.75ZM115.214 44.1818C114.374 44.1818 113.648 43.9962 113.038 43.625C112.432 43.25 111.964 42.7273 111.635 42.0568C111.309 41.3826 111.146 40.5985 111.146 39.7045C111.146 38.8106 111.309 38.0227 111.635 37.3409C111.964 36.6553 112.423 36.1212 113.01 35.7386C113.601 35.3523 114.29 35.1591 115.078 35.1591C115.533 35.1591 115.982 35.2348 116.425 35.3864C116.868 35.5379 117.271 35.7841 117.635 36.125C117.999 36.4621 118.288 36.9091 118.504 37.4659C118.72 38.0227 118.828 38.7083 118.828 39.5227V40.0909H112.101V38.9318H117.464C117.464 38.4394 117.366 38 117.169 37.6136C116.976 37.2273 116.699 36.9223 116.339 36.6989C115.983 36.4754 115.563 36.3636 115.078 36.3636C114.544 36.3636 114.082 36.4962 113.692 36.7614C113.305 37.0227 113.008 37.3636 112.8 37.7841C112.591 38.2045 112.487 38.6553 112.487 39.1364V39.9091C112.487 40.5682 112.601 41.1269 112.828 41.5852C113.059 42.0398 113.379 42.3864 113.788 42.625C114.197 42.8598 114.673 42.9773 115.214 42.9773C115.567 42.9773 115.885 42.928 116.169 42.8295C116.457 42.7273 116.705 42.5758 116.913 42.375C117.122 42.1705 117.283 41.9167 117.396 41.6136L118.692 41.9773C118.555 42.4167 118.326 42.803 118.004 43.1364C117.682 43.4659 117.285 43.7235 116.811 43.9091C116.338 44.0909 115.805 44.1818 115.214 44.1818ZM124.413 44.1818C123.595 44.1818 122.891 43.9886 122.3 43.6023C121.709 43.2159 121.254 42.6837 120.936 42.0057C120.618 41.3277 120.459 40.553 120.459 39.6818C120.459 38.7955 120.622 38.0133 120.947 37.3352C121.277 36.6534 121.735 36.1212 122.322 35.7386C122.913 35.3523 123.603 35.1591 124.391 35.1591C125.004 35.1591 125.557 35.2727 126.05 35.5C126.542 35.7273 126.946 36.0455 127.26 36.4545C127.574 36.8636 127.769 37.3409 127.845 37.8864H126.504C126.402 37.4886 126.175 37.1364 125.822 36.8295C125.474 36.5189 125.004 36.3636 124.413 36.3636C123.891 36.3636 123.432 36.5 123.038 36.7727C122.648 37.0417 122.343 37.4223 122.124 37.9148C121.908 38.4034 121.8 38.9773 121.8 39.6364C121.8 40.3106 121.906 40.8977 122.118 41.3977C122.334 41.8977 122.637 42.286 123.027 42.5625C123.421 42.839 123.883 42.9773 124.413 42.9773C124.762 42.9773 125.078 42.9167 125.362 42.7955C125.646 42.6742 125.887 42.5 126.084 42.2727C126.281 42.0455 126.421 41.7727 126.504 41.4545H127.845C127.769 41.9697 127.582 42.4337 127.283 42.8466C126.987 43.2557 126.595 43.5814 126.107 43.8239C125.622 44.0625 125.057 44.1818 124.413 44.1818ZM131.055 40.8182L131.033 39.1591H131.305L135.124 35.2727H136.783L132.714 39.3864H132.601L131.055 40.8182ZM129.805 44V32.3636H131.146V44H129.805ZM135.351 44L131.942 39.6818L132.896 38.75L137.055 44H135.351ZM141.695 44.1818C140.907 44.1818 140.215 43.9943 139.621 43.6193C139.03 43.2443 138.568 42.7197 138.234 42.0455C137.905 41.3712 137.74 40.5833 137.74 39.6818C137.74 38.7727 137.905 37.9792 138.234 37.3011C138.568 36.6231 139.03 36.0966 139.621 35.7216C140.215 35.3466 140.907 35.1591 141.695 35.1591C142.482 35.1591 143.172 35.3466 143.763 35.7216C144.357 36.0966 144.82 36.6231 145.149 37.3011C145.482 37.9792 145.649 38.7727 145.649 39.6818C145.649 40.5833 145.482 41.3712 145.149 42.0455C144.82 42.7197 144.357 43.2443 143.763 43.6193C143.172 43.9943 142.482 44.1818 141.695 44.1818ZM141.695 42.9773C142.293 42.9773 142.786 42.8239 143.172 42.517C143.558 42.2102 143.844 41.8068 144.03 41.3068C144.215 40.8068 144.308 40.2652 144.308 39.6818C144.308 39.0985 144.215 38.5549 144.03 38.0511C143.844 37.5473 143.558 37.1402 143.172 36.8295C142.786 36.5189 142.293 36.3636 141.695 36.3636C141.096 36.3636 140.604 36.5189 140.217 36.8295C139.831 37.1402 139.545 37.5473 139.359 38.0511C139.174 38.5549 139.081 39.0985 139.081 39.6818C139.081 40.2652 139.174 40.8068 139.359 41.3068C139.545 41.8068 139.831 42.2102 140.217 42.517C140.604 42.8239 141.096 42.9773 141.695 42.9773ZM153.196 40.4318V35.2727H154.537V44H153.196V42.5227H153.105C152.901 42.9659 152.582 43.3428 152.151 43.6534C151.719 43.9602 151.173 44.1136 150.514 44.1136C149.969 44.1136 149.484 43.9943 149.06 43.7557C148.635 43.5133 148.302 43.1496 148.06 42.6648C147.817 42.1761 147.696 41.5606 147.696 40.8182V35.2727H149.037V40.7273C149.037 41.3636 149.215 41.8712 149.571 42.25C149.931 42.6288 150.389 42.8182 150.946 42.8182C151.279 42.8182 151.618 42.733 151.963 42.5625C152.312 42.392 152.603 42.1307 152.838 41.7784C153.077 41.4261 153.196 40.9773 153.196 40.4318ZM160.788 35.2727V36.4091H156.266V35.2727H160.788ZM157.584 33.1818H158.925V41.5C158.925 41.8788 158.98 42.1629 159.089 42.3523C159.203 42.5379 159.347 42.6629 159.521 42.7273C159.699 42.7879 159.887 42.8182 160.084 42.8182C160.232 42.8182 160.353 42.8106 160.447 42.7955C160.542 42.7765 160.618 42.7614 160.675 42.75L160.947 43.9545C160.857 43.9886 160.73 44.0227 160.567 44.0568C160.404 44.0947 160.197 44.1136 159.947 44.1136C159.569 44.1136 159.197 44.0322 158.834 43.8693C158.474 43.7064 158.175 43.4583 157.936 43.125C157.701 42.7917 157.584 42.3712 157.584 41.8636V33.1818ZM170.851 44.1818C170.063 44.1818 169.372 43.9943 168.777 43.6193C168.186 43.2443 167.724 42.7197 167.391 42.0455C167.061 41.3712 166.896 40.5833 166.896 39.6818C166.896 38.7727 167.061 37.9792 167.391 37.3011C167.724 36.6231 168.186 36.0966 168.777 35.7216C169.372 35.3466 170.063 35.1591 170.851 35.1591C171.639 35.1591 172.328 35.3466 172.919 35.7216C173.514 36.0966 173.976 36.6231 174.305 37.3011C174.639 37.9792 174.805 38.7727 174.805 39.6818C174.805 40.5833 174.639 41.3712 174.305 42.0455C173.976 42.7197 173.514 43.2443 172.919 43.6193C172.328 43.9943 171.639 44.1818 170.851 44.1818ZM170.851 42.9773C171.449 42.9773 171.942 42.8239 172.328 42.517C172.714 42.2102 173 41.8068 173.186 41.3068C173.372 40.8068 173.464 40.2652 173.464 39.6818C173.464 39.0985 173.372 38.5549 173.186 38.0511C173 37.5473 172.714 37.1402 172.328 36.8295C171.942 36.5189 171.449 36.3636 170.851 36.3636C170.252 36.3636 169.76 36.5189 169.374 36.8295C168.987 37.1402 168.701 37.5473 168.516 38.0511C168.33 38.5549 168.237 39.0985 168.237 39.6818C168.237 40.2652 168.33 40.8068 168.516 41.3068C168.701 41.8068 168.987 42.2102 169.374 42.517C169.76 42.8239 170.252 42.9773 170.851 42.9773ZM182.352 40.4318V35.2727H183.693V44H182.352V42.5227H182.261C182.057 42.9659 181.739 43.3428 181.307 43.6534C180.875 43.9602 180.33 44.1136 179.67 44.1136C179.125 44.1136 178.64 43.9943 178.216 43.7557C177.792 43.5133 177.458 43.1496 177.216 42.6648C176.973 42.1761 176.852 41.5606 176.852 40.8182V35.2727H178.193V40.7273C178.193 41.3636 178.371 41.8712 178.727 42.25C179.087 42.6288 179.545 42.8182 180.102 42.8182C180.436 42.8182 180.775 42.733 181.119 42.5625C181.468 42.392 181.759 42.1307 181.994 41.7784C182.233 41.4261 182.352 40.9773 182.352 40.4318ZM186.149 44V35.2727H187.445V36.5909H187.536C187.695 36.1591 187.982 35.8087 188.399 35.5398C188.816 35.2708 189.286 35.1364 189.808 35.1364C189.907 35.1364 190.03 35.1383 190.178 35.142C190.325 35.1458 190.437 35.1515 190.513 35.1591V36.5227C190.467 36.5114 190.363 36.4943 190.2 36.4716C190.041 36.4451 189.873 36.4318 189.695 36.4318C189.27 36.4318 188.892 36.5208 188.558 36.6989C188.229 36.8731 187.967 37.1155 187.774 37.4261C187.585 37.733 187.49 38.0833 187.49 38.4773V44H186.149ZM200.125 47.4545C199.477 47.4545 198.92 47.3712 198.455 47.2045C197.989 47.0417 197.6 46.8258 197.29 46.5568C196.983 46.2917 196.739 46.0076 196.557 45.7045L197.625 44.9545C197.746 45.1136 197.9 45.2955 198.085 45.5C198.271 45.7083 198.525 45.8883 198.847 46.0398C199.172 46.1951 199.598 46.2727 200.125 46.2727C200.83 46.2727 201.411 46.1023 201.869 45.7614C202.328 45.4205 202.557 44.8864 202.557 44.1591V42.3864H202.443C202.345 42.5455 202.205 42.7424 202.023 42.9773C201.845 43.2083 201.587 43.4148 201.25 43.5966C200.917 43.7746 200.466 43.8636 199.898 43.8636C199.193 43.8636 198.561 43.697 198 43.3636C197.443 43.0303 197.002 42.5455 196.676 41.9091C196.354 41.2727 196.193 40.5 196.193 39.5909C196.193 38.697 196.35 37.9186 196.665 37.2557C196.979 36.589 197.417 36.0739 197.977 35.7102C198.538 35.3428 199.186 35.1591 199.92 35.1591C200.489 35.1591 200.939 35.2538 201.273 35.4432C201.61 35.6288 201.867 35.8409 202.045 36.0795C202.227 36.3144 202.367 36.5076 202.466 36.6591H202.602V35.2727H203.898V44.25C203.898 45 203.727 45.6098 203.386 46.0795C203.049 46.553 202.595 46.8996 202.023 47.1193C201.455 47.3428 200.822 47.4545 200.125 47.4545ZM200.08 42.6591C200.617 42.6591 201.072 42.536 201.443 42.2898C201.814 42.0436 202.097 41.6894 202.29 41.2273C202.483 40.7652 202.58 40.2121 202.58 39.5682C202.58 38.9394 202.485 38.3845 202.295 37.9034C202.106 37.4223 201.826 37.0455 201.455 36.7727C201.083 36.5 200.625 36.3636 200.08 36.3636C199.511 36.3636 199.038 36.5076 198.659 36.7955C198.284 37.0833 198.002 37.4697 197.812 37.9545C197.627 38.4394 197.534 38.9773 197.534 39.5682C197.534 40.1742 197.629 40.7102 197.818 41.1761C198.011 41.6383 198.295 42.0019 198.67 42.267C199.049 42.5284 199.519 42.6591 200.08 42.6591ZM206.352 44V35.2727H207.693V44H206.352ZM207.034 33.8182C206.773 33.8182 206.547 33.7292 206.358 33.5511C206.172 33.3731 206.08 33.1591 206.08 32.9091C206.08 32.6591 206.172 32.4451 206.358 32.267C206.547 32.089 206.773 32 207.034 32C207.295 32 207.519 32.089 207.705 32.267C207.894 32.4451 207.989 32.6591 207.989 32.9091C207.989 33.1591 207.894 33.3731 207.705 33.5511C207.519 33.7292 207.295 33.8182 207.034 33.8182ZM213.945 35.2727V36.4091H209.422V35.2727H213.945ZM210.74 33.1818H212.081V41.5C212.081 41.8788 212.136 42.1629 212.246 42.3523C212.359 42.5379 212.503 42.6629 212.678 42.7273C212.856 42.7879 213.043 42.8182 213.24 42.8182C213.388 42.8182 213.509 42.8106 213.604 42.7955C213.698 42.7765 213.774 42.7614 213.831 42.75L214.104 43.9545C214.013 43.9886 213.886 44.0227 213.723 44.0568C213.56 44.0947 213.354 44.1136 213.104 44.1136C212.725 44.1136 212.354 44.0322 211.99 43.8693C211.63 43.7064 211.331 43.4583 211.092 43.125C210.857 42.7917 210.74 42.3712 210.74 41.8636V33.1818ZM217.49 38.75V44H216.149V32.3636H217.49V36.6364H217.604C217.808 36.1856 218.115 35.8277 218.524 35.5625C218.937 35.2936 219.486 35.1591 220.172 35.1591C220.767 35.1591 221.287 35.2784 221.734 35.517C222.181 35.7519 222.528 36.1136 222.774 36.6023C223.024 37.0871 223.149 37.7045 223.149 38.4545V44H221.808V38.5455C221.808 37.8523 221.628 37.3163 221.268 36.9375C220.912 36.5549 220.418 36.3636 219.786 36.3636C219.346 36.3636 218.952 36.4564 218.604 36.642C218.259 36.8277 217.986 37.0985 217.786 37.4545C217.589 37.8106 217.49 38.2424 217.49 38.75ZM231.102 40.4318V35.2727H232.443V44H231.102V42.5227H231.011C230.807 42.9659 230.489 43.3428 230.057 43.6534C229.625 43.9602 229.08 44.1136 228.42 44.1136C227.875 44.1136 227.39 43.9943 226.966 43.7557C226.542 43.5133 226.208 43.1496 225.966 42.6648C225.723 42.1761 225.602 41.5606 225.602 40.8182V35.2727H226.943V40.7273C226.943 41.3636 227.121 41.8712 227.477 42.25C227.837 42.6288 228.295 42.8182 228.852 42.8182C229.186 42.8182 229.525 42.733 229.869 42.5625C230.218 42.392 230.509 42.1307 230.744 41.7784C230.983 41.4261 231.102 40.9773 231.102 40.4318ZM235.081 44V32.3636H236.422V36.6591H236.536C236.634 36.5076 236.77 36.3144 236.945 36.0795C237.123 35.8409 237.376 35.6288 237.706 35.4432C238.039 35.2538 238.49 35.1591 239.058 35.1591C239.793 35.1591 240.441 35.3428 241.001 35.7102C241.562 36.0777 242 36.5985 242.314 37.2727C242.628 37.947 242.786 38.7424 242.786 39.6591C242.786 40.5833 242.628 41.3845 242.314 42.0625C242 42.7367 241.564 43.2595 241.007 43.6307C240.45 43.9981 239.808 44.1818 239.081 44.1818C238.52 44.1818 238.071 44.089 237.734 43.9034C237.397 43.714 237.138 43.5 236.956 43.2614C236.774 43.0189 236.634 42.8182 236.536 42.6591H236.376V44H235.081ZM236.399 39.6364C236.399 40.2955 236.496 40.8769 236.689 41.3807C236.882 41.8807 237.164 42.2727 237.536 42.5568C237.907 42.8371 238.361 42.9773 238.899 42.9773C239.46 42.9773 239.928 42.8295 240.303 42.5341C240.681 42.2348 240.965 41.8333 241.155 41.3295C241.348 40.822 241.445 40.2576 241.445 39.6364C241.445 39.0227 241.35 38.4697 241.161 37.9773C240.975 37.4811 240.693 37.089 240.314 36.8011C239.939 36.5095 239.467 36.3636 238.899 36.3636C238.354 36.3636 237.895 36.5019 237.524 36.7784C237.153 37.0511 236.873 37.4337 236.683 37.9261C236.494 38.4148 236.399 38.9848 236.399 39.6364ZM249.337 44V35.2727H250.632V36.5909H250.723C250.882 36.1591 251.17 35.8087 251.587 35.5398C252.003 35.2708 252.473 35.1364 252.996 35.1364C253.094 35.1364 253.217 35.1383 253.365 35.142C253.513 35.1458 253.625 35.1515 253.7 35.1591V36.5227C253.655 36.5114 253.551 36.4943 253.388 36.4716C253.229 36.4451 253.06 36.4318 252.882 36.4318C252.458 36.4318 252.079 36.5208 251.746 36.6989C251.416 36.8731 251.155 37.1155 250.962 37.4261C250.772 37.733 250.678 38.0833 250.678 38.4773V44H249.337ZM258.683 44.1818C257.842 44.1818 257.117 43.9962 256.507 43.625C255.901 43.25 255.433 42.7273 255.104 42.0568C254.778 41.3826 254.615 40.5985 254.615 39.7045C254.615 38.8106 254.778 38.0227 255.104 37.3409C255.433 36.6553 255.892 36.1212 256.479 35.7386C257.07 35.3523 257.759 35.1591 258.547 35.1591C259.001 35.1591 259.45 35.2348 259.893 35.3864C260.337 35.5379 260.74 35.7841 261.104 36.125C261.467 36.4621 261.757 36.9091 261.973 37.4659C262.189 38.0227 262.297 38.7083 262.297 39.5227V40.0909H255.57V38.9318H260.933C260.933 38.4394 260.835 38 260.638 37.6136C260.445 37.2273 260.168 36.9223 259.808 36.6989C259.452 36.4754 259.032 36.3636 258.547 36.3636C258.013 36.3636 257.551 36.4962 257.161 36.7614C256.774 37.0227 256.477 37.3636 256.268 37.7841C256.06 38.2045 255.956 38.6553 255.956 39.1364V39.9091C255.956 40.5682 256.07 41.1269 256.297 41.5852C256.528 42.0398 256.848 42.3864 257.257 42.625C257.666 42.8598 258.142 42.9773 258.683 42.9773C259.036 42.9773 259.354 42.928 259.638 42.8295C259.926 42.7273 260.174 42.5758 260.382 42.375C260.59 42.1705 260.751 41.9167 260.865 41.6136L262.161 41.9773C262.024 42.4167 261.795 42.803 261.473 43.1364C261.151 43.4659 260.753 43.7235 260.28 43.9091C259.806 44.0909 259.274 44.1818 258.683 44.1818ZM264.337 47.2727V35.2727H265.632V36.6591H265.791C265.89 36.5076 266.026 36.3144 266.2 36.0795C266.378 35.8409 266.632 35.6288 266.962 35.4432C267.295 35.2538 267.746 35.1591 268.314 35.1591C269.049 35.1591 269.696 35.3428 270.257 35.7102C270.818 36.0777 271.255 36.5985 271.57 37.2727C271.884 37.947 272.041 38.7424 272.041 39.6591C272.041 40.5833 271.884 41.3845 271.57 42.0625C271.255 42.7367 270.82 43.2595 270.263 43.6307C269.706 43.9981 269.064 44.1818 268.337 44.1818C267.776 44.1818 267.327 44.089 266.99 43.9034C266.653 43.714 266.393 43.5 266.212 43.2614C266.03 43.0189 265.89 42.8182 265.791 42.6591H265.678V47.2727H264.337ZM265.655 39.6364C265.655 40.2955 265.751 40.8769 265.945 41.3807C266.138 41.8807 266.42 42.2727 266.791 42.5568C267.162 42.8371 267.617 42.9773 268.155 42.9773C268.715 42.9773 269.183 42.8295 269.558 42.5341C269.937 42.2348 270.221 41.8333 270.411 41.3295C270.604 40.822 270.7 40.2576 270.7 39.6364C270.7 39.0227 270.606 38.4697 270.416 37.9773C270.231 37.4811 269.948 37.089 269.57 36.8011C269.195 36.5095 268.723 36.3636 268.155 36.3636C267.609 36.3636 267.151 36.5019 266.78 36.7784C266.409 37.0511 266.128 37.4337 265.939 37.9261C265.75 38.4148 265.655 38.9848 265.655 39.6364ZM277.632 44.1818C276.844 44.1818 276.153 43.9943 275.558 43.6193C274.967 43.2443 274.505 42.7197 274.172 42.0455C273.842 41.3712 273.678 40.5833 273.678 39.6818C273.678 38.7727 273.842 37.9792 274.172 37.3011C274.505 36.6231 274.967 36.0966 275.558 35.7216C276.153 35.3466 276.844 35.1591 277.632 35.1591C278.42 35.1591 279.109 35.3466 279.7 35.7216C280.295 36.0966 280.757 36.6231 281.087 37.3011C281.42 37.9792 281.587 38.7727 281.587 39.6818C281.587 40.5833 281.42 41.3712 281.087 42.0455C280.757 42.7197 280.295 43.2443 279.7 43.6193C279.109 43.9943 278.42 44.1818 277.632 44.1818ZM277.632 42.9773C278.231 42.9773 278.723 42.8239 279.109 42.517C279.496 42.2102 279.782 41.8068 279.967 41.3068C280.153 40.8068 280.246 40.2652 280.246 39.6818C280.246 39.0985 280.153 38.5549 279.967 38.0511C279.782 37.5473 279.496 37.1402 279.109 36.8295C278.723 36.5189 278.231 36.3636 277.632 36.3636C277.034 36.3636 276.541 36.5189 276.155 36.8295C275.768 37.1402 275.482 37.5473 275.297 38.0511C275.111 38.5549 275.018 39.0985 275.018 39.6818C275.018 40.2652 275.111 40.8068 275.297 41.3068C275.482 41.8068 275.768 42.2102 276.155 42.517C276.541 42.8239 277.034 42.9773 277.632 42.9773ZM289.815 37.2273L288.611 37.5682C288.535 37.3674 288.423 37.1723 288.276 36.983C288.132 36.7898 287.935 36.6307 287.685 36.5057C287.435 36.3807 287.115 36.3182 286.724 36.3182C286.19 36.3182 285.745 36.4413 285.389 36.6875C285.037 36.9299 284.861 37.2386 284.861 37.6136C284.861 37.947 284.982 38.2102 285.224 38.4034C285.467 38.5966 285.846 38.7576 286.361 38.8864L287.656 39.2045C288.437 39.3939 289.018 39.6837 289.401 40.0739C289.783 40.4602 289.974 40.9583 289.974 41.5682C289.974 42.0682 289.83 42.5152 289.543 42.9091C289.259 43.303 288.861 43.6136 288.349 43.8409C287.838 44.0682 287.243 44.1818 286.565 44.1818C285.675 44.1818 284.938 43.9886 284.355 43.6023C283.772 43.2159 283.402 42.6515 283.247 41.9091L284.52 41.5909C284.641 42.0606 284.87 42.4129 285.207 42.6477C285.548 42.8826 285.993 43 286.543 43C287.168 43 287.664 42.8674 288.031 42.6023C288.402 42.3333 288.588 42.0114 288.588 41.6364C288.588 41.3333 288.482 41.0795 288.27 40.875C288.058 40.6667 287.732 40.5114 287.293 40.4091L285.838 40.0682C285.039 39.8788 284.452 39.5852 284.077 39.1875C283.705 38.786 283.52 38.2841 283.52 37.6818C283.52 37.1894 283.658 36.7538 283.935 36.375C284.215 35.9962 284.596 35.6989 285.077 35.483C285.562 35.267 286.111 35.1591 286.724 35.1591C287.588 35.1591 288.266 35.3485 288.759 35.7273C289.255 36.1061 289.607 36.6061 289.815 37.2273ZM291.993 44V35.2727H293.334V44H291.993ZM292.675 33.8182C292.413 33.8182 292.188 33.7292 291.999 33.5511C291.813 33.3731 291.72 33.1591 291.72 32.9091C291.72 32.6591 291.813 32.4451 291.999 32.267C292.188 32.089 292.413 32 292.675 32C292.936 32 293.16 32.089 293.345 32.267C293.535 32.4451 293.629 32.6591 293.629 32.9091C293.629 33.1591 293.535 33.3731 293.345 33.5511C293.16 33.7292 292.936 33.8182 292.675 33.8182ZM299.585 35.2727V36.4091H295.062V35.2727H299.585ZM296.381 33.1818H297.722V41.5C297.722 41.8788 297.777 42.1629 297.886 42.3523C298 42.5379 298.144 42.6629 298.318 42.7273C298.496 42.7879 298.684 42.8182 298.881 42.8182C299.028 42.8182 299.15 42.8106 299.244 42.7955C299.339 42.7765 299.415 42.7614 299.472 42.75L299.744 43.9545C299.653 43.9886 299.527 44.0227 299.364 44.0568C299.201 44.0947 298.994 44.1136 298.744 44.1136C298.366 44.1136 297.994 44.0322 297.631 43.8693C297.271 43.7064 296.972 43.4583 296.733 43.125C296.498 42.7917 296.381 42.3712 296.381 41.8636V33.1818ZM305.054 44.1818C304.266 44.1818 303.575 43.9943 302.98 43.6193C302.389 43.2443 301.927 42.7197 301.594 42.0455C301.264 41.3712 301.099 40.5833 301.099 39.6818C301.099 38.7727 301.264 37.9792 301.594 37.3011C301.927 36.6231 302.389 36.0966 302.98 35.7216C303.575 35.3466 304.266 35.1591 305.054 35.1591C305.842 35.1591 306.531 35.3466 307.122 35.7216C307.717 36.0966 308.179 36.6231 308.509 37.3011C308.842 37.9792 309.009 38.7727 309.009 39.6818C309.009 40.5833 308.842 41.3712 308.509 42.0455C308.179 42.7197 307.717 43.2443 307.122 43.6193C306.531 43.9943 305.842 44.1818 305.054 44.1818ZM305.054 42.9773C305.652 42.9773 306.145 42.8239 306.531 42.517C306.918 42.2102 307.204 41.8068 307.389 41.3068C307.575 40.8068 307.668 40.2652 307.668 39.6818C307.668 39.0985 307.575 38.5549 307.389 38.0511C307.204 37.5473 306.918 37.1402 306.531 36.8295C306.145 36.5189 305.652 36.3636 305.054 36.3636C304.455 36.3636 303.963 36.5189 303.577 36.8295C303.19 37.1402 302.904 37.5473 302.719 38.0511C302.533 38.5549 302.44 39.0985 302.44 39.6818C302.44 40.2652 302.533 40.8068 302.719 41.3068C302.904 41.8068 303.19 42.2102 303.577 42.517C303.963 42.8239 304.455 42.9773 305.054 42.9773ZM311.055 44V35.2727H312.351V36.5909H312.442C312.601 36.1591 312.889 35.8087 313.305 35.5398C313.722 35.2708 314.192 35.1364 314.714 35.1364C314.813 35.1364 314.936 35.1383 315.084 35.142C315.232 35.1458 315.343 35.1515 315.419 35.1591V36.5227C315.374 36.5114 315.269 36.4943 315.107 36.4716C314.947 36.4451 314.779 36.4318 314.601 36.4318C314.177 36.4318 313.798 36.5208 313.464 36.6989C313.135 36.8731 312.874 37.1155 312.68 37.4261C312.491 37.733 312.396 38.0833 312.396 38.4773V44H311.055ZM318.138 47.2727C317.911 47.2727 317.708 47.2538 317.53 47.2159C317.352 47.1818 317.229 47.1477 317.161 47.1136L317.501 45.9318C317.827 46.0152 318.115 46.0455 318.365 46.0227C318.615 46 318.837 45.8883 319.03 45.6875C319.227 45.4905 319.407 45.1705 319.57 44.7273L319.82 44.0455L316.592 35.2727H318.047L320.456 42.2273H320.547L322.956 35.2727H324.411L320.706 45.2727C320.539 45.7235 320.333 46.0966 320.087 46.392C319.84 46.6913 319.554 46.9129 319.229 47.0568C318.907 47.2008 318.543 47.2727 318.138 47.2727ZM333.249 44.2045C332.696 44.2045 332.194 44.1004 331.743 43.892C331.292 43.6799 330.934 43.375 330.669 42.9773C330.404 42.5758 330.271 42.0909 330.271 41.5227C330.271 41.0227 330.37 40.6174 330.567 40.3068C330.764 39.9924 331.027 39.7462 331.357 39.5682C331.686 39.3902 332.05 39.2576 332.447 39.1705C332.849 39.0795 333.252 39.0076 333.658 38.9545C334.188 38.8864 334.618 38.8352 334.947 38.8011C335.281 38.7633 335.523 38.7008 335.675 38.6136C335.83 38.5265 335.908 38.375 335.908 38.1591V38.1136C335.908 37.553 335.754 37.1174 335.447 36.8068C335.144 36.4962 334.684 36.3409 334.067 36.3409C333.427 36.3409 332.925 36.4811 332.561 36.7614C332.197 37.0417 331.942 37.3409 331.794 37.6591L330.521 37.2045C330.749 36.6742 331.052 36.2614 331.43 35.9659C331.813 35.6667 332.23 35.4583 332.68 35.3409C333.135 35.2197 333.582 35.1591 334.021 35.1591C334.302 35.1591 334.624 35.1932 334.987 35.2614C335.355 35.3258 335.709 35.4602 336.05 35.6648C336.394 35.8693 336.68 36.178 336.908 36.5909C337.135 37.0038 337.249 37.5568 337.249 38.25V44H335.908V42.8182H335.839C335.749 43.0076 335.597 43.2102 335.385 43.4261C335.173 43.642 334.891 43.8258 334.538 43.9773C334.186 44.1288 333.756 44.2045 333.249 44.2045ZM333.453 43C333.983 43 334.43 42.8958 334.794 42.6875C335.161 42.4792 335.438 42.2102 335.624 41.8807C335.813 41.5511 335.908 41.2045 335.908 40.8409V39.6136C335.851 39.6818 335.726 39.7443 335.533 39.8011C335.343 39.8542 335.124 39.9015 334.874 39.9432C334.627 39.9811 334.387 40.0152 334.152 40.0455C333.921 40.072 333.733 40.0947 333.589 40.1136C333.241 40.1591 332.915 40.233 332.612 40.3352C332.313 40.4337 332.071 40.5833 331.885 40.7841C331.703 40.9811 331.612 41.25 331.612 41.5909C331.612 42.0568 331.785 42.4091 332.129 42.6477C332.478 42.8826 332.919 43 333.453 43ZM341.037 38.75V44H339.696V35.2727H340.991V36.6364H341.105C341.31 36.1932 341.62 35.8371 342.037 35.5682C342.454 35.2955 342.991 35.1591 343.651 35.1591C344.241 35.1591 344.759 35.2803 345.202 35.5227C345.645 35.7614 345.99 36.125 346.236 36.6136C346.482 37.0985 346.605 37.7121 346.605 38.4545V44H345.264V38.5455C345.264 37.8598 345.086 37.3258 344.73 36.9432C344.374 36.5568 343.885 36.3636 343.264 36.3636C342.836 36.3636 342.454 36.4564 342.116 36.642C341.783 36.8277 341.52 37.0985 341.327 37.4545C341.134 37.8106 341.037 38.2424 341.037 38.75ZM352.351 44.1818C351.624 44.1818 350.982 43.9981 350.425 43.6307C349.868 43.2595 349.432 42.7367 349.118 42.0625C348.804 41.3845 348.646 40.5833 348.646 39.6591C348.646 38.7424 348.804 37.947 349.118 37.2727C349.432 36.5985 349.87 36.0777 350.43 35.7102C350.991 35.3428 351.639 35.1591 352.374 35.1591C352.942 35.1591 353.391 35.2538 353.72 35.4432C354.054 35.6288 354.307 35.8409 354.482 36.0795C354.66 36.3144 354.798 36.5076 354.896 36.6591H355.01V32.3636H356.351V44H355.055V42.6591H354.896C354.798 42.8182 354.658 43.0189 354.476 43.2614C354.294 43.5 354.035 43.714 353.697 43.9034C353.36 44.089 352.911 44.1818 352.351 44.1818ZM352.533 42.9773C353.071 42.9773 353.525 42.8371 353.896 42.5568C354.268 42.2727 354.55 41.8807 354.743 41.3807C354.936 40.8769 355.033 40.2955 355.033 39.6364C355.033 38.9848 354.938 38.4148 354.749 37.9261C354.559 37.4337 354.279 37.0511 353.908 36.7784C353.536 36.5019 353.078 36.3636 352.533 36.3636C351.964 36.3636 351.491 36.5095 351.112 36.8011C350.737 37.089 350.455 37.4811 350.266 37.9773C350.08 38.4697 349.987 39.0227 349.987 39.6364C349.987 40.2576 350.082 40.822 350.271 41.3295C350.464 41.8333 350.749 42.2348 351.124 42.5341C351.502 42.8295 351.972 42.9773 352.533 42.9773ZM145.804 63.1818C144.986 63.1818 144.281 62.9886 143.69 62.6023C143.099 62.2159 142.645 61.6837 142.327 61.0057C142.009 60.3277 141.849 59.553 141.849 58.6818C141.849 57.7955 142.012 57.0133 142.338 56.3352C142.668 55.6534 143.126 55.1212 143.713 54.7386C144.304 54.3523 144.993 54.1591 145.781 54.1591C146.395 54.1591 146.948 54.2727 147.44 54.5C147.933 54.7273 148.336 55.0455 148.651 55.4545C148.965 55.8636 149.16 56.3409 149.236 56.8864H147.895C147.793 56.4886 147.565 56.1364 147.213 55.8295C146.865 55.5189 146.395 55.3636 145.804 55.3636C145.281 55.3636 144.823 55.5 144.429 55.7727C144.039 56.0417 143.734 56.4223 143.514 56.9148C143.298 57.4034 143.19 57.9773 143.19 58.6364C143.19 59.3106 143.296 59.8977 143.509 60.3977C143.724 60.8977 144.027 61.286 144.418 61.5625C144.812 61.839 145.274 61.9773 145.804 61.9773C146.152 61.9773 146.469 61.9167 146.753 61.7955C147.037 61.6742 147.277 61.5 147.474 61.2727C147.671 61.0455 147.812 60.7727 147.895 60.4545H149.236C149.16 60.9697 148.973 61.4337 148.673 61.8466C148.378 62.2557 147.986 62.5814 147.497 62.8239C147.012 63.0625 146.448 63.1818 145.804 63.1818ZM154.741 63.1818C153.954 63.1818 153.262 62.9943 152.668 62.6193C152.077 62.2443 151.615 61.7197 151.281 61.0455C150.952 60.3712 150.787 59.5833 150.787 58.6818C150.787 57.7727 150.952 56.9792 151.281 56.3011C151.615 55.6231 152.077 55.0966 152.668 54.7216C153.262 54.3466 153.954 54.1591 154.741 54.1591C155.529 54.1591 156.219 54.3466 156.81 54.7216C157.404 55.0966 157.866 55.6231 158.196 56.3011C158.529 56.9792 158.696 57.7727 158.696 58.6818C158.696 59.5833 158.529 60.3712 158.196 61.0455C157.866 61.7197 157.404 62.2443 156.81 62.6193C156.219 62.9943 155.529 63.1818 154.741 63.1818ZM154.741 61.9773C155.34 61.9773 155.832 61.8239 156.219 61.517C156.605 61.2102 156.891 60.8068 157.077 60.3068C157.262 59.8068 157.355 59.2652 157.355 58.6818C157.355 58.0985 157.262 57.5549 157.077 57.0511C156.891 56.5473 156.605 56.1402 156.219 55.8295C155.832 55.5189 155.34 55.3636 154.741 55.3636C154.143 55.3636 153.651 55.5189 153.264 55.8295C152.878 56.1402 152.592 56.5473 152.406 57.0511C152.221 57.5549 152.128 58.0985 152.128 58.6818C152.128 59.2652 152.221 59.8068 152.406 60.3068C152.592 60.8068 152.878 61.2102 153.264 61.517C153.651 61.8239 154.143 61.9773 154.741 61.9773ZM162.084 57.75V63H160.743V54.2727H162.038V55.6364H162.152C162.357 55.1932 162.667 54.8371 163.084 54.5682C163.5 54.2955 164.038 54.1591 164.697 54.1591C165.288 54.1591 165.805 54.2803 166.249 54.5227C166.692 54.7614 167.036 55.125 167.283 55.6136C167.529 56.0985 167.652 56.7121 167.652 57.4545V63H166.311V57.5455C166.311 56.8598 166.133 56.3258 165.777 55.9432C165.421 55.5568 164.932 55.3636 164.311 55.3636C163.883 55.3636 163.5 55.4564 163.163 55.642C162.83 55.8277 162.567 56.0985 162.374 56.4545C162.18 56.8106 162.084 57.2424 162.084 57.75ZM173.898 54.2727V55.4091H169.375V54.2727H173.898ZM170.693 52.1818H172.034V60.5C172.034 60.8788 172.089 61.1629 172.199 61.3523C172.313 61.5379 172.456 61.6629 172.631 61.7273C172.809 61.7879 172.996 61.8182 173.193 61.8182C173.341 61.8182 173.462 61.8106 173.557 61.7955C173.652 61.7765 173.727 61.7614 173.784 61.75L174.057 62.9545C173.966 62.9886 173.839 63.0227 173.676 63.0568C173.513 63.0947 173.307 63.1136 173.057 63.1136C172.678 63.1136 172.307 63.0322 171.943 62.8693C171.583 62.7064 171.284 62.4583 171.045 62.125C170.811 61.7917 170.693 61.3712 170.693 60.8636V52.1818ZM175.915 63V54.2727H177.21V55.5909H177.301C177.46 55.1591 177.748 54.8087 178.165 54.5398C178.581 54.2708 179.051 54.1364 179.574 54.1364C179.672 54.1364 179.795 54.1383 179.943 54.142C180.091 54.1458 180.203 54.1515 180.278 54.1591V55.5227C180.233 55.5114 180.129 55.4943 179.966 55.4716C179.807 55.4451 179.638 55.4318 179.46 55.4318C179.036 55.4318 178.657 55.5208 178.324 55.6989C177.994 55.8731 177.733 56.1155 177.54 56.4261C177.35 56.733 177.256 57.0833 177.256 57.4773V63H175.915ZM181.868 63V54.2727H183.209V63H181.868ZM182.55 52.8182C182.288 52.8182 182.063 52.7292 181.874 52.5511C181.688 52.3731 181.595 52.1591 181.595 51.9091C181.595 51.6591 181.688 51.4451 181.874 51.267C182.063 51.089 182.288 51 182.55 51C182.811 51 183.035 51.089 183.22 51.267C183.41 51.4451 183.504 51.6591 183.504 51.9091C183.504 52.1591 183.41 52.3731 183.22 52.5511C183.035 52.7292 182.811 52.8182 182.55 52.8182ZM185.847 63V51.3636H187.188V55.6591H187.301C187.4 55.5076 187.536 55.3144 187.71 55.0795C187.888 54.8409 188.142 54.6288 188.472 54.4432C188.805 54.2538 189.256 54.1591 189.824 54.1591C190.559 54.1591 191.206 54.3428 191.767 54.7102C192.328 55.0777 192.765 55.5985 193.08 56.2727C193.394 56.947 193.551 57.7424 193.551 58.6591C193.551 59.5833 193.394 60.3845 193.08 61.0625C192.765 61.7367 192.33 62.2595 191.773 62.6307C191.216 62.9981 190.574 63.1818 189.847 63.1818C189.286 63.1818 188.837 63.089 188.5 62.9034C188.163 62.714 187.903 62.5 187.722 62.2614C187.54 62.0189 187.4 61.8182 187.301 61.6591H187.142V63H185.847ZM187.165 58.6364C187.165 59.2955 187.261 59.8769 187.455 60.3807C187.648 60.8807 187.93 61.2727 188.301 61.5568C188.672 61.8371 189.127 61.9773 189.665 61.9773C190.225 61.9773 190.693 61.8295 191.068 61.5341C191.447 61.2348 191.731 60.8333 191.92 60.3295C192.114 59.822 192.21 59.2576 192.21 58.6364C192.21 58.0227 192.116 57.4697 191.926 56.9773C191.741 56.4811 191.458 56.089 191.08 55.8011C190.705 55.5095 190.233 55.3636 189.665 55.3636C189.119 55.3636 188.661 55.5019 188.29 55.7784C187.919 56.0511 187.638 56.4337 187.449 56.9261C187.259 57.4148 187.165 57.9848 187.165 58.6364ZM201.102 59.4318V54.2727H202.443V63H201.102V61.5227H201.011C200.807 61.9659 200.489 62.3428 200.057 62.6534C199.625 62.9602 199.08 63.1136 198.42 63.1136C197.875 63.1136 197.39 62.9943 196.966 62.7557C196.542 62.5133 196.208 62.1496 195.966 61.6648C195.723 61.1761 195.602 60.5606 195.602 59.8182V54.2727H196.943V59.7273C196.943 60.3636 197.121 60.8712 197.477 61.25C197.837 61.6288 198.295 61.8182 198.852 61.8182C199.186 61.8182 199.525 61.733 199.869 61.5625C200.218 61.392 200.509 61.1307 200.744 60.7784C200.983 60.4261 201.102 59.9773 201.102 59.4318ZM208.695 54.2727V55.4091H204.172V54.2727H208.695ZM205.49 52.1818H206.831V60.5C206.831 60.8788 206.886 61.1629 206.996 61.3523C207.109 61.5379 207.253 61.6629 207.428 61.7273C207.606 61.7879 207.793 61.8182 207.99 61.8182C208.138 61.8182 208.259 61.8106 208.354 61.7955C208.448 61.7765 208.524 61.7614 208.581 61.75L208.854 62.9545C208.763 62.9886 208.636 63.0227 208.473 63.0568C208.31 63.0947 208.104 63.1136 207.854 63.1136C207.475 63.1136 207.104 63.0322 206.74 62.8693C206.38 62.7064 206.081 62.4583 205.842 62.125C205.607 61.7917 205.49 61.3712 205.49 60.8636V52.1818ZM214.277 63.1818C213.436 63.1818 212.711 62.9962 212.101 62.625C211.495 62.25 211.027 61.7273 210.697 61.0568C210.372 60.3826 210.209 59.5985 210.209 58.7045C210.209 57.8106 210.372 57.0227 210.697 56.3409C211.027 55.6553 211.485 55.1212 212.072 54.7386C212.663 54.3523 213.353 54.1591 214.141 54.1591C214.595 54.1591 215.044 54.2348 215.487 54.3864C215.93 54.5379 216.334 54.7841 216.697 55.125C217.061 55.4621 217.351 55.9091 217.567 56.4659C217.783 57.0227 217.891 57.7083 217.891 58.5227V59.0909H211.163V57.9318H216.527C216.527 57.4394 216.429 57 216.232 56.6136C216.038 56.2273 215.762 55.9223 215.402 55.6989C215.046 55.4754 214.625 55.3636 214.141 55.3636C213.607 55.3636 213.144 55.4962 212.754 55.7614C212.368 56.0227 212.071 56.3636 211.862 56.7841C211.654 57.2045 211.55 57.6553 211.55 58.1364V58.9091C211.55 59.5682 211.663 60.1269 211.891 60.5852C212.122 61.0398 212.442 61.3864 212.851 61.625C213.26 61.8598 213.735 61.9773 214.277 61.9773C214.629 61.9773 214.947 61.928 215.232 61.8295C215.519 61.7273 215.768 61.5758 215.976 61.375C216.184 61.1705 216.345 60.9167 216.459 60.6136L217.754 60.9773C217.618 61.4167 217.389 61.803 217.067 62.1364C216.745 62.4659 216.347 62.7235 215.874 62.9091C215.4 63.0909 214.868 63.1818 214.277 63.1818ZM225.294 66.2727C225.067 66.2727 224.864 66.2538 224.686 66.2159C224.508 66.1818 224.385 66.1477 224.317 66.1136L224.658 64.9318C224.983 65.0152 225.271 65.0455 225.521 65.0227C225.771 65 225.993 64.8883 226.186 64.6875C226.383 64.4905 226.563 64.1705 226.726 63.7273L226.976 63.0455L223.749 54.2727H225.203L227.612 61.2273H227.703L230.112 54.2727H231.567L227.862 64.2727C227.696 64.7235 227.489 65.0966 227.243 65.392C226.997 65.6913 226.711 65.9129 226.385 66.0568C226.063 66.2008 225.699 66.2727 225.294 66.2727ZM236.57 63.1818C235.782 63.1818 235.09 62.9943 234.496 62.6193C233.905 62.2443 233.443 61.7197 233.109 61.0455C232.78 60.3712 232.615 59.5833 232.615 58.6818C232.615 57.7727 232.78 56.9792 233.109 56.3011C233.443 55.6231 233.905 55.0966 234.496 54.7216C235.09 54.3466 235.782 54.1591 236.57 54.1591C237.357 54.1591 238.047 54.3466 238.638 54.7216C239.232 55.0966 239.695 55.6231 240.024 56.3011C240.357 56.9792 240.524 57.7727 240.524 58.6818C240.524 59.5833 240.357 60.3712 240.024 61.0455C239.695 61.7197 239.232 62.2443 238.638 62.6193C238.047 62.9943 237.357 63.1818 236.57 63.1818ZM236.57 61.9773C237.168 61.9773 237.661 61.8239 238.047 61.517C238.433 61.2102 238.719 60.8068 238.905 60.3068C239.09 59.8068 239.183 59.2652 239.183 58.6818C239.183 58.0985 239.09 57.5549 238.905 57.0511C238.719 56.5473 238.433 56.1402 238.047 55.8295C237.661 55.5189 237.168 55.3636 236.57 55.3636C235.971 55.3636 235.479 55.5189 235.092 55.8295C234.706 56.1402 234.42 56.5473 234.234 57.0511C234.049 57.5549 233.956 58.0985 233.956 58.6818C233.956 59.2652 234.049 59.8068 234.234 60.3068C234.42 60.8068 234.706 61.2102 235.092 61.517C235.479 61.8239 235.971 61.9773 236.57 61.9773ZM248.071 59.4318V54.2727H249.412V63H248.071V61.5227H247.98C247.776 61.9659 247.457 62.3428 247.026 62.6534C246.594 62.9602 246.048 63.1136 245.389 63.1136C244.844 63.1136 244.359 62.9943 243.935 62.7557C243.51 62.5133 243.177 62.1496 242.935 61.6648C242.692 61.1761 242.571 60.5606 242.571 59.8182V54.2727H243.912V59.7273C243.912 60.3636 244.09 60.8712 244.446 61.25C244.806 61.6288 245.264 61.8182 245.821 61.8182C246.154 61.8182 246.493 61.733 246.838 61.5625C247.187 61.392 247.478 61.1307 247.713 60.7784C247.952 60.4261 248.071 59.9773 248.071 59.4318ZM251.868 63V54.2727H253.163V55.5909H253.254C253.413 55.1591 253.701 54.8087 254.118 54.5398C254.535 54.2708 255.004 54.1364 255.527 54.1364C255.625 54.1364 255.749 54.1383 255.896 54.142C256.044 54.1458 256.156 54.1515 256.232 54.1591V55.5227C256.186 55.5114 256.082 55.4943 255.919 55.4716C255.76 55.4451 255.591 55.4318 255.413 55.4318C254.989 55.4318 254.61 55.5208 254.277 55.6989C253.947 55.8731 253.686 56.1155 253.493 56.4261C253.304 56.733 253.209 57.0833 253.209 57.4773V63H251.868ZM262.321 63V54.2727H263.662V63H262.321ZM263.003 52.8182C262.741 52.8182 262.516 52.7292 262.327 52.5511C262.141 52.3731 262.048 52.1591 262.048 51.9091C262.048 51.6591 262.141 51.4451 262.327 51.267C262.516 51.089 262.741 51 263.003 51C263.264 51 263.488 51.089 263.673 51.267C263.863 51.4451 263.957 51.6591 263.957 51.9091C263.957 52.1591 263.863 52.3731 263.673 52.5511C263.488 52.7292 263.264 52.8182 263.003 52.8182ZM269.413 63.1818C268.686 63.1818 268.044 62.9981 267.487 62.6307C266.93 62.2595 266.495 61.7367 266.18 61.0625C265.866 60.3845 265.709 59.5833 265.709 58.6591C265.709 57.7424 265.866 56.947 266.18 56.2727C266.495 55.5985 266.932 55.0777 267.493 54.7102C268.054 54.3428 268.701 54.1591 269.436 54.1591C270.004 54.1591 270.453 54.2538 270.783 54.4432C271.116 54.6288 271.37 54.8409 271.544 55.0795C271.722 55.3144 271.86 55.5076 271.959 55.6591H272.072V51.3636H273.413V63H272.118V61.6591H271.959C271.86 61.8182 271.72 62.0189 271.538 62.2614C271.357 62.5 271.097 62.714 270.76 62.9034C270.423 63.089 269.974 63.1818 269.413 63.1818ZM269.595 61.9773C270.133 61.9773 270.588 61.8371 270.959 61.5568C271.33 61.2727 271.612 60.8807 271.805 60.3807C271.999 59.8769 272.095 59.2955 272.095 58.6364C272.095 57.9848 272 57.4148 271.811 56.9261C271.622 56.4337 271.341 56.0511 270.97 55.7784C270.599 55.5019 270.141 55.3636 269.595 55.3636C269.027 55.3636 268.554 55.5095 268.175 55.8011C267.8 56.089 267.518 56.4811 267.328 56.9773C267.143 57.4697 267.05 58.0227 267.05 58.6364C267.05 59.2576 267.144 59.822 267.334 60.3295C267.527 60.8333 267.811 61.2348 268.186 61.5341C268.565 61.8295 269.035 61.9773 269.595 61.9773ZM279.714 63.1818C278.874 63.1818 278.148 62.9962 277.538 62.625C276.932 62.25 276.464 61.7273 276.135 61.0568C275.809 60.3826 275.646 59.5985 275.646 58.7045C275.646 57.8106 275.809 57.0227 276.135 56.3409C276.464 55.6553 276.923 55.1212 277.51 54.7386C278.101 54.3523 278.79 54.1591 279.578 54.1591C280.033 54.1591 280.482 54.2348 280.925 54.3864C281.368 54.5379 281.771 54.7841 282.135 55.125C282.499 55.4621 282.788 55.9091 283.004 56.4659C283.22 57.0227 283.328 57.7083 283.328 58.5227V59.0909H276.601V57.9318H281.964C281.964 57.4394 281.866 57 281.669 56.6136C281.476 56.2273 281.199 55.9223 280.839 55.6989C280.483 55.4754 280.063 55.3636 279.578 55.3636C279.044 55.3636 278.582 55.4962 278.192 55.7614C277.805 56.0227 277.508 56.3636 277.3 56.7841C277.091 57.2045 276.987 57.6553 276.987 58.1364V58.9091C276.987 59.5682 277.101 60.1269 277.328 60.5852C277.559 61.0398 277.879 61.3864 278.288 61.625C278.697 61.8598 279.173 61.9773 279.714 61.9773C280.067 61.9773 280.385 61.928 280.669 61.8295C280.957 61.7273 281.205 61.5758 281.413 61.375C281.622 61.1705 281.783 60.9167 281.896 60.6136L283.192 60.9773C283.055 61.4167 282.826 61.803 282.504 62.1364C282.182 62.4659 281.785 62.7235 281.311 62.9091C280.838 63.0909 280.305 63.1818 279.714 63.1818ZM287.936 63.2045C287.383 63.2045 286.881 63.1004 286.43 62.892C285.98 62.6799 285.622 62.375 285.357 61.9773C285.091 61.5758 284.959 61.0909 284.959 60.5227C284.959 60.0227 285.057 59.6174 285.254 59.3068C285.451 58.9924 285.714 58.7462 286.044 58.5682C286.374 58.3902 286.737 58.2576 287.135 58.1705C287.536 58.0795 287.94 58.0076 288.345 57.9545C288.875 57.8864 289.305 57.8352 289.635 57.8011C289.968 57.7633 290.211 57.7008 290.362 57.6136C290.518 57.5265 290.595 57.375 290.595 57.1591V57.1136C290.595 56.553 290.442 56.1174 290.135 55.8068C289.832 55.4962 289.372 55.3409 288.754 55.3409C288.114 55.3409 287.612 55.4811 287.249 55.7614C286.885 56.0417 286.629 56.3409 286.482 56.6591L285.209 56.2045C285.436 55.6742 285.739 55.2614 286.118 54.9659C286.5 54.6667 286.917 54.4583 287.368 54.3409C287.822 54.2197 288.269 54.1591 288.709 54.1591C288.989 54.1591 289.311 54.1932 289.675 54.2614C290.042 54.3258 290.396 54.4602 290.737 54.6648C291.082 54.8693 291.368 55.178 291.595 55.5909C291.822 56.0038 291.936 56.5568 291.936 57.25V63H290.595V61.8182H290.527C290.436 62.0076 290.285 62.2102 290.072 62.4261C289.86 62.642 289.578 62.8258 289.226 62.9773C288.874 63.1288 288.444 63.2045 287.936 63.2045ZM288.141 62C288.671 62 289.118 61.8958 289.482 61.6875C289.849 61.4792 290.125 61.2102 290.311 60.8807C290.5 60.5511 290.595 60.2045 290.595 59.8409V58.6136C290.538 58.6818 290.413 58.7443 290.22 58.8011C290.031 58.8542 289.811 58.9015 289.561 58.9432C289.315 58.9811 289.074 59.0152 288.839 59.0455C288.608 59.072 288.421 59.0947 288.277 59.1136C287.929 59.1591 287.603 59.233 287.3 59.3352C287 59.4337 286.758 59.5833 286.572 59.7841C286.391 59.9811 286.3 60.25 286.3 60.5909C286.3 61.0568 286.472 61.4091 286.817 61.6477C287.165 61.8826 287.607 62 288.141 62ZM300.565 56.2273L299.361 56.5682C299.285 56.3674 299.173 56.1723 299.026 55.983C298.882 55.7898 298.685 55.6307 298.435 55.5057C298.185 55.3807 297.865 55.3182 297.474 55.3182C296.94 55.3182 296.495 55.4413 296.139 55.6875C295.787 55.9299 295.611 56.2386 295.611 56.6136C295.611 56.947 295.732 57.2102 295.974 57.4034C296.217 57.5966 296.596 57.7576 297.111 57.8864L298.406 58.2045C299.187 58.3939 299.768 58.6837 300.151 59.0739C300.533 59.4602 300.724 59.9583 300.724 60.5682C300.724 61.0682 300.58 61.5152 300.293 61.9091C300.009 62.303 299.611 62.6136 299.099 62.8409C298.588 63.0682 297.993 63.1818 297.315 63.1818C296.425 63.1818 295.688 62.9886 295.105 62.6023C294.522 62.2159 294.152 61.6515 293.997 60.9091L295.27 60.5909C295.391 61.0606 295.62 61.4129 295.957 61.6477C296.298 61.8826 296.743 62 297.293 62C297.918 62 298.414 61.8674 298.781 61.6023C299.152 61.3333 299.338 61.0114 299.338 60.6364C299.338 60.3333 299.232 60.0795 299.02 59.875C298.808 59.6667 298.482 59.5114 298.043 59.4091L296.588 59.0682C295.789 58.8788 295.202 58.5852 294.827 58.1875C294.455 57.786 294.27 57.2841 294.27 56.6818C294.27 56.1894 294.408 55.7538 294.685 55.375C294.965 54.9962 295.346 54.6989 295.827 54.483C296.312 54.267 296.861 54.1591 297.474 54.1591C298.338 54.1591 299.016 54.3485 299.509 54.7273C300.005 55.1061 300.357 55.6061 300.565 56.2273ZM304.516 51.3636L304.402 59.7273H303.084L302.97 51.3636H304.516ZM303.743 63.0909C303.463 63.0909 303.222 62.9905 303.021 62.7898C302.821 62.589 302.72 62.3485 302.72 62.0682C302.72 61.7879 302.821 61.5473 303.021 61.3466C303.222 61.1458 303.463 61.0455 303.743 61.0455C304.023 61.0455 304.264 61.1458 304.464 61.3466C304.665 61.5473 304.766 61.7879 304.766 62.0682C304.766 62.2538 304.718 62.4242 304.624 62.5795C304.533 62.7348 304.41 62.8598 304.254 62.9545C304.103 63.0455 303.932 63.0909 303.743 63.0909Z" fill="white"/>
<g clip-path="url(#clip0_0_1)">
<path d="M40.0002 22C26.1947 22 15 33.4614 15 47.6002C15 58.911 22.1633 68.5072 32.0967 71.8922C33.3461 72.1292 33.8049 71.3368 33.8049 70.6606C33.8049 70.0502 33.7814 68.0336 33.7709 65.8946C26.8158 67.443 25.3482 62.874 25.3482 62.874C24.2109 59.915 22.5723 59.128 22.5723 59.128C20.3041 57.5392 22.7434 57.572 22.7434 57.572C25.2537 57.7524 26.5756 60.21 26.5756 60.21C28.8055 64.1236 32.4242 62.9922 33.8508 62.338C34.0752 60.6836 34.723 59.554 35.4381 58.9148C29.8852 58.2676 24.0479 56.0724 24.0479 46.2632C24.0479 43.4682 25.0244 41.1844 26.6236 39.3916C26.3641 38.7468 25.5084 36.1432 26.8658 32.6168C26.8658 32.6168 28.9652 31.9288 33.7428 35.241C35.7369 34.6738 37.8756 34.3894 40.0002 34.3796C42.1248 34.3894 44.2652 34.6736 46.2631 35.241C51.0348 31.929 53.1312 32.617 53.1312 32.617C54.492 36.143 53.6359 38.747 53.3764 39.3916C54.9793 41.1844 55.9492 43.4682 55.9492 46.2632C55.9492 56.0958 50.1008 58.2608 44.5338 58.8946C45.4305 59.689 46.2295 61.247 46.2295 63.6354C46.2295 67.0606 46.2006 69.8174 46.2006 70.6606C46.2006 71.342 46.6506 72.1402 47.9178 71.8886C57.8457 68.5 65 58.9074 65 47.6004C65 33.4614 53.8068 22 40.0002 22ZM24.3635 58.468C24.3084 58.5952 24.1129 58.6334 23.935 58.546C23.7535 58.4626 23.6518 58.2892 23.7104 58.1616C23.7643 58.0306 23.9602 57.994 24.141 58.0818C24.3227 58.1654 24.4262 58.3404 24.3635 58.468ZM25.5932 59.5916C25.474 59.7048 25.2408 59.6522 25.0826 59.4734C24.9191 59.295 24.8885 59.0562 25.0094 58.9414C25.1324 58.8282 25.3584 58.8812 25.5223 59.0596C25.6859 59.2402 25.7176 59.4772 25.5932 59.5916ZM26.4369 61.0292C26.2836 61.1382 26.0332 61.036 25.8783 60.8084C25.7252 60.5808 25.7252 60.3078 25.8816 60.1984C26.0369 60.089 26.2836 60.1874 26.4404 60.4134C26.5932 60.6448 26.5932 60.9178 26.4367 61.0294L26.4369 61.0292ZM27.8635 62.6942C27.7266 62.849 27.4346 62.8074 27.2209 62.5962C27.0023 62.3898 26.9416 62.097 27.0791 61.9422C27.2178 61.787 27.5113 61.8306 27.7266 62.0402C27.9434 62.2462 28.0098 62.5412 27.8635 62.6942ZM29.7076 63.2562C29.6471 63.4568 29.3658 63.548 29.0828 63.4628C28.8 63.375 28.615 63.1402 28.6721 62.9376C28.7309 62.7356 29.0133 62.6408 29.2984 62.732C29.5809 62.8192 29.7664 63.0522 29.7076 63.2562ZM31.8061 63.4948C31.8131 63.7058 31.573 63.8808 31.2758 63.8848C30.977 63.8916 30.735 63.7208 30.7316 63.5128C30.7316 63.2998 30.9664 63.1264 31.2654 63.1212C31.5627 63.1152 31.8061 63.2848 31.8061 63.4948ZM33.8676 63.4138C33.9031 63.6198 33.6967 63.8314 33.4014 63.8878C33.1113 63.942 32.8426 63.8148 32.8057 63.6106C32.7697 63.3994 32.9801 63.1878 33.2697 63.1332C33.5654 63.0806 33.8299 63.2044 33.8676 63.4138Z" fill="white"/>
</g>
<defs>
<clipPath id="clip0_0_1">
<rect width="50" height="50" fill="white" transform="translate(15 22)"/>
</clipPath>
</defs>
</svg>
