<svg id="visual" viewBox="0 0 960 260" width="960" height="260" xmlns="http://www.w3.org/2000/svg" xmlns:xlink="http://www.w3.org/1999/xlink" version="1.1"><path d="M0 62L17.8 57C35.7 52 71.3 42 106.8 39.5C142.3 37 177.7 42 213.2 43.2C248.7 44.3 284.3 41.7 320 39.8C355.7 38 391.3 37 426.8 35.2C462.3 33.3 497.7 30.7 533.2 35.5C568.7 40.3 604.3 52.7 640 56.7C675.7 60.7 711.3 56.3 746.8 54.2C782.3 52 817.7 52 853.2 55.7C888.7 59.3 924.3 66.7 942.2 70.3L960 74L960 0L942.2 0C924.3 0 888.7 0 853.2 0C817.7 0 782.3 0 746.8 0C711.3 0 675.7 0 640 0C604.3 0 568.7 0 533.2 0C497.7 0 462.3 0 426.8 0C391.3 0 355.7 0 320 0C284.3 0 248.7 0 213.2 0C177.7 0 142.3 0 106.8 0C71.3 0 35.7 0 17.8 0L0 0Z" fill="#0066FF" stroke-linecap="round" stroke-linejoin="miter"></path></svg>