<svg width="390" height="95" viewBox="0 0 390 95" fill="none" xmlns="http://www.w3.org/2000/svg">
<path d="M0 10C0 4.47715 4.47715 0 10 0H380C385.523 0 390 4.47715 390 10V85C390 90.5228 385.523 95 380 95H10C4.47715 95 0 90.5228 0 85V10Z" fill="#121212"/>
<g clip-path="url(#clip0_0_1)">
<path d="M28.6167 63.6122H28.1409L25.7662 60.9429V60.4082L29.3965 56.3277H31.9115L32.2469 56.7046V59.5316L28.6167 63.6122ZM25.7662 33.4221V32.8874L28.1409 30.2181H28.6167L32.2469 34.2987V37.1257L31.9115 37.5027H29.3965L25.7662 33.4221Z" fill="#05BDBA"/>
<path d="M46.6706 55.0084H43.2159L42.9273 54.6841V45.5936C42.9273 43.9763 42.3618 42.7228 40.6266 42.679C39.7336 42.6527 38.7121 42.679 37.6203 42.7272L37.4563 42.9157V54.6796L37.1678 55.004H33.7131L33.4245 54.6796V39.1509L33.7131 38.8263H41.4883C44.5104 38.8263 46.9591 41.5788 46.9591 44.9757V54.6841L46.6706 55.0084Z" fill="#014847"/>
<path d="M29.1079 49.1878H15.2885L15 48.8635V44.9712L15.2885 44.6469H29.1079L29.3965 44.9712V48.8635L29.1079 49.1878ZM65.099 49.1878H51.2797L50.9911 48.8635V44.9712L51.2797 44.6469H65.099L65.3876 44.9712V48.8635L65.099 49.1878ZM38.2011 33.9743V22.3243L38.4897 22H41.9524L42.241 22.3243V33.9743L41.9524 34.2987H38.4897L38.2011 33.9743ZM38.2011 71.5104V59.8604L38.4897 59.5361H41.9524L42.241 59.8604V71.5104L41.9524 71.8345H38.4897L38.2011 71.5104Z" fill="#05BDBA"/>
</g>
<path d="M103.881 32.3636H105.29V40.0682C105.29 40.8636 105.103 41.5739 104.728 42.1989C104.357 42.8201 103.832 43.3106 103.154 43.6705C102.476 44.0265 101.681 44.2045 100.768 44.2045C99.8549 44.2045 99.0594 44.0265 98.3814 43.6705C97.7034 43.3106 97.1768 42.8201 96.8018 42.1989C96.4306 41.5739 96.245 40.8636 96.245 40.0682V32.3636H97.6541V39.9545C97.6541 40.5227 97.7791 41.0284 98.0291 41.4716C98.2791 41.911 98.6352 42.2576 99.0973 42.5114C99.5632 42.7614 100.12 42.8864 100.768 42.8864C101.415 42.8864 101.972 42.7614 102.438 42.5114C102.904 42.2576 103.26 41.911 103.506 41.4716C103.756 41.0284 103.881 40.5227 103.881 39.9545V32.3636ZM114.104 37.2273L112.9 37.5682C112.824 37.3674 112.712 37.1723 112.565 36.983C112.421 36.7898 112.224 36.6307 111.974 36.5057C111.724 36.3807 111.404 36.3182 111.013 36.3182C110.479 36.3182 110.034 36.4413 109.678 36.6875C109.326 36.9299 109.15 37.2386 109.15 37.6136C109.15 37.947 109.271 38.2102 109.513 38.4034C109.756 38.5966 110.135 38.7576 110.65 38.8864L111.945 39.2045C112.726 39.3939 113.307 39.6837 113.69 40.0739C114.072 40.4602 114.263 40.9583 114.263 41.5682C114.263 42.0682 114.12 42.5152 113.832 42.9091C113.548 43.303 113.15 43.6136 112.638 43.8409C112.127 44.0682 111.532 44.1818 110.854 44.1818C109.964 44.1818 109.228 43.9886 108.644 43.6023C108.061 43.2159 107.692 42.6515 107.536 41.9091L108.809 41.5909C108.93 42.0606 109.159 42.4129 109.496 42.6477C109.837 42.8826 110.282 43 110.832 43C111.457 43 111.953 42.8674 112.32 42.6023C112.692 42.3333 112.877 42.0114 112.877 41.6364C112.877 41.3333 112.771 41.0795 112.559 40.875C112.347 40.6667 112.021 40.5114 111.582 40.4091L110.127 40.0682C109.328 39.8788 108.741 39.5852 108.366 39.1875C107.995 38.786 107.809 38.2841 107.809 37.6818C107.809 37.1894 107.947 36.7538 108.224 36.375C108.504 35.9962 108.885 35.6989 109.366 35.483C109.851 35.267 110.4 35.1591 111.013 35.1591C111.877 35.1591 112.555 35.3485 113.048 35.7273C113.544 36.1061 113.896 36.6061 114.104 37.2273ZM119.941 44.1818C119.1 44.1818 118.375 43.9962 117.765 43.625C117.159 43.25 116.691 42.7273 116.362 42.0568C116.036 41.3826 115.873 40.5985 115.873 39.7045C115.873 38.8106 116.036 38.0227 116.362 37.3409C116.691 36.6553 117.149 36.1212 117.737 35.7386C118.327 35.3523 119.017 35.1591 119.805 35.1591C120.259 35.1591 120.708 35.2348 121.151 35.3864C121.594 35.5379 121.998 35.7841 122.362 36.125C122.725 36.4621 123.015 36.9091 123.231 37.4659C123.447 38.0227 123.555 38.7083 123.555 39.5227V40.0909H116.827V38.9318H122.191C122.191 38.4394 122.093 38 121.896 37.6136C121.702 37.2273 121.426 36.9223 121.066 36.6989C120.71 36.4754 120.29 36.3636 119.805 36.3636C119.271 36.3636 118.808 36.4962 118.418 36.7614C118.032 37.0227 117.735 37.3636 117.526 37.7841C117.318 38.2045 117.214 38.6553 117.214 39.1364V39.9091C117.214 40.5682 117.327 41.1269 117.555 41.5852C117.786 42.0398 118.106 42.3864 118.515 42.625C118.924 42.8598 119.399 42.9773 119.941 42.9773C120.293 42.9773 120.612 42.928 120.896 42.8295C121.183 42.7273 121.432 42.5758 121.64 42.375C121.848 42.1705 122.009 41.9167 122.123 41.6136L123.418 41.9773C123.282 42.4167 123.053 42.803 122.731 43.1364C122.409 43.4659 122.011 43.7235 121.538 43.9091C121.064 44.0909 120.532 44.1818 119.941 44.1818ZM133.89 35.2727V36.4091H129.367V35.2727H133.89ZM130.685 33.1818H132.026V41.5C132.026 41.8788 132.081 42.1629 132.191 42.3523C132.305 42.5379 132.449 42.6629 132.623 42.7273C132.801 42.7879 132.988 42.8182 133.185 42.8182C133.333 42.8182 133.454 42.8106 133.549 42.7955C133.644 42.7765 133.719 42.7614 133.776 42.75L134.049 43.9545C133.958 43.9886 133.831 44.0227 133.668 44.0568C133.505 44.0947 133.299 44.1136 133.049 44.1136C132.67 44.1136 132.299 44.0322 131.935 43.8693C131.576 43.7064 131.276 43.4583 131.038 43.125C130.803 42.7917 130.685 42.3712 130.685 41.8636V33.1818ZM137.435 38.75V44H136.094V32.3636H137.435V36.6364H137.549C137.754 36.1856 138.06 35.8277 138.469 35.5625C138.882 35.2936 139.432 35.1591 140.117 35.1591C140.712 35.1591 141.233 35.2784 141.68 35.517C142.127 35.7519 142.473 36.1136 142.719 36.6023C142.969 37.0871 143.094 37.7045 143.094 38.4545V44H141.754V38.5455C141.754 37.8523 141.574 37.3163 141.214 36.9375C140.858 36.5549 140.363 36.3636 139.731 36.3636C139.291 36.3636 138.897 36.4564 138.549 36.642C138.204 36.8277 137.932 37.0985 137.731 37.4545C137.534 37.8106 137.435 38.2424 137.435 38.75ZM149.207 44.1818C148.366 44.1818 147.64 43.9962 147.031 43.625C146.424 43.25 145.957 42.7273 145.627 42.0568C145.301 41.3826 145.138 40.5985 145.138 39.7045C145.138 38.8106 145.301 38.0227 145.627 37.3409C145.957 36.6553 146.415 36.1212 147.002 35.7386C147.593 35.3523 148.282 35.1591 149.07 35.1591C149.525 35.1591 149.974 35.2348 150.417 35.3864C150.86 35.5379 151.263 35.7841 151.627 36.125C151.991 36.4621 152.281 36.9091 152.496 37.4659C152.712 38.0227 152.82 38.7083 152.82 39.5227V40.0909H146.093V38.9318H151.457C151.457 38.4394 151.358 38 151.161 37.6136C150.968 37.2273 150.692 36.9223 150.332 36.6989C149.976 36.4754 149.555 36.3636 149.07 36.3636C148.536 36.3636 148.074 36.4962 147.684 36.7614C147.298 37.0227 147 37.3636 146.792 37.7841C146.584 38.2045 146.479 38.6553 146.479 39.1364V39.9091C146.479 40.5682 146.593 41.1269 146.82 41.5852C147.051 42.0398 147.371 42.3864 147.781 42.625C148.19 42.8598 148.665 42.9773 149.207 42.9773C149.559 42.9773 149.877 42.928 150.161 42.8295C150.449 42.7273 150.697 42.5758 150.906 42.375C151.114 42.1705 151.275 41.9167 151.388 41.6136L152.684 41.9773C152.548 42.4167 152.318 42.803 151.996 43.1364C151.674 43.4659 151.277 43.7235 150.803 43.9091C150.33 44.0909 149.798 44.1818 149.207 44.1818ZM168.769 32.3636V44H167.406L161.065 34.8636H160.951V44H159.542V32.3636H160.906L167.269 41.5227H167.383V32.3636H168.769ZM175.066 44.1818C174.225 44.1818 173.5 43.9962 172.89 43.625C172.284 43.25 171.816 42.7273 171.487 42.0568C171.161 41.3826 170.998 40.5985 170.998 39.7045C170.998 38.8106 171.161 38.0227 171.487 37.3409C171.816 36.6553 172.274 36.1212 172.862 35.7386C173.452 35.3523 174.142 35.1591 174.93 35.1591C175.384 35.1591 175.833 35.2348 176.276 35.3864C176.719 35.5379 177.123 35.7841 177.487 36.125C177.85 36.4621 178.14 36.9091 178.356 37.4659C178.572 38.0227 178.68 38.7083 178.68 39.5227V40.0909H171.952V38.9318H177.316C177.316 38.4394 177.218 38 177.021 37.6136C176.827 37.2273 176.551 36.9223 176.191 36.6989C175.835 36.4754 175.415 36.3636 174.93 36.3636C174.396 36.3636 173.933 36.4962 173.543 36.7614C173.157 37.0227 172.86 37.3636 172.651 37.7841C172.443 38.2045 172.339 38.6553 172.339 39.1364V39.9091C172.339 40.5682 172.452 41.1269 172.68 41.5852C172.911 42.0398 173.231 42.3864 173.64 42.625C174.049 42.8598 174.524 42.9773 175.066 42.9773C175.418 42.9773 175.737 42.928 176.021 42.8295C176.308 42.7273 176.557 42.5758 176.765 42.375C176.973 42.1705 177.134 41.9167 177.248 41.6136L178.543 41.9773C178.407 42.4167 178.178 42.803 177.856 43.1364C177.534 43.4659 177.136 43.7235 176.663 43.9091C176.189 44.0909 175.657 44.1818 175.066 44.1818ZM184.515 35.2727V36.4091H179.992V35.2727H184.515ZM181.31 33.1818H182.651V41.5C182.651 41.8788 182.706 42.1629 182.816 42.3523C182.93 42.5379 183.074 42.6629 183.248 42.7273C183.426 42.7879 183.613 42.8182 183.81 42.8182C183.958 42.8182 184.079 42.8106 184.174 42.7955C184.269 42.7765 184.344 42.7614 184.401 42.75L184.674 43.9545C184.583 43.9886 184.456 44.0227 184.293 44.0568C184.13 44.0947 183.924 44.1136 183.674 44.1136C183.295 44.1136 182.924 44.0322 182.56 43.8693C182.201 43.7064 181.901 43.4583 181.663 43.125C181.428 42.7917 181.31 42.3712 181.31 41.8636V33.1818ZM188.06 32.3636V44H186.719V32.3636H188.06ZM190.516 44V35.2727H191.857V44H190.516ZM191.198 33.8182C190.937 33.8182 190.711 33.7292 190.522 33.5511C190.336 33.3731 190.244 33.1591 190.244 32.9091C190.244 32.6591 190.336 32.4451 190.522 32.267C190.711 32.089 190.937 32 191.198 32C191.46 32 191.683 32.089 191.869 32.267C192.058 32.4451 192.153 32.6591 192.153 32.9091C192.153 33.1591 192.058 33.3731 191.869 33.5511C191.683 33.7292 191.46 33.8182 191.198 33.8182ZM198.2 35.2727V36.4091H193.495V35.2727H198.2ZM194.904 44V34.0682C194.904 33.5682 195.022 33.1515 195.256 32.8182C195.491 32.4848 195.796 32.2348 196.171 32.0682C196.546 31.9015 196.942 31.8182 197.359 31.8182C197.688 31.8182 197.957 31.8447 198.165 31.8977C198.374 31.9508 198.529 32 198.631 32.0455L198.245 33.2045C198.177 33.1818 198.082 33.1534 197.961 33.1193C197.844 33.0852 197.688 33.0682 197.495 33.0682C197.052 33.0682 196.732 33.1799 196.535 33.4034C196.342 33.6269 196.245 33.9545 196.245 34.3864V44H194.904ZM200.942 47.2727C200.715 47.2727 200.513 47.2538 200.335 47.2159C200.156 47.1818 200.033 47.1477 199.965 47.1136L200.306 45.9318C200.632 46.0152 200.92 46.0455 201.17 46.0227C201.42 46 201.641 45.8883 201.835 45.6875C202.031 45.4905 202.211 45.1705 202.374 44.7273L202.624 44.0455L199.397 35.2727H200.852L203.261 42.2273H203.352L205.761 35.2727H207.215L203.511 45.2727C203.344 45.7235 203.138 46.0966 202.891 46.392C202.645 46.6913 202.359 46.9129 202.033 47.0568C201.711 47.2008 201.348 47.2727 200.942 47.2727ZM213.485 44V35.2727H214.826V44H213.485ZM214.167 33.8182C213.906 33.8182 213.68 33.7292 213.491 33.5511C213.305 33.3731 213.212 33.1591 213.212 32.9091C213.212 32.6591 213.305 32.4451 213.491 32.267C213.68 32.089 213.906 32 214.167 32C214.428 32 214.652 32.089 214.837 32.267C215.027 32.4451 215.121 32.6591 215.121 32.9091C215.121 33.1591 215.027 33.3731 214.837 33.5511C214.652 33.7292 214.428 33.8182 214.167 33.8182ZM218.623 38.75V44H217.282V35.2727H218.577V36.6364H218.691C218.896 36.1932 219.206 35.8371 219.623 35.5682C220.04 35.2955 220.577 35.1591 221.237 35.1591C221.827 35.1591 222.344 35.2803 222.788 35.5227C223.231 35.7614 223.576 36.125 223.822 36.6136C224.068 37.0985 224.191 37.7121 224.191 38.4545V44H222.85V38.5455C222.85 37.8598 222.672 37.3258 222.316 36.9432C221.96 36.5568 221.471 36.3636 220.85 36.3636C220.422 36.3636 220.04 36.4564 219.702 36.642C219.369 36.8277 219.106 37.0985 218.913 37.4545C218.719 37.8106 218.623 38.2424 218.623 38.75ZM232.823 37.2273L231.619 37.5682C231.543 37.3674 231.431 37.1723 231.283 36.983C231.139 36.7898 230.942 36.6307 230.692 36.5057C230.442 36.3807 230.122 36.3182 229.732 36.3182C229.198 36.3182 228.753 36.4413 228.397 36.6875C228.045 36.9299 227.869 37.2386 227.869 37.6136C227.869 37.947 227.99 38.2102 228.232 38.4034C228.475 38.5966 228.853 38.7576 229.369 38.8864L230.664 39.2045C231.444 39.3939 232.026 39.6837 232.408 40.0739C232.791 40.4602 232.982 40.9583 232.982 41.5682C232.982 42.0682 232.838 42.5152 232.55 42.9091C232.266 43.303 231.869 43.6136 231.357 43.8409C230.846 44.0682 230.251 44.1818 229.573 44.1818C228.683 44.1818 227.946 43.9886 227.363 43.6023C226.78 43.2159 226.41 42.6515 226.255 41.9091L227.528 41.5909C227.649 42.0606 227.878 42.4129 228.215 42.6477C228.556 42.8826 229.001 43 229.55 43C230.175 43 230.672 42.8674 231.039 42.6023C231.41 42.3333 231.596 42.0114 231.596 41.6364C231.596 41.3333 231.49 41.0795 231.278 40.875C231.066 40.6667 230.74 40.5114 230.3 40.4091L228.846 40.0682C228.047 39.8788 227.46 39.5852 227.085 39.1875C226.713 38.786 226.528 38.2841 226.528 37.6818C226.528 37.1894 226.666 36.7538 226.942 36.375C227.223 35.9962 227.603 35.6989 228.085 35.483C228.569 35.267 229.119 35.1591 229.732 35.1591C230.596 35.1591 231.274 35.3485 231.766 35.7273C232.263 36.1061 232.615 36.6061 232.823 37.2273ZM238.796 35.2727V36.4091H234.273V35.2727H238.796ZM235.592 33.1818H236.933V41.5C236.933 41.8788 236.987 42.1629 237.097 42.3523C237.211 42.5379 237.355 42.6629 237.529 42.7273C237.707 42.7879 237.895 42.8182 238.092 42.8182C238.239 42.8182 238.361 42.8106 238.455 42.7955C238.55 42.7765 238.626 42.7614 238.683 42.75L238.955 43.9545C238.864 43.9886 238.737 44.0227 238.575 44.0568C238.412 44.0947 238.205 44.1136 237.955 44.1136C237.576 44.1136 237.205 44.0322 236.842 43.8693C236.482 43.7064 236.183 43.4583 235.944 43.125C235.709 42.7917 235.592 42.3712 235.592 41.8636V33.1818ZM243.381 44.2045C242.828 44.2045 242.326 44.1004 241.876 43.892C241.425 43.6799 241.067 43.375 240.802 42.9773C240.537 42.5758 240.404 42.0909 240.404 41.5227C240.404 41.0227 240.503 40.6174 240.7 40.3068C240.897 39.9924 241.16 39.7462 241.489 39.5682C241.819 39.3902 242.183 39.2576 242.58 39.1705C242.982 39.0795 243.385 39.0076 243.79 38.9545C244.321 38.8864 244.751 38.8352 245.08 38.8011C245.414 38.7633 245.656 38.7008 245.808 38.6136C245.963 38.5265 246.04 38.375 246.04 38.1591V38.1136C246.04 37.553 245.887 37.1174 245.58 36.8068C245.277 36.4962 244.817 36.3409 244.2 36.3409C243.559 36.3409 243.058 36.4811 242.694 36.7614C242.33 37.0417 242.075 37.3409 241.927 37.6591L240.654 37.2045C240.881 36.6742 241.184 36.2614 241.563 35.9659C241.946 35.6667 242.362 35.4583 242.813 35.3409C243.268 35.2197 243.715 35.1591 244.154 35.1591C244.434 35.1591 244.756 35.1932 245.12 35.2614C245.487 35.3258 245.842 35.4602 246.183 35.6648C246.527 35.8693 246.813 36.178 247.04 36.5909C247.268 37.0038 247.381 37.5568 247.381 38.25V44H246.04V42.8182H245.972C245.881 43.0076 245.73 43.2102 245.518 43.4261C245.306 43.642 245.023 43.8258 244.671 43.9773C244.319 44.1288 243.889 44.2045 243.381 44.2045ZM243.586 43C244.116 43 244.563 42.8958 244.927 42.6875C245.294 42.4792 245.571 42.2102 245.756 41.8807C245.946 41.5511 246.04 41.2045 246.04 40.8409V39.6136C245.984 39.6818 245.859 39.7443 245.665 39.8011C245.476 39.8542 245.256 39.9015 245.006 39.9432C244.76 39.9811 244.52 40.0152 244.285 40.0455C244.054 40.072 243.866 40.0947 243.722 40.1136C243.374 40.1591 243.048 40.233 242.745 40.3352C242.446 40.4337 242.203 40.5833 242.018 40.7841C241.836 40.9811 241.745 41.25 241.745 41.5909C241.745 42.0568 241.917 42.4091 242.262 42.6477C242.611 42.8826 243.052 43 243.586 43ZM251.17 38.75V44H249.829V35.2727H251.124V36.6364H251.238C251.442 36.1932 251.753 35.8371 252.17 35.5682C252.586 35.2955 253.124 35.1591 253.783 35.1591C254.374 35.1591 254.891 35.2803 255.335 35.5227C255.778 35.7614 256.122 36.125 256.369 36.6136C256.615 37.0985 256.738 37.7121 256.738 38.4545V44H255.397V38.5455C255.397 37.8598 255.219 37.3258 254.863 36.9432C254.507 36.5568 254.018 36.3636 253.397 36.3636C252.969 36.3636 252.586 36.4564 252.249 36.642C251.916 36.8277 251.653 37.0985 251.46 37.4545C251.266 37.8106 251.17 38.2424 251.17 38.75ZM262.734 44.1818C261.915 44.1818 261.211 43.9886 260.62 43.6023C260.029 43.2159 259.575 42.6837 259.256 42.0057C258.938 41.3277 258.779 40.553 258.779 39.6818C258.779 38.7955 258.942 38.0133 259.268 37.3352C259.597 36.6534 260.056 36.1212 260.643 35.7386C261.234 35.3523 261.923 35.1591 262.711 35.1591C263.325 35.1591 263.878 35.2727 264.37 35.5C264.862 35.7273 265.266 36.0455 265.58 36.4545C265.895 36.8636 266.09 37.3409 266.165 37.8864H264.825C264.722 37.4886 264.495 37.1364 264.143 36.8295C263.794 36.5189 263.325 36.3636 262.734 36.3636C262.211 36.3636 261.753 36.5 261.359 36.7727C260.969 37.0417 260.664 37.4223 260.444 37.9148C260.228 38.4034 260.12 38.9773 260.12 39.6364C260.12 40.3106 260.226 40.8977 260.438 41.3977C260.654 41.8977 260.957 42.286 261.347 42.5625C261.741 42.839 262.203 42.9773 262.734 42.9773C263.082 42.9773 263.398 42.9167 263.683 42.7955C263.967 42.6742 264.207 42.5 264.404 42.2727C264.601 42.0455 264.741 41.7727 264.825 41.4545H266.165C266.09 41.9697 265.902 42.4337 265.603 42.8466C265.308 43.2557 264.915 43.5814 264.427 43.8239C263.942 44.0625 263.378 44.1818 262.734 44.1818ZM271.785 44.1818C270.944 44.1818 270.219 43.9962 269.609 43.625C269.003 43.25 268.535 42.7273 268.205 42.0568C267.879 41.3826 267.717 40.5985 267.717 39.7045C267.717 38.8106 267.879 38.0227 268.205 37.3409C268.535 36.6553 268.993 36.1212 269.58 35.7386C270.171 35.3523 270.861 35.1591 271.648 35.1591C272.103 35.1591 272.552 35.2348 272.995 35.3864C273.438 35.5379 273.842 35.7841 274.205 36.125C274.569 36.4621 274.859 36.9091 275.075 37.4659C275.29 38.0227 275.398 38.7083 275.398 39.5227V40.0909H268.671V38.9318H274.035C274.035 38.4394 273.936 38 273.739 37.6136C273.546 37.2273 273.27 36.9223 272.91 36.6989C272.554 36.4754 272.133 36.3636 271.648 36.3636C271.114 36.3636 270.652 36.4962 270.262 36.7614C269.876 37.0227 269.578 37.3636 269.37 37.7841C269.162 38.2045 269.058 38.6553 269.058 39.1364V39.9091C269.058 40.5682 269.171 41.1269 269.398 41.5852C269.629 42.0398 269.95 42.3864 270.359 42.625C270.768 42.8598 271.243 42.9773 271.785 42.9773C272.137 42.9773 272.455 42.928 272.739 42.8295C273.027 42.7273 273.275 42.5758 273.484 42.375C273.692 42.1705 273.853 41.9167 273.967 41.6136L275.262 41.9773C275.126 42.4167 274.897 42.803 274.575 43.1364C274.253 43.4659 273.855 43.7235 273.381 43.9091C272.908 44.0909 272.376 44.1818 271.785 44.1818ZM285.825 35.2727V36.4091H281.12V35.2727H285.825ZM282.529 44V34.0682C282.529 33.5682 282.647 33.1515 282.881 32.8182C283.116 32.4848 283.421 32.2348 283.796 32.0682C284.171 31.9015 284.567 31.8182 284.984 31.8182C285.313 31.8182 285.582 31.8447 285.79 31.8977C285.999 31.9508 286.154 32 286.256 32.0455L285.87 33.2045C285.802 33.1818 285.707 33.1534 285.586 33.1193C285.469 33.0852 285.313 33.0682 285.12 33.0682C284.677 33.0682 284.357 33.1799 284.16 33.4034C283.967 33.6269 283.87 33.9545 283.87 34.3864V44H282.529ZM290.89 44.1818C290.102 44.1818 289.411 43.9943 288.816 43.6193C288.225 43.2443 287.763 42.7197 287.43 42.0455C287.1 41.3712 286.935 40.5833 286.935 39.6818C286.935 38.7727 287.1 37.9792 287.43 37.3011C287.763 36.6231 288.225 36.0966 288.816 35.7216C289.411 35.3466 290.102 35.1591 290.89 35.1591C291.678 35.1591 292.367 35.3466 292.958 35.7216C293.553 36.0966 294.015 36.6231 294.344 37.3011C294.678 37.9792 294.844 38.7727 294.844 39.6818C294.844 40.5833 294.678 41.3712 294.344 42.0455C294.015 42.7197 293.553 43.2443 292.958 43.6193C292.367 43.9943 291.678 44.1818 290.89 44.1818ZM290.89 42.9773C291.488 42.9773 291.981 42.8239 292.367 42.517C292.754 42.2102 293.04 41.8068 293.225 41.3068C293.411 40.8068 293.504 40.2652 293.504 39.6818C293.504 39.0985 293.411 38.5549 293.225 38.0511C293.04 37.5473 292.754 37.1402 292.367 36.8295C291.981 36.5189 291.488 36.3636 290.89 36.3636C290.291 36.3636 289.799 36.5189 289.413 36.8295C289.026 37.1402 288.74 37.5473 288.555 38.0511C288.369 38.5549 288.276 39.0985 288.276 39.6818C288.276 40.2652 288.369 40.8068 288.555 41.3068C288.74 41.8068 289.026 42.2102 289.413 42.517C289.799 42.8239 290.291 42.9773 290.89 42.9773ZM296.891 44V35.2727H298.187V36.5909H298.278C298.437 36.1591 298.725 35.8087 299.141 35.5398C299.558 35.2708 300.028 35.1364 300.55 35.1364C300.649 35.1364 300.772 35.1383 300.92 35.142C301.067 35.1458 301.179 35.1515 301.255 35.1591V36.5227C301.21 36.5114 301.105 36.4943 300.942 36.4716C300.783 36.4451 300.615 36.4318 300.437 36.4318C300.013 36.4318 299.634 36.5208 299.3 36.6989C298.971 36.8731 298.71 37.1155 298.516 37.4261C298.327 37.733 298.232 38.0833 298.232 38.4773V44H296.891ZM307.526 44V32.3636H308.867V36.6591H308.981C309.079 36.5076 309.216 36.3144 309.39 36.0795C309.568 35.8409 309.822 35.6288 310.151 35.4432C310.485 35.2538 310.935 35.1591 311.504 35.1591C312.238 35.1591 312.886 35.3428 313.447 35.7102C314.007 36.0777 314.445 36.5985 314.759 37.2727C315.074 37.947 315.231 38.7424 315.231 39.6591C315.231 40.5833 315.074 41.3845 314.759 42.0625C314.445 42.7367 314.009 43.2595 313.452 43.6307C312.896 43.9981 312.254 44.1818 311.526 44.1818C310.966 44.1818 310.517 44.089 310.18 43.9034C309.843 43.714 309.583 43.5 309.401 43.2614C309.219 43.0189 309.079 42.8182 308.981 42.6591H308.822V44H307.526ZM308.844 39.6364C308.844 40.2955 308.941 40.8769 309.134 41.3807C309.327 41.8807 309.61 42.2727 309.981 42.5568C310.352 42.8371 310.807 42.9773 311.344 42.9773C311.905 42.9773 312.373 42.8295 312.748 42.5341C313.127 42.2348 313.411 41.8333 313.6 41.3295C313.793 40.822 313.89 40.2576 313.89 39.6364C313.89 39.0227 313.795 38.4697 313.606 37.9773C313.42 37.4811 313.138 37.089 312.759 36.8011C312.384 36.5095 311.913 36.3636 311.344 36.3636C310.799 36.3636 310.341 36.5019 309.969 36.7784C309.598 37.0511 309.318 37.4337 309.129 37.9261C308.939 38.4148 308.844 38.9848 308.844 39.6364ZM320.941 44.1818C320.1 44.1818 319.375 43.9962 318.765 43.625C318.159 43.25 317.691 42.7273 317.362 42.0568C317.036 41.3826 316.873 40.5985 316.873 39.7045C316.873 38.8106 317.036 38.0227 317.362 37.3409C317.691 36.6553 318.149 36.1212 318.737 35.7386C319.327 35.3523 320.017 35.1591 320.805 35.1591C321.259 35.1591 321.708 35.2348 322.151 35.3864C322.594 35.5379 322.998 35.7841 323.362 36.125C323.725 36.4621 324.015 36.9091 324.231 37.4659C324.447 38.0227 324.555 38.7083 324.555 39.5227V40.0909H317.827V38.9318H323.191C323.191 38.4394 323.093 38 322.896 37.6136C322.702 37.2273 322.426 36.9223 322.066 36.6989C321.71 36.4754 321.29 36.3636 320.805 36.3636C320.271 36.3636 319.808 36.4962 319.418 36.7614C319.032 37.0227 318.735 37.3636 318.526 37.7841C318.318 38.2045 318.214 38.6553 318.214 39.1364V39.9091C318.214 40.5682 318.327 41.1269 318.555 41.5852C318.786 42.0398 319.106 42.3864 319.515 42.625C319.924 42.8598 320.399 42.9773 320.941 42.9773C321.293 42.9773 321.612 42.928 321.896 42.8295C322.183 42.7273 322.432 42.5758 322.64 42.375C322.848 42.1705 323.009 41.9167 323.123 41.6136L324.418 41.9773C324.282 42.4167 324.053 42.803 323.731 43.1364C323.409 43.4659 323.011 43.7235 322.538 43.9091C322.064 44.0909 321.532 44.1818 320.941 44.1818ZM330.39 35.2727V36.4091H325.867V35.2727H330.39ZM327.185 33.1818H328.526V41.5C328.526 41.8788 328.581 42.1629 328.691 42.3523C328.805 42.5379 328.949 42.6629 329.123 42.7273C329.301 42.7879 329.488 42.8182 329.685 42.8182C329.833 42.8182 329.954 42.8106 330.049 42.7955C330.144 42.7765 330.219 42.7614 330.276 42.75L330.549 43.9545C330.458 43.9886 330.331 44.0227 330.168 44.0568C330.005 44.0947 329.799 44.1136 329.549 44.1136C329.17 44.1136 328.799 44.0322 328.435 43.8693C328.076 43.7064 327.776 43.4583 327.538 43.125C327.303 42.7917 327.185 42.3712 327.185 41.8636V33.1818ZM336.202 35.2727V36.4091H331.68V35.2727H336.202ZM332.998 33.1818H334.339V41.5C334.339 41.8788 334.394 42.1629 334.504 42.3523C334.617 42.5379 334.761 42.6629 334.935 42.7273C335.113 42.7879 335.301 42.8182 335.498 42.8182C335.646 42.8182 335.767 42.8106 335.862 42.7955C335.956 42.7765 336.032 42.7614 336.089 42.75L336.362 43.9545C336.271 43.9886 336.144 44.0227 335.981 44.0568C335.818 44.0947 335.612 44.1136 335.362 44.1136C334.983 44.1136 334.612 44.0322 334.248 43.8693C333.888 43.7064 333.589 43.4583 333.35 43.125C333.115 42.7917 332.998 42.3712 332.998 41.8636V33.1818ZM341.785 44.1818C340.944 44.1818 340.219 43.9962 339.609 43.625C339.003 43.25 338.535 42.7273 338.205 42.0568C337.879 41.3826 337.717 40.5985 337.717 39.7045C337.717 38.8106 337.879 38.0227 338.205 37.3409C338.535 36.6553 338.993 36.1212 339.58 35.7386C340.171 35.3523 340.861 35.1591 341.648 35.1591C342.103 35.1591 342.552 35.2348 342.995 35.3864C343.438 35.5379 343.842 35.7841 344.205 36.125C344.569 36.4621 344.859 36.9091 345.075 37.4659C345.29 38.0227 345.398 38.7083 345.398 39.5227V40.0909H338.671V38.9318H344.035C344.035 38.4394 343.936 38 343.739 37.6136C343.546 37.2273 343.27 36.9223 342.91 36.6989C342.554 36.4754 342.133 36.3636 341.648 36.3636C341.114 36.3636 340.652 36.4962 340.262 36.7614C339.876 37.0227 339.578 37.3636 339.37 37.7841C339.162 38.2045 339.058 38.6553 339.058 39.1364V39.9091C339.058 40.5682 339.171 41.1269 339.398 41.5852C339.629 42.0398 339.95 42.3864 340.359 42.625C340.768 42.8598 341.243 42.9773 341.785 42.9773C342.137 42.9773 342.455 42.928 342.739 42.8295C343.027 42.7273 343.275 42.5758 343.484 42.375C343.692 42.1705 343.853 41.9167 343.967 41.6136L345.262 41.9773C345.126 42.4167 344.897 42.803 344.575 43.1364C344.253 43.4659 343.855 43.7235 343.381 43.9091C342.908 44.0909 342.376 44.1818 341.785 44.1818ZM347.438 44V35.2727H348.734V36.5909H348.825C348.984 36.1591 349.272 35.8087 349.688 35.5398C350.105 35.2708 350.575 35.1364 351.097 35.1364C351.196 35.1364 351.319 35.1383 351.467 35.142C351.614 35.1458 351.726 35.1515 351.802 35.1591V36.5227C351.756 36.5114 351.652 36.4943 351.489 36.4716C351.33 36.4451 351.162 36.4318 350.984 36.4318C350.559 36.4318 350.181 36.5208 349.847 36.6989C349.518 36.8731 349.256 37.1155 349.063 37.4261C348.874 37.733 348.779 38.0833 348.779 38.4773V44H347.438ZM127.954 66.2727V54.2727H129.249V55.6591H129.408C129.507 55.5076 129.643 55.3144 129.817 55.0795C129.996 54.8409 130.249 54.6288 130.579 54.4432C130.912 54.2538 131.363 54.1591 131.931 54.1591C132.666 54.1591 133.314 54.3428 133.874 54.7102C134.435 55.0777 134.872 55.5985 135.187 56.2727C135.501 56.947 135.658 57.7424 135.658 58.6591C135.658 59.5833 135.501 60.3845 135.187 61.0625C134.872 61.7367 134.437 62.2595 133.88 62.6307C133.323 62.9981 132.681 63.1818 131.954 63.1818C131.393 63.1818 130.944 63.089 130.607 62.9034C130.27 62.714 130.011 62.5 129.829 62.2614C129.647 62.0189 129.507 61.8182 129.408 61.6591H129.295V66.2727H127.954ZM129.272 58.6364C129.272 59.2955 129.369 59.8769 129.562 60.3807C129.755 60.8807 130.037 61.2727 130.408 61.5568C130.78 61.8371 131.234 61.9773 131.772 61.9773C132.333 61.9773 132.8 61.8295 133.175 61.5341C133.554 61.2348 133.838 60.8333 134.028 60.3295C134.221 59.822 134.317 59.2576 134.317 58.6364C134.317 58.0227 134.223 57.4697 134.033 56.9773C133.848 56.4811 133.566 56.089 133.187 55.8011C132.812 55.5095 132.34 55.3636 131.772 55.3636C131.227 55.3636 130.768 55.5019 130.397 55.7784C130.026 56.0511 129.746 56.4337 129.556 56.9261C129.367 57.4148 129.272 57.9848 129.272 58.6364ZM141.363 63.1818C140.522 63.1818 139.797 62.9962 139.187 62.625C138.581 62.25 138.113 61.7273 137.783 61.0568C137.458 60.3826 137.295 59.5985 137.295 58.7045C137.295 57.8106 137.458 57.0227 137.783 56.3409C138.113 55.6553 138.571 55.1212 139.158 54.7386C139.749 54.3523 140.439 54.1591 141.227 54.1591C141.681 54.1591 142.13 54.2348 142.573 54.3864C143.016 54.5379 143.42 54.7841 143.783 55.125C144.147 55.4621 144.437 55.9091 144.653 56.4659C144.869 57.0227 144.977 57.7083 144.977 58.5227V59.0909H138.249V57.9318H143.613C143.613 57.4394 143.514 57 143.317 56.6136C143.124 56.2273 142.848 55.9223 142.488 55.6989C142.132 55.4754 141.711 55.3636 141.227 55.3636C140.692 55.3636 140.23 55.4962 139.84 55.7614C139.454 56.0227 139.156 56.3636 138.948 56.7841C138.74 57.2045 138.636 57.6553 138.636 58.1364V58.9091C138.636 59.5682 138.749 60.1269 138.977 60.5852C139.208 61.0398 139.528 61.3864 139.937 61.625C140.346 61.8598 140.821 61.9773 141.363 61.9773C141.715 61.9773 142.033 61.928 142.317 61.8295C142.605 61.7273 142.853 61.5758 143.062 61.375C143.27 61.1705 143.431 60.9167 143.545 60.6136L144.84 60.9773C144.704 61.4167 144.475 61.803 144.153 62.1364C143.831 62.4659 143.433 62.7235 142.96 62.9091C142.486 63.0909 141.954 63.1818 141.363 63.1818ZM147.016 63V54.2727H148.312V55.5909H148.403C148.562 55.1591 148.85 54.8087 149.266 54.5398C149.683 54.2708 150.153 54.1364 150.675 54.1364C150.774 54.1364 150.897 54.1383 151.045 54.142C151.192 54.1458 151.304 54.1515 151.38 54.1591V55.5227C151.335 55.5114 151.23 55.4943 151.067 55.4716C150.908 55.4451 150.74 55.4318 150.562 55.4318C150.138 55.4318 149.759 55.5208 149.425 55.6989C149.096 55.8731 148.835 56.1155 148.641 56.4261C148.452 56.733 148.357 57.0833 148.357 57.4773V63H147.016ZM157.403 54.2727V55.4091H152.698V54.2727H157.403ZM154.107 63V53.0682C154.107 52.5682 154.225 52.1515 154.46 51.8182C154.694 51.4848 154.999 51.2348 155.374 51.0682C155.749 50.9015 156.145 50.8182 156.562 50.8182C156.891 50.8182 157.16 50.8447 157.369 50.8977C157.577 50.9508 157.732 51 157.835 51.0455L157.448 52.2045C157.38 52.1818 157.285 52.1534 157.164 52.1193C157.047 52.0852 156.891 52.0682 156.698 52.0682C156.255 52.0682 155.935 52.1799 155.738 52.4034C155.545 52.6269 155.448 52.9545 155.448 53.3864V63H154.107ZM162.468 63.1818C161.68 63.1818 160.989 62.9943 160.394 62.6193C159.803 62.2443 159.341 61.7197 159.008 61.0455C158.678 60.3712 158.513 59.5833 158.513 58.6818C158.513 57.7727 158.678 56.9792 159.008 56.3011C159.341 55.6231 159.803 55.0966 160.394 54.7216C160.989 54.3466 161.68 54.1591 162.468 54.1591C163.256 54.1591 163.945 54.3466 164.536 54.7216C165.131 55.0966 165.593 55.6231 165.923 56.3011C166.256 56.9792 166.423 57.7727 166.423 58.6818C166.423 59.5833 166.256 60.3712 165.923 61.0455C165.593 61.7197 165.131 62.2443 164.536 62.6193C163.945 62.9943 163.256 63.1818 162.468 63.1818ZM162.468 61.9773C163.067 61.9773 163.559 61.8239 163.945 61.517C164.332 61.2102 164.618 60.8068 164.803 60.3068C164.989 59.8068 165.082 59.2652 165.082 58.6818C165.082 58.0985 164.989 57.5549 164.803 57.0511C164.618 56.5473 164.332 56.1402 163.945 55.8295C163.559 55.5189 163.067 55.3636 162.468 55.3636C161.87 55.3636 161.377 55.5189 160.991 55.8295C160.604 56.1402 160.318 56.5473 160.133 57.0511C159.947 57.5549 159.854 58.0985 159.854 58.6818C159.854 59.2652 159.947 59.8068 160.133 60.3068C160.318 60.8068 160.604 61.2102 160.991 61.517C161.377 61.8239 161.87 61.9773 162.468 61.9773ZM168.469 63V54.2727H169.765V55.5909H169.856C170.015 55.1591 170.303 54.8087 170.719 54.5398C171.136 54.2708 171.606 54.1364 172.129 54.1364C172.227 54.1364 172.35 54.1383 172.498 54.142C172.646 54.1458 172.757 54.1515 172.833 54.1591V55.5227C172.788 55.5114 172.683 55.4943 172.521 55.4716C172.362 55.4451 172.193 55.4318 172.015 55.4318C171.591 55.4318 171.212 55.5208 170.879 55.6989C170.549 55.8731 170.288 56.1155 170.094 56.4261C169.905 56.733 169.81 57.0833 169.81 57.4773V63H168.469ZM174.423 63V54.2727H175.718V55.6364H175.832C176.013 55.1705 176.307 54.8087 176.712 54.5511C177.118 54.2898 177.604 54.1591 178.173 54.1591C178.748 54.1591 179.228 54.2898 179.61 54.5511C179.996 54.8087 180.298 55.1705 180.513 55.6364H180.604C180.828 55.1856 181.163 54.8277 181.61 54.5625C182.057 54.2936 182.593 54.1591 183.218 54.1591C183.998 54.1591 184.637 54.4034 185.133 54.892C185.629 55.3769 185.877 56.1326 185.877 57.1591V63H184.536V57.1591C184.536 56.5152 184.36 56.0549 184.008 55.7784C183.656 55.5019 183.241 55.3636 182.763 55.3636C182.15 55.3636 181.674 55.5492 181.337 55.9205C181 56.2879 180.832 56.7538 180.832 57.3182V63H179.468V57.0227C179.468 56.5265 179.307 56.1269 178.985 55.8239C178.663 55.517 178.248 55.3636 177.741 55.3636C177.392 55.3636 177.067 55.4564 176.763 55.642C176.464 55.8277 176.222 56.0852 176.036 56.4148C175.854 56.7405 175.763 57.1174 175.763 57.5455V63H174.423ZM190.897 63.2045C190.344 63.2045 189.842 63.1004 189.391 62.892C188.941 62.6799 188.583 62.375 188.317 61.9773C188.052 61.5758 187.92 61.0909 187.92 60.5227C187.92 60.0227 188.018 59.6174 188.215 59.3068C188.412 58.9924 188.675 58.7462 189.005 58.5682C189.335 58.3902 189.698 58.2576 190.096 58.1705C190.497 58.0795 190.901 58.0076 191.306 57.9545C191.836 57.8864 192.266 57.8352 192.596 57.8011C192.929 57.7633 193.172 57.7008 193.323 57.6136C193.478 57.5265 193.556 57.375 193.556 57.1591V57.1136C193.556 56.553 193.403 56.1174 193.096 55.8068C192.793 55.4962 192.333 55.3409 191.715 55.3409C191.075 55.3409 190.573 55.4811 190.21 55.7614C189.846 56.0417 189.59 56.3409 189.442 56.6591L188.17 56.2045C188.397 55.6742 188.7 55.2614 189.079 54.9659C189.461 54.6667 189.878 54.4583 190.329 54.3409C190.783 54.2197 191.23 54.1591 191.67 54.1591C191.95 54.1591 192.272 54.1932 192.636 54.2614C193.003 54.3258 193.357 54.4602 193.698 54.6648C194.043 54.8693 194.329 55.178 194.556 55.5909C194.783 56.0038 194.897 56.5568 194.897 57.25V63H193.556V61.8182H193.488C193.397 62.0076 193.246 62.2102 193.033 62.4261C192.821 62.642 192.539 62.8258 192.187 62.9773C191.835 63.1288 191.405 63.2045 190.897 63.2045ZM191.102 62C191.632 62 192.079 61.8958 192.442 61.6875C192.81 61.4792 193.086 61.2102 193.272 60.8807C193.461 60.5511 193.556 60.2045 193.556 59.8409V58.6136C193.499 58.6818 193.374 58.7443 193.181 58.8011C192.992 58.8542 192.772 58.9015 192.522 58.9432C192.276 58.9811 192.035 59.0152 191.8 59.0455C191.569 59.072 191.382 59.0947 191.238 59.1136C190.889 59.1591 190.564 59.233 190.261 59.3352C189.961 59.4337 189.719 59.5833 189.533 59.7841C189.352 59.9811 189.261 60.25 189.261 60.5909C189.261 61.0568 189.433 61.4091 189.778 61.6477C190.126 61.8826 190.567 62 191.102 62ZM198.685 57.75V63H197.344V54.2727H198.64V55.6364H198.754C198.958 55.1932 199.269 54.8371 199.685 54.5682C200.102 54.2955 200.64 54.1591 201.299 54.1591C201.89 54.1591 202.407 54.2803 202.85 54.5227C203.293 54.7614 203.638 55.125 203.884 55.6136C204.13 56.0985 204.254 56.7121 204.254 57.4545V63H202.913V57.5455C202.913 56.8598 202.735 56.3258 202.379 55.9432C202.022 55.5568 201.534 55.3636 200.913 55.3636C200.485 55.3636 200.102 55.4564 199.765 55.642C199.432 55.8277 199.168 56.0985 198.975 56.4545C198.782 56.8106 198.685 57.2424 198.685 57.75ZM210.249 63.1818C209.431 63.1818 208.727 62.9886 208.136 62.6023C207.545 62.2159 207.09 61.6837 206.772 61.0057C206.454 60.3277 206.295 59.553 206.295 58.6818C206.295 57.7955 206.458 57.0133 206.783 56.3352C207.113 55.6534 207.571 55.1212 208.158 54.7386C208.749 54.3523 209.439 54.1591 210.227 54.1591C210.84 54.1591 211.393 54.2727 211.886 54.5C212.378 54.7273 212.781 55.0455 213.096 55.4545C213.41 55.8636 213.605 56.3409 213.681 56.8864H212.34C212.238 56.4886 212.011 56.1364 211.658 55.8295C211.31 55.5189 210.84 55.3636 210.249 55.3636C209.727 55.3636 209.268 55.5 208.874 55.7727C208.484 56.0417 208.179 56.4223 207.96 56.9148C207.744 57.4034 207.636 57.9773 207.636 58.6364C207.636 59.3106 207.742 59.8977 207.954 60.3977C208.17 60.8977 208.473 61.286 208.863 61.5625C209.257 61.839 209.719 61.9773 210.249 61.9773C210.598 61.9773 210.914 61.9167 211.198 61.7955C211.482 61.6742 211.723 61.5 211.92 61.2727C212.117 61.0455 212.257 60.7727 212.34 60.4545H213.681C213.605 60.9697 213.418 61.4337 213.119 61.8466C212.823 62.2557 212.431 62.5814 211.942 62.8239C211.458 63.0625 210.893 63.1818 210.249 63.1818ZM219.3 63.1818C218.46 63.1818 217.734 62.9962 217.124 62.625C216.518 62.25 216.05 61.7273 215.721 61.0568C215.395 60.3826 215.232 59.5985 215.232 58.7045C215.232 57.8106 215.395 57.0227 215.721 56.3409C216.05 55.6553 216.509 55.1212 217.096 54.7386C217.687 54.3523 218.376 54.1591 219.164 54.1591C219.619 54.1591 220.067 54.2348 220.511 54.3864C220.954 54.5379 221.357 54.7841 221.721 55.125C222.085 55.4621 222.374 55.9091 222.59 56.4659C222.806 57.0227 222.914 57.7083 222.914 58.5227V59.0909H216.187V57.9318H221.55C221.55 57.4394 221.452 57 221.255 56.6136C221.062 56.2273 220.785 55.9223 220.425 55.6989C220.069 55.4754 219.649 55.3636 219.164 55.3636C218.63 55.3636 218.168 55.4962 217.778 55.7614C217.391 56.0227 217.094 56.3636 216.886 56.7841C216.677 57.2045 216.573 57.6553 216.573 58.1364V58.9091C216.573 59.5682 216.687 60.1269 216.914 60.5852C217.145 61.0398 217.465 61.3864 217.874 61.625C218.283 61.8598 218.759 61.9773 219.3 61.9773C219.653 61.9773 219.971 61.928 220.255 61.8295C220.543 61.7273 220.791 61.5758 220.999 61.375C221.208 61.1705 221.369 60.9167 221.482 60.6136L222.778 60.9773C222.641 61.4167 222.412 61.803 222.09 62.1364C221.768 62.4659 221.371 62.7235 220.897 62.9091C220.424 63.0909 219.891 63.1818 219.3 63.1818ZM232.022 63.2045C231.469 63.2045 230.967 63.1004 230.516 62.892C230.066 62.6799 229.708 62.375 229.442 61.9773C229.177 61.5758 229.045 61.0909 229.045 60.5227C229.045 60.0227 229.143 59.6174 229.34 59.3068C229.537 58.9924 229.8 58.7462 230.13 58.5682C230.46 58.3902 230.823 58.2576 231.221 58.1705C231.622 58.0795 232.026 58.0076 232.431 57.9545C232.961 57.8864 233.391 57.8352 233.721 57.8011C234.054 57.7633 234.297 57.7008 234.448 57.6136C234.603 57.5265 234.681 57.375 234.681 57.1591V57.1136C234.681 56.553 234.528 56.1174 234.221 55.8068C233.918 55.4962 233.458 55.3409 232.84 55.3409C232.2 55.3409 231.698 55.4811 231.335 55.7614C230.971 56.0417 230.715 56.3409 230.567 56.6591L229.295 56.2045C229.522 55.6742 229.825 55.2614 230.204 54.9659C230.586 54.6667 231.003 54.4583 231.454 54.3409C231.908 54.2197 232.355 54.1591 232.795 54.1591C233.075 54.1591 233.397 54.1932 233.761 54.2614C234.128 54.3258 234.482 54.4602 234.823 54.6648C235.168 54.8693 235.454 55.178 235.681 55.5909C235.908 56.0038 236.022 56.5568 236.022 57.25V63H234.681V61.8182H234.613C234.522 62.0076 234.371 62.2102 234.158 62.4261C233.946 62.642 233.664 62.8258 233.312 62.9773C232.96 63.1288 232.53 63.2045 232.022 63.2045ZM232.227 62C232.757 62 233.204 61.8958 233.567 61.6875C233.935 61.4792 234.211 61.2102 234.397 60.8807C234.586 60.5511 234.681 60.2045 234.681 59.8409V58.6136C234.624 58.6818 234.499 58.7443 234.306 58.8011C234.117 58.8542 233.897 58.9015 233.647 58.9432C233.401 58.9811 233.16 59.0152 232.925 59.0455C232.694 59.072 232.507 59.0947 232.363 59.1136C232.014 59.1591 231.689 59.233 231.386 59.3352C231.086 59.4337 230.844 59.5833 230.658 59.7841C230.477 59.9811 230.386 60.25 230.386 60.5909C230.386 61.0568 230.558 61.4091 230.903 61.6477C231.251 61.8826 231.692 62 232.227 62ZM239.81 57.75V63H238.469V54.2727H239.765V55.6364H239.879C240.083 55.1932 240.394 54.8371 240.81 54.5682C241.227 54.2955 241.765 54.1591 242.424 54.1591C243.015 54.1591 243.532 54.2803 243.975 54.5227C244.418 54.7614 244.763 55.125 245.009 55.6136C245.255 56.0985 245.379 56.7121 245.379 57.4545V63H244.038V57.5455C244.038 56.8598 243.86 56.3258 243.504 55.9432C243.147 55.5568 242.659 55.3636 242.038 55.3636C241.61 55.3636 241.227 55.4564 240.89 55.642C240.557 55.8277 240.293 56.0985 240.1 56.4545C239.907 56.8106 239.81 57.2424 239.81 57.75ZM251.124 63.1818C250.397 63.1818 249.755 62.9981 249.198 62.6307C248.641 62.2595 248.206 61.7367 247.891 61.0625C247.577 60.3845 247.42 59.5833 247.42 58.6591C247.42 57.7424 247.577 56.947 247.891 56.2727C248.206 55.5985 248.643 55.0777 249.204 54.7102C249.764 54.3428 250.412 54.1591 251.147 54.1591C251.715 54.1591 252.164 54.2538 252.494 54.4432C252.827 54.6288 253.081 54.8409 253.255 55.0795C253.433 55.3144 253.571 55.5076 253.67 55.6591H253.783V51.3636H255.124V63H253.829V61.6591H253.67C253.571 61.8182 253.431 62.0189 253.249 62.2614C253.067 62.5 252.808 62.714 252.471 62.9034C252.134 63.089 251.685 63.1818 251.124 63.1818ZM251.306 61.9773C251.844 61.9773 252.299 61.8371 252.67 61.5568C253.041 61.2727 253.323 60.8807 253.516 60.3807C253.71 59.8769 253.806 59.2955 253.806 58.6364C253.806 57.9848 253.711 57.4148 253.522 56.9261C253.333 56.4337 253.052 56.0511 252.681 55.7784C252.31 55.5019 251.852 55.3636 251.306 55.3636C250.738 55.3636 250.264 55.5095 249.886 55.8011C249.511 56.089 249.228 56.4811 249.039 56.9773C248.853 57.4697 248.761 58.0227 248.761 58.6364C248.761 59.2576 248.855 59.822 249.045 60.3295C249.238 60.8333 249.522 61.2348 249.897 61.5341C250.276 61.8295 250.746 61.9773 251.306 61.9773ZM268.448 56.2273L267.244 56.5682C267.168 56.3674 267.056 56.1723 266.908 55.983C266.764 55.7898 266.567 55.6307 266.317 55.5057C266.067 55.3807 265.747 55.3182 265.357 55.3182C264.823 55.3182 264.378 55.4413 264.022 55.6875C263.67 55.9299 263.494 56.2386 263.494 56.6136C263.494 56.947 263.615 57.2102 263.857 57.4034C264.1 57.5966 264.478 57.7576 264.994 57.8864L266.289 58.2045C267.069 58.3939 267.651 58.6837 268.033 59.0739C268.416 59.4602 268.607 59.9583 268.607 60.5682C268.607 61.0682 268.463 61.5152 268.175 61.9091C267.891 62.303 267.494 62.6136 266.982 62.8409C266.471 63.0682 265.876 63.1818 265.198 63.1818C264.308 63.1818 263.571 62.9886 262.988 62.6023C262.405 62.2159 262.035 61.6515 261.88 60.9091L263.153 60.5909C263.274 61.0606 263.503 61.4129 263.84 61.6477C264.181 61.8826 264.626 62 265.175 62C265.8 62 266.297 61.8674 266.664 61.6023C267.035 61.3333 267.221 61.0114 267.221 60.6364C267.221 60.3333 267.115 60.0795 266.903 59.875C266.691 59.6667 266.365 59.5114 265.925 59.4091L264.471 59.0682C263.672 58.8788 263.085 58.5852 262.71 58.1875C262.338 57.786 262.153 57.2841 262.153 56.6818C262.153 56.1894 262.291 55.7538 262.567 55.375C262.848 54.9962 263.228 54.6989 263.71 54.483C264.194 54.267 264.744 54.1591 265.357 54.1591C266.221 54.1591 266.899 54.3485 267.391 54.7273C267.888 55.1061 268.24 55.6061 268.448 56.2273ZM274.421 54.2727V55.4091H269.898V54.2727H274.421ZM271.217 52.1818H272.558V60.5C272.558 60.8788 272.612 61.1629 272.722 61.3523C272.836 61.5379 272.98 61.6629 273.154 61.7273C273.332 61.7879 273.52 61.8182 273.717 61.8182C273.864 61.8182 273.986 61.8106 274.08 61.7955C274.175 61.7765 274.251 61.7614 274.308 61.75L274.58 62.9545C274.489 62.9886 274.362 63.0227 274.2 63.0568C274.037 63.0947 273.83 63.1136 273.58 63.1136C273.201 63.1136 272.83 63.0322 272.467 62.8693C272.107 62.7064 271.808 62.4583 271.569 62.125C271.334 61.7917 271.217 61.3712 271.217 60.8636V52.1818ZM279.006 63.2045C278.453 63.2045 277.951 63.1004 277.501 62.892C277.05 62.6799 276.692 62.375 276.427 61.9773C276.162 61.5758 276.029 61.0909 276.029 60.5227C276.029 60.0227 276.128 59.6174 276.325 59.3068C276.522 58.9924 276.785 58.7462 277.114 58.5682C277.444 58.3902 277.808 58.2576 278.205 58.1705C278.607 58.0795 279.01 58.0076 279.415 57.9545C279.946 57.8864 280.376 57.8352 280.705 57.8011C281.039 57.7633 281.281 57.7008 281.433 57.6136C281.588 57.5265 281.665 57.375 281.665 57.1591V57.1136C281.665 56.553 281.512 56.1174 281.205 55.8068C280.902 55.4962 280.442 55.3409 279.825 55.3409C279.184 55.3409 278.683 55.4811 278.319 55.7614C277.955 56.0417 277.7 56.3409 277.552 56.6591L276.279 56.2045C276.506 55.6742 276.809 55.2614 277.188 54.9659C277.571 54.6667 277.987 54.4583 278.438 54.3409C278.893 54.2197 279.34 54.1591 279.779 54.1591C280.059 54.1591 280.381 54.1932 280.745 54.2614C281.112 54.3258 281.467 54.4602 281.808 54.6648C282.152 54.8693 282.438 55.178 282.665 55.5909C282.893 56.0038 283.006 56.5568 283.006 57.25V63H281.665V61.8182H281.597C281.506 62.0076 281.355 62.2102 281.143 62.4261C280.931 62.642 280.648 62.8258 280.296 62.9773C279.944 63.1288 279.514 63.2045 279.006 63.2045ZM279.211 62C279.741 62 280.188 61.8958 280.552 61.6875C280.919 61.4792 281.196 61.2102 281.381 60.8807C281.571 60.5511 281.665 60.2045 281.665 59.8409V58.6136C281.609 58.6818 281.484 58.7443 281.29 58.8011C281.101 58.8542 280.881 58.9015 280.631 58.9432C280.385 58.9811 280.145 59.0152 279.91 59.0455C279.679 59.072 279.491 59.0947 279.347 59.1136C278.999 59.1591 278.673 59.233 278.37 59.3352C278.071 59.4337 277.828 59.5833 277.643 59.7841C277.461 59.9811 277.37 60.25 277.37 60.5909C277.37 61.0568 277.542 61.4091 277.887 61.6477C278.236 61.8826 278.677 62 279.211 62ZM285.636 63V51.3636H286.977V55.6591H287.09C287.189 55.5076 287.325 55.3144 287.499 55.0795C287.677 54.8409 287.931 54.6288 288.261 54.4432C288.594 54.2538 289.045 54.1591 289.613 54.1591C290.348 54.1591 290.996 54.3428 291.556 54.7102C292.117 55.0777 292.554 55.5985 292.869 56.2727C293.183 56.947 293.34 57.7424 293.34 58.6591C293.34 59.5833 293.183 60.3845 292.869 61.0625C292.554 61.7367 292.119 62.2595 291.562 62.6307C291.005 62.9981 290.363 63.1818 289.636 63.1818C289.075 63.1818 288.626 63.089 288.289 62.9034C287.952 62.714 287.692 62.5 287.511 62.2614C287.329 62.0189 287.189 61.8182 287.09 61.6591H286.931V63H285.636ZM286.954 58.6364C286.954 59.2955 287.05 59.8769 287.244 60.3807C287.437 60.8807 287.719 61.2727 288.09 61.5568C288.461 61.8371 288.916 61.9773 289.454 61.9773C290.014 61.9773 290.482 61.8295 290.857 61.5341C291.236 61.2348 291.52 60.8333 291.71 60.3295C291.903 59.822 291.999 59.2576 291.999 58.6364C291.999 58.0227 291.905 57.4697 291.715 56.9773C291.53 56.4811 291.247 56.089 290.869 55.8011C290.494 55.5095 290.022 55.3636 289.454 55.3636C288.908 55.3636 288.45 55.5019 288.079 55.7784C287.708 56.0511 287.427 56.4337 287.238 56.9261C287.049 57.4148 286.954 57.9848 286.954 58.6364ZM295.391 63V54.2727H296.732V63H295.391ZM296.073 52.8182C295.812 52.8182 295.586 52.7292 295.397 52.5511C295.211 52.3731 295.119 52.1591 295.119 51.9091C295.119 51.6591 295.211 51.4451 295.397 51.267C295.586 51.089 295.812 51 296.073 51C296.335 51 296.558 51.089 296.744 51.267C296.933 51.4451 297.028 51.6591 297.028 51.9091C297.028 52.1591 296.933 52.3731 296.744 52.5511C296.558 52.7292 296.335 52.8182 296.073 52.8182ZM300.529 51.3636V63H299.188V51.3636H300.529ZM302.985 63V54.2727H304.326V63H302.985ZM303.667 52.8182C303.406 52.8182 303.18 52.7292 302.991 52.5511C302.805 52.3731 302.712 52.1591 302.712 51.9091C302.712 51.6591 302.805 51.4451 302.991 51.267C303.18 51.089 303.406 51 303.667 51C303.928 51 304.152 51.089 304.337 51.267C304.527 51.4451 304.621 51.6591 304.621 51.9091C304.621 52.1591 304.527 52.3731 304.337 52.5511C304.152 52.7292 303.928 52.8182 303.667 52.8182ZM310.577 54.2727V55.4091H306.055V54.2727H310.577ZM307.373 52.1818H308.714V60.5C308.714 60.8788 308.769 61.1629 308.879 61.3523C308.992 61.5379 309.136 61.6629 309.31 61.7273C309.488 61.7879 309.676 61.8182 309.873 61.8182C310.021 61.8182 310.142 61.8106 310.237 61.7955C310.331 61.7765 310.407 61.7614 310.464 61.75L310.737 62.9545C310.646 62.9886 310.519 63.0227 310.356 63.0568C310.193 63.0947 309.987 63.1136 309.737 63.1136C309.358 63.1136 308.987 63.0322 308.623 62.8693C308.263 62.7064 307.964 62.4583 307.725 62.125C307.49 61.7917 307.373 61.3712 307.373 60.8636V52.1818ZM313.458 66.2727C313.231 66.2727 313.028 66.2538 312.85 66.2159C312.672 66.1818 312.549 66.1477 312.481 66.1136L312.822 64.9318C313.147 65.0152 313.435 65.0455 313.685 65.0227C313.935 65 314.157 64.8883 314.35 64.6875C314.547 64.4905 314.727 64.1705 314.89 63.7273L315.14 63.0455L311.913 54.2727H313.367L315.776 61.2273H315.867L318.276 54.2727H319.731L316.026 64.2727C315.86 64.7235 315.653 65.0966 315.407 65.392C315.161 65.6913 314.875 65.9129 314.549 66.0568C314.227 66.2008 313.863 66.2727 313.458 66.2727Z" fill="white"/>
<defs>
<clipPath id="clip0_0_1">
<rect x="15" y="22" width="50.3876" height="50" rx="10" fill="white"/>
</clipPath>
</defs>
</svg>
